<?xml version="1.0" encoding="UTF-8"?>
<svg id="Layer_1" data-name="Layer 1" xmlns="http://www.w3.org/2000/svg" viewBox="0 0 256.33 250.89">
  <defs>
    <style>
      .cls-1 {
        fill: #fff;
      }

      .cls-2 {
        fill: #164450;
      }
    </style>
  </defs>
  <rect class="cls-1" x="0" width="256.33" height="250.89" rx="20" ry="20"/>
  <g>
    <path class="cls-2" d="M122.63,8.55c-1.41,.08-2.97,.18-3.47,.22s-1.47,.12-2.13,.17c-.67,.05-1.53,.13-1.91,.19-.38,.05-1.18,.16-1.76,.23-1.18,.13-4.9,.71-6.11,.95-.42,.08-1.19,.22-1.72,.31-.53,.09-1.95,.4-3.17,.69-1.21,.3-2.92,.7-3.78,.91-.86,.2-2.05,.52-2.63,.71s-1.34,.42-1.68,.5-2.25,.7-4.24,1.37c-3.31,1.11-6.86,2.44-7.97,3-.24,.11-.82,.37-1.3,.55-2.19,.86-9.94,4.74-11.59,5.8-.24,.15-.84,.51-1.34,.8-.5,.28-1.17,.68-1.48,.87s-.99,.6-1.5,.89c-.51,.31-1.28,.8-1.7,1.1-.42,.31-1.21,.84-1.77,1.19-1.28,.82-5.5,3.92-7.21,5.29-2.8,2.25-3.49,2.85-6.3,5.37-3.56,3.19-8.64,8.52-11.33,11.9-.54,.68-1.21,1.51-1.5,1.85-.63,.75-4.37,5.83-5.22,7.1-.6,.9-1.53,2.33-2.73,4.21-.32,.5-.87,1.43-1.22,2.06-.35,.63-.79,1.41-.99,1.72-.19,.31-.64,1.12-.99,1.79s-.8,1.51-1,1.87c-.61,1.1-2.78,5.64-3.35,7.03-.3,.73-.69,1.67-.88,2.09-.37,.84-.92,2.27-1.49,3.86-.2,.57-.49,1.32-.63,1.68-.26,.63-.36,.95-1.24,3.82-.24,.78-.58,1.89-.76,2.48s-.44,1.51-.57,2.06c-.13,.54-.39,1.56-.57,2.25-.46,1.69-1.04,4.44-1.41,6.66-.17,1-.36,2.03-.41,2.29-.06,.27-.15,.84-.2,1.28s-.13,1.09-.19,1.45-.24,1.97-.41,3.59c-.82,7.87-.82,15.98,0,23.83,.18,1.62,.36,3.23,.42,3.59s.15,1.01,.19,1.45,.14,1.02,.2,1.3,.23,1.21,.37,2.1c.33,2.02,1,5.16,1.49,6.99,.21,.78,.47,1.79,.57,2.25,.11,.46,.34,1.27,.5,1.79s.49,1.57,.72,2.33c.9,2.97,1.06,3.46,1.32,4.09,.15,.36,.44,1.12,.63,1.68,.57,1.59,1.12,3.02,1.49,3.86,.18,.42,.57,1.34,.87,2.06,.6,1.48,1.99,4.44,2.85,6.07,.31,.61,.93,1.79,1.37,2.63,.44,.84,.93,1.73,1.09,1.99s.66,1.09,1.09,1.87c.79,1.39,1.5,2.53,3.49,5.54,1.08,1.65,4.77,6.72,5.61,7.71,.28,.34,.95,1.17,1.5,1.84,.92,1.15,2.12,2.54,3.96,4.57,1.07,1.18,4.62,4.86,4.69,4.86,.04,0,.61,.53,1.28,1.17,.66,.63,1.49,1.4,1.83,1.7,.33,.29,.98,.88,1.44,1.29,.87,.79,2.39,2.05,4.5,3.75,1.73,1.4,6.02,4.53,7.31,5.35,.6,.37,1.3,.85,1.55,1.04,.55,.41,1.43,.97,2.64,1.67,.48,.27,1.14,.66,1.45,.86,2.63,1.6,2.97,1.79,6.19,3.46,2.05,1.06,6.32,3.11,7.96,3.8,2.55,1.09,5.96,2.37,9.07,3.4,1.91,.63,3.75,1.22,4.09,1.31s.87,.24,1.18,.35c.88,.31,3.13,.92,4.36,1.18,.6,.13,1.87,.42,2.82,.65s2.15,.48,2.67,.57c.53,.08,1.3,.22,1.72,.31,1.18,.24,4.94,.82,5.88,.92,.47,.05,1.13,.13,1.49,.19,.7,.11,1.91,.24,3.05,.31,.4,.02,1.05,.08,1.45,.11,1.88,.19,6.93,.38,9.89,.38s8.01-.19,9.89-.38c.4-.04,1.05-.09,1.45-.11,1.15-.07,2.35-.19,3.05-.31,.36-.06,1.03-.15,1.49-.19,.93-.1,4.69-.68,5.88-.92,.42-.08,1.26-.23,1.87-.34s1.59-.31,2.18-.47,1.77-.43,2.64-.62c1.63-.35,3.88-.95,4.88-1.29,.31-.11,.85-.27,1.18-.35s2.18-.67,4.09-1.31c3.12-1.03,6.52-2.31,9.07-3.4,1.64-.69,5.91-2.74,7.96-3.8,3.22-1.67,3.56-1.86,6.19-3.46,.31-.19,.97-.58,1.45-.86,1.21-.7,2.09-1.26,2.64-1.67,.25-.19,.95-.66,1.55-1.04,1.29-.82,5.58-3.95,7.31-5.35,2.12-1.7,3.63-2.96,4.5-3.75,.47-.41,.99-.89,1.18-1.05,.68-.59,3.34-3.09,4.28-4.02,1.14-1.14,3.56-3.68,4.33-4.54,.3-.34,.92-1.04,1.4-1.57s1.34-1.56,1.93-2.29c.59-.73,1.3-1.61,1.58-1.95,.84-1,4.53-6.06,5.61-7.71,1.99-3.01,2.7-4.15,3.49-5.54,.44-.78,.93-1.62,1.09-1.87s.66-1.15,1.09-1.99c.44-.84,1.06-2.02,1.37-2.63,.99-1.89,2.28-4.69,3.08-6.64,1.74-4.27,2.05-5.03,2.21-5.54,.09-.3,.32-.89,.5-1.34,.32-.77,.47-1.25,1.38-4.24,.23-.76,.56-1.8,.72-2.33s.39-1.34,.5-1.79c.11-.47,.37-1.47,.57-2.25,.49-1.83,1.16-4.96,1.49-6.99,.15-.89,.31-1.83,.37-2.1s.15-.86,.2-1.3,.13-1.09,.19-1.45,.24-1.97,.42-3.59c.82-7.84,.82-15.95,0-23.83-.17-1.62-.35-3.23-.41-3.59s-.15-1.01-.19-1.45-.14-1.02-.2-1.28c-.05-.26-.24-1.29-.41-2.29-.37-2.21-.95-4.97-1.41-6.66-.18-.69-.44-1.71-.57-2.25-.13-.55-.39-1.47-.57-2.06s-.53-1.7-.76-2.48c-.88-2.88-.98-3.18-1.3-3.97-.18-.44-.4-1.05-.5-1.34-.16-.49-.58-1.56-2.31-5.8-.63-1.55-2.83-6.18-3.49-7.37-.2-.36-.65-1.2-1-1.87s-.8-1.48-.99-1.79c-.2-.31-.64-1.09-.99-1.72-.35-.63-.9-1.56-1.22-2.06-1.2-1.88-2.13-3.31-2.73-4.21-.85-1.26-4.58-6.35-5.22-7.1-.28-.34-.95-1.17-1.5-1.85-.99-1.24-2.53-3-4-4.58-2.34-2.51-4.04-4.27-4.57-4.74-.32-.28-1.03-.95-1.58-1.47-.54-.53-1.28-1.21-1.64-1.53-.36-.31-1.06-.93-1.57-1.38-2.82-2.52-8.86-7.18-11.49-8.86-.56-.35-1.35-.89-1.77-1.19-.42-.3-1.18-.79-1.7-1.1-.51-.3-1.19-.7-1.5-.89s-.98-.59-1.48-.87c-.5-.29-1.1-.65-1.34-.8-1.65-1.06-9.4-4.94-11.59-5.8-.47-.18-1.06-.44-1.3-.55-1.11-.56-4.65-1.89-7.97-3-1.99-.67-3.9-1.29-4.24-1.37s-1.09-.31-1.68-.5-1.79-.51-2.67-.73c-.88-.21-2.1-.5-2.71-.63-.61-.15-1.52-.37-2.02-.5s-1.6-.35-2.42-.5-1.65-.3-1.83-.34c-.63-.14-4.76-.77-5.75-.88-.54-.06-1.34-.17-1.76-.23-.42-.07-1.54-.17-2.48-.24-.95-.06-1.82-.14-1.95-.15-.12-.02-1.59-.11-3.26-.19-3.84-.19-8.89-.19-12.59,0Zm13.15,2.94c2.12,.11,7.4,.63,8.69,.84,.36,.06,1.01,.15,1.45,.19,1.02,.11,3.41,.49,4.32,.69,.38,.08,1.02,.21,1.41,.27,1.25,.21,4.87,1.02,6.19,1.38,.69,.19,1.67,.44,2.18,.57s1.12,.29,1.37,.38c.25,.08,1.18,.36,2.06,.61,1.55,.44,5.11,1.62,6.03,2.01,.25,.11,1.02,.4,1.72,.66,5.33,1.95,12.62,5.49,18.52,9,.76,.44,4.09,2.6,5.27,3.4,1.82,1.22,2.59,1.78,4.24,3.02,3.45,2.61,5.19,4.02,7.22,5.85,.42,.37,1.19,1.06,1.72,1.53,1.13,1,5.06,4.86,6.09,6,.4,.44,1.23,1.37,1.84,2.06s1.42,1.6,1.79,2.02c1.79,1.99,4.99,6.1,6.38,8.19,.38,.59,.92,1.34,1.18,1.67,.59,.76,1.15,1.6,1.53,2.29,.16,.29,.51,.86,.77,1.26,.82,1.26,2.31,3.71,2.63,4.37,.18,.35,.62,1.17,.99,1.82,.95,1.68,3.09,5.98,3.74,7.52,.31,.71,.7,1.64,.88,2.06,1.41,3.26,2.53,6.21,3.25,8.52,.18,.57,.47,1.49,.65,2.05,.72,2.22,1.85,6.51,2.51,9.52,.84,3.77,1.76,10.02,2.07,13.97,.07,.79,.15,1.83,.19,2.29,.18,2.02,.25,7.08,.16,10.29-.05,1.73-.12,3.53-.16,3.99-.04,.46-.11,1.32-.15,1.91-.3,3.99-1.24,10.46-2.07,14.21-.67,3.06-1.82,7.4-2.55,9.66-.18,.57-.47,1.49-.65,2.05-.78,2.51-1.64,4.74-3.84,9.94-.99,2.34-2.57,5.62-3.55,7.33-.27,.48-.78,1.41-1.12,2.06-.58,1.11-2.28,3.94-3.09,5.16-.19,.29-.49,.77-.65,1.07-.37,.69-.93,1.52-1.53,2.29-.26,.34-.79,1.09-1.18,1.68-.74,1.12-1.85,2.6-3.73,5-1.18,1.51-1.56,1.97-2.64,3.18-.37,.42-1.18,1.33-1.79,2.02s-1.44,1.62-1.84,2.06c-1.04,1.13-4.96,4.99-6.09,6-.53,.47-1.3,1.15-1.72,1.53-2.48,2.24-7.42,6.12-10.05,7.91-.53,.36-1.11,.76-1.3,.89-.69,.47-4.34,2.83-5,3.25-3.04,1.86-9.23,5.15-11.76,6.25-.46,.21-1.27,.57-1.79,.8-1.32,.6-3.7,1.57-5.16,2.12-.67,.24-1.48,.55-1.79,.68-1.08,.45-4.54,1.6-6.15,2.05-.88,.24-1.86,.54-2.18,.65-1.31,.46-7.63,1.96-9.62,2.29-.4,.06-1.03,.18-1.41,.27-.9,.2-3.3,.58-4.32,.69-.44,.05-1.09,.13-1.45,.19-1.26,.21-6.55,.73-8.78,.85-3.12,.18-10.23,.18-13.37,0-2.21-.12-7.51-.63-8.78-.85-.36-.06-1.01-.15-1.45-.19-1.02-.11-3.41-.49-4.32-.69-.37-.08-1.02-.21-1.41-.27-1.99-.33-8.31-1.83-9.62-2.29-.31-.11-1.29-.4-2.18-.65-1.6-.45-5.06-1.6-6.15-2.05-.31-.13-1.12-.44-1.79-.68-1.46-.54-3.83-1.51-5.16-2.12-.53-.24-1.33-.6-1.79-.8-2.53-1.1-8.72-4.38-11.76-6.25-.66-.41-4.31-2.77-5-3.25-.19-.13-.77-.53-1.3-.89-2.82-1.92-7.42-5.54-10.05-7.91-.42-.37-1.19-1.06-1.72-1.53-2.12-1.88-7.54-7.39-8.77-8.94-.23-.3-.7-.85-1.04-1.22-1-1.12-1.41-1.6-2.57-3.09-1.89-2.41-2.99-3.89-3.73-5-.39-.59-.92-1.34-1.18-1.68-.6-.77-1.15-1.6-1.53-2.29-.16-.3-.46-.78-.65-1.07-.82-1.21-2.51-4.05-3.09-5.16-.34-.65-.85-1.58-1.12-2.06-.98-1.71-2.57-4.99-3.55-7.33-2.97-7.01-3.9-9.67-5.78-16.42-1.49-5.36-2.88-13.48-3.33-19.44-.05-.59-.11-1.45-.15-1.91-.04-.47-.11-2.26-.16-3.99-.09-3.21-.02-8.27,.16-10.29,.04-.47,.12-1.5,.19-2.29,.21-2.75,.5-5.02,1.07-8.54,.99-6.06,1.85-9.61,4.04-16.63,.83-2.67,1.9-5.5,3.37-8.9,.18-.42,.57-1.35,.88-2.06,.66-1.54,2.8-5.84,3.74-7.52,.37-.65,.81-1.47,.99-1.82,.33-.66,1.81-3.11,2.63-4.37,.26-.4,.61-.97,.77-1.26,.38-.69,.94-1.53,1.53-2.29,.26-.34,.79-1.08,1.18-1.67,1.37-2.05,4.64-6.25,6.32-8.1,.34-.38,.76-.88,.94-1.11,1.1-1.42,6.74-7.17,8.86-9.05,.53-.47,1.3-1.15,1.72-1.53,2.67-2.4,7.17-5.95,10.05-7.91,1.57-1.08,1.79-1.22,3.86-2.57,2.37-1.55,2.92-1.88,6.15-3.69,4.7-2.65,10.85-5.52,15.2-7.11,.69-.26,1.47-.55,1.72-.66,.92-.39,4.48-1.57,6.03-2.01,.89-.25,1.81-.53,2.06-.61,.25-.09,.87-.26,1.37-.38s1.48-.37,2.18-.57c1.31-.37,4.93-1.18,6.19-1.38,.4-.06,1.04-.18,1.41-.27,.9-.2,3.3-.58,4.32-.69,.44-.05,1.09-.13,1.45-.19,2.28-.38,8.72-.9,12.14-.99,2.17-.05,7.97,.03,10.1,.15Z"/>
    <path class="cls-2" d="M126.63,16.17c-.18,.07-.51,.28-.75,.47-.34,.27-.5,.47-.72,.92-.26,.53-.27,.62-.28,1.3,0,.61,.03,.78,.18,1.05,.14,.27,.15,.33,.05,.33-.06,0-2.15,.14-4.64,.31-2.48,.17-4.61,.29-4.72,.27-.16-.04-4.96,.73-5.74,.91-.12,.03-.12,.02,0-.15,.18-.27,.15-.89-.05-1.09-.08-.08-.16-.19-.16-.22,0-.1-1.88-.97-2.41-1.12-.25-.07-.58-.18-.73-.24-.51-.2-1.63-.34-2.59-.34-1.8,0-2.89,.42-3.62,1.4-.42,.56-.54,.92-.54,1.62s.18,1.28,.56,1.72l.25,.3-.47,.1c-.33,.06-.46,.13-.46,.21,0,.09-.2,.17-.79,.31l-.79,.19-.19-.27c-.33-.48-1.47-1.57-1.8-1.72-.18-.08-.33-.18-.33-.21,0-.18-1.43-.71-2.41-.89-1.22-.21-1.46-.21-1.79,0-.22,.15-.31,.27-.35,.47-.06,.33,.12,.86,.38,1.1,.2,.18,.82,.31,1.61,.31,.31,0,.69,.08,1.19,.26,.6,.2,.86,.34,1.4,.77,.47,.36,.64,.53,.57,.57-.18,.1-.89,.24-.97,.2-.04-.02-2.34,.8-5.1,1.83s-5.11,1.89-5.22,1.9-.53,.18-.95,.37l-.76,.34-.23-.26c-.44-.48-1.76-1.47-2.41-1.79-.79-.4-1.44-.55-2.44-.56l-.92-.02-.27,.26c-.31,.3-.35,.57-.15,.92,.18,.31,.34,.38,1.16,.5,1.52,.22,2.73,.66,3.45,1.26l.19,.16-.31-.12c-1.18-.48-2.03-.71-3.02-.81-1.02-.1-1.83-.05-2.79,.18-.58,.14-.73,.21-.97,.45-.48,.48-.37,.96,.34,1.41l.31,.19,.77-.21c.73-.2,.88-.21,2.15-.21,1.4,0,2.1,.07,2.1,.2,0,.08-7.95,4.07-8.26,4.15l-.21,.05,.35,.67c.19,.37,.37,.69,.4,.73,.04,.04,.37-.07,.76-.24l.69-.31,.78,1.5c.68,1.31,.84,1.57,1.28,2,.65,.66,1.29,.94,2.15,.95,.5,0,.58,.02,.52,.12-.03,.06-.44,.63-.89,1.26l-.83,1.15,1.07,.06c.99,.06,1.08,.05,1.2-.08,.08-.08,.52-.77,.99-1.55s.91-1.47,.96-1.56c.09-.13,.13-.08,.42,.5l.32,.65,.89-.4c.64-.28,.89-.43,.88-.52,0-.08-.84-1.69-1.86-3.6s-1.84-3.49-1.84-3.52c0-.02,.36-.22,.79-.43,.5-.24,.79-.42,.76-.47-.04-.11,.66-.4,.74-.31,.03,.04,.71,1.5,1.52,3.26,1.54,3.38,1.81,3.94,1.88,3.94,.02,0,.4-.15,.82-.34,.44-.19,.83-.34,.88-.34,.05,0,.02-.13-.08-.33-.53-1.03-3.19-7.03-3.15-7.08,.13-.11,1.15-.51,3.02-1.18l1.97-.71,.1,.24c.05,.13,.09,.26,.08,.28-.02,.03-.18,.08-.36,.14-.33,.08-1.07,.53-1.41,.84-.28,.27-.56,.81-.63,1.22-.05,.32-.03,.46,.11,.82,.2,.48,.46,.76,.93,.97,.31,.14,.32,.16,.27,.38-.08,.37-.05,.71,.11,1.08,.17,.37,.69,.92,1.01,1.07,.1,.05,.28,.14,.4,.19,.15,.07,.48,.11,.95,.11,.63,0,.84-.04,1.44-.25,.4-.14,.86-.32,1.03-.41,.44-.21,1.39-.94,1.57-1.18l.15-.2,.18,.47c.15,.4,.19,.47,.33,.42,.08-.02,.5-.18,.94-.33l.78-.27-.1-.19c-.11-.21-2.78-6.97-2.84-7.19-.02-.09,.11-.18,.57-.34,.33-.11,.68-.22,.79-.23s.48-.09,.83-.18,.65-.15,.67-.13c.02,.02,.47,1.57,.99,3.46,.53,1.88,1,3.6,1.07,3.82,.13,.48,.11,.48,1.21,.21,.79-.2,.8-.21,.75-.4-.02-.11-.5-1.86-1.06-3.9-.56-2.03-1-3.71-.99-3.73s.4-.11,.85-.22c.61-.15,.82-.23,.85-.33,.02-.09,.14-.15,.34-.18,.17-.03,.33-.04,.34-.02,.02,.02,.44,1.76,.93,3.86,.5,2.1,.92,3.85,.95,3.88s.34,0,.69-.08c1.03-.21,1.2-.27,1.2-.43,0-.08-.41-1.83-.92-3.9-.5-2.06-.92-3.77-.92-3.78,0-.05,1.06-.26,2.63-.53,.89-.15,1.68-.29,1.77-.31,.22-.05,.85,.57,1.19,1.19s.51,1.29,.57,2.25q.04,.76-.19,1.03c-.21,.25-.25,.27-.71,.27-.57,0-.86-.16-.99-.54-.17-.48,.17-.79,.86-.79,.17,0,.21-.03,.18-.14-.02-.07-.06-.31-.08-.51-.09-.7-.2-1.18-.27-1.18-.05,0-.43,.15-.85,.32-.95,.4-1.49,.86-1.7,1.5-.37,1.11,.31,2.46,1.52,3.03,.4,.19,.55,.22,1.15,.22,.63,0,.75-.02,1.34-.28,.6-.27,.83-.44,1.29-1.01,.45-.55,.57-2.1,.24-3.32-.18-.68-.61-1.57-1.02-2.08-.17-.21-.21-.31-.15-.35,.1-.07,1.91-.34,1.96-.3,.02,.02,.32,1.73,.69,3.8,.36,2.08,.67,3.84,.69,3.92,.03,.08,.09,.12,.17,.1,.07-.02,.44-.08,.82-.12,.94-.11,1.05-.15,.99-.3-.05-.15-1.41-7.59-1.41-7.7,0-.1,1.41-.35,1.44-.25,.02,.04,.11,.05,.23,.03,.27-.05,5.47-.33,5.51-.3,.04,.05,.17,1.96,.14,2.05-.02,.05-.15-.25-.31-.66l-.29-.74h-.47c-.96,0-1.9,.27-2.54,.74-.36,.26-.53,.45-.73,.85-.82,1.51-.36,3.16,1.08,3.96,.55,.31,1.16,.43,2.08,.41,.63,0,.8-.04,1.12-.19l.37-.19,.05,.35c.02,.19,.05,.53,.05,.74q0,.6,1.06,.54c.87-.05,.92-.07,.92-.22,0-.08-.08-1.19-.19-2.45l-.19-2.29,.18-.14c.71-.56,1.88-.66,2.34-.2,.41,.41,.44,1.44,.03,1.8-.36,.34-.63,.43-1.26,.42-.69-.02-.66-.1-.51,1.08l.09,.71,.45,.05c.5,.05,1.45-.15,1.96-.41,.28-.15,1.06-.91,1.21-1.19,.24-.44,.34-.94,.34-1.57,0-.59-.03-.73-.26-1.22-.42-.9-1.19-1.56-2.05-1.74-.21-.05-.74-.08-1.17-.08-.61,0-.85,.04-1.12,.15-.18,.08-.34,.15-.35,.14,0-.02-.04-.22-.05-.46l-.04-.44,.24-.03c.13-.02,1.06-.09,2.07-.16s2.02-.14,2.24-.16c.34-.04,.4-.03,.4,.08s.11,.12,.77,.12h.77l-.05,1.73c-.02,.96-.07,2.76-.09,4.01l-.05,2.28h.3c.17,0,.62,.02,.99,.05l.69,.05,.05-2.36c.02-1.3,.07-3.11,.09-4.02l.05-1.66,.89-.02,.89-.02,.02-.82,.02-.82h-1.98l-.11-.44c-.47-1.76-1.44-3.05-2.69-3.59-.6-.26-1.81-.32-2.3-.11Zm1.61,1.74c.5,.19,1.51,1.51,1.67,2.2l.05,.22-.36-.05c-.2-.02-.47-.05-.61-.05-.19,0-.26-.03-.26-.12,0-.11-.08-.12-.76-.07-.75,.05-.76,.05-.76-.11,0-.09-.09-.28-.21-.43-.21-.27-.31-.84-.23-1.19,.06-.23,.55-.51,.89-.52,.15,0,.4,.05,.57,.12Zm-22.8,2.54c.11,.05,.48,.17,.84,.28,.71,.21,2.29,.94,2.29,1.05,0,.03,.08,.06,.18,.07q.16,0-.02,.07c-.11,.04-1.17,.23-2.37,.43s-2.19,.39-2.21,.41c-.02,.03-.31,.11-.65,.17-.6,.12-.73,.11-.99-.1-.05-.04-.18-.15-.31-.24-.27-.2-.43-.57-.43-.98,0-.56,.34-1,.92-1.19,.39-.12,2.42-.11,2.74,.03Zm16.2,4.35s.07,.42,.1,.86l.05,.81-.33,.23c-.37,.27-.99,.42-1.45,.36-.47-.06-.95-.33-1.06-.6-.21-.49-.08-1.14,.27-1.41,.46-.35,.59-.38,1.5-.34,.48,.02,.89,.07,.92,.1Zm-27.94,5.79l.72,1.77-.21,.33c-.11,.18-.33,.44-.47,.57-.86,.77-1.25,.99-2.15,1.21-.43,.11-.53,.11-.79,.02-.23-.08-.31-.15-.32-.31-.03-.24,.18-.66,.35-.72,.07-.02,.18-.09,.24-.15,.14-.11,1.23-.44,1.86-.57,.32-.06,.43-.11,.37-.18-.04-.05-.3-.4-.59-.78-.29-.38-.53-.7-.55-.72-.08-.11-1.26,.28-1.86,.61-.77,.42-1.14,.48-1.14,.2,0-.11,.1-.23,.33-.37,.36-.21,1.61-.68,2.25-.83l.4-.09-.11-.2c-.16-.31-.81-1.95-.81-2.04,0-.05,.3-.18,.67-.31l.66-.24,.21,.5c.11,.27,.53,1.3,.92,2.27Zm-14.38,4.99c.46,.92,.84,1.73,.84,1.79,0,.2-.41,.71-.73,.89-.73,.43-1.18,.47-1.59,.15-.29-.22-.31-.25-1.27-2.09l-.63-1.2,1.21-.61c.66-.34,1.23-.61,1.26-.61,.04,0,.44,.75,.9,1.67Z"/>
    <path class="cls-2" d="M153.85,19.23c-1.11,.4-1.34,1.69-.42,2.34,.66,.47,1.36,.4,1.94-.17,.29-.3,.41-.93,.25-1.32-.18-.41-.53-.75-.95-.87-.44-.14-.37-.14-.82,.02Z"/>
    <path class="cls-2" d="M143.02,21.59c-.05,.24-.11,.6-.15,.79s-.05,.35-.04,.37,.77,.18,1.68,.37c1.63,.33,1.66,.34,2.02,.64,.43,.36,.76,.97,.76,1.37,0,.42-.3,.94-.61,1.09-.59,.3-1.7,.12-2.71-.43l-.65-.35v.24c0,.14-.06,.55-.14,.92l-.14,.66,.5,.18,.5,.18-.02,.78c-.06,1.66,.57,2.59,2.08,3.09,.74,.24,1.75,.38,2.38,.32l.46-.04,.13-.78c.18-1.01,.18-1.22,0-1.15-.47,.2-1.06,.33-1.31,.29-.15-.02-.55-.15-.89-.27-.79-.31-.97-.54-1.02-1.28l-.04-.53,.27,.04c.3,.05,1.28-.19,1.74-.43,.16-.08,.41-.27,.57-.43l.26-.27-.07,.29c-.16,.69-.2,.65,1.02,.85,.6,.09,1.09,.18,1.12,.2,.03,.04-.56,3.51-.64,3.8-.03,.11,0,.14,.18,.14,.11,0,.47,.07,.79,.15,.73,.19,.99,.2,.99,.02,0-.16,1.38-7.68,1.42-7.73,0-.02,.26,.02,.54,.06,.94,.16,.95,.16,.9,.31-.05,.17-.17,.12,1.64,.61l1.49,.41,.37,.38c.81,.82,.89,1.73,.24,2.34-.19,.18-.26,.19-.95,.18-.82,0-1.12-.11-1.99-.73-.23-.17-.44-.3-.47-.3-.08,0-.29,.52-.42,1.05-.06,.26-.14,.53-.16,.59-.03,.08,.1,.18,.46,.37,.5,.24,.5,.25,.45,.48-.03,.12-.05,.57-.05,.99,.02,1.52,.6,2.32,2.07,2.82,.29,.1,.69,.21,.87,.23,.18,.03,.42,.08,.53,.12s.4,.08,.66,.09c.39,.03,.49,0,.52-.08,.07-.23,.34-1.79,.31-1.83-.02-.02-.18,.02-.34,.06-.76,.21-1.43,.08-2.16-.4-.46-.31-.67-.66-.67-1.11q0-.59,.82-.6c.65,0,.79-.03,1.16-.21,.23-.12,.49-.27,.57-.34,.14-.11,.15-.11,.09,.11-.03,.12-.07,.28-.09,.35-.03,.1,.13,.17,.82,.36,.47,.13,.95,.26,1.06,.28,.2,.05,.2,.05,.24,.94,.04,.82,.05,.93,.28,1.34,.42,.76,1.39,1.46,2.58,1.86,.51,.17,.73,.19,1.66,.21h1.07s-.46,.99-.46,.99c-.3,.66-.42,1-.36,1.02,.05,.02,.44,.2,.86,.41,.72,.34,.79,.37,.88,.24,.05-.07,.82-1.73,1.71-3.7l1.62-3.57,.58,.27c.32,.15,.72,.31,.89,.35,.17,.04,.42,.12,.56,.18l.25,.11-.46,.86c-2.37,4.45-3.29,6.21-3.27,6.26,0,.04,.4,.26,.86,.5l.86,.44,.17-.35c.19-.4,3.52-6.75,3.57-6.8,.05-.06,1.51,.71,4.4,2.34,1.6,.91,2.93,1.66,2.95,1.67,.04,.05-.48,.95-.55,.95-.04,0-.74-.38-1.57-.84-.83-.47-1.69-.89-1.89-.96-.21-.07-.49-.18-.63-.24-.39-.18-1.32-.1-1.82,.15-.82,.42-1.48,1.44-1.54,2.36-.06,1,.38,1.75,1.4,2.36,.82,.5,1.24,.63,1.83,.58,1.1-.09,1.91-.77,2.15-1.79,.06-.24,.08-.46,.05-.49-.06-.06-1.91-1.05-1.96-1.05-.02,0,0,.24,.02,.53,.04,.49,.03,.56-.13,.73-.22,.24-.34,.24-.81,0-.61-.31-.73-.76-.33-1.27,.19-.24,.28-.3,.51-.3,.15,0,.4,.05,.54,.09,.21,.08,3.09,1.6,3.2,1.7,0,0-.55,.99-1.24,2.18-.69,1.19-1.26,2.18-1.26,2.21,0,.08,1.57,.99,1.62,.94,.02-.03,.95-1.55,2.05-3.38,1.11-1.83,2.05-3.36,2.09-3.41,.06-.07,.24,0,.77,.29,.38,.21,.74,.4,.8,.41,.14,.02,.89-1.31,.79-1.41-.04-.04-2.18-1.24-4.77-2.69-5.07-2.83-8.97-4.83-9.08-4.65-.05,.08-.52-.11-2.05-.79-1.09-.49-2.01-.89-2.03-.89-.03,0-.18,.27-.34,.59l-.3,.59-.05-.31c-.07-.37-.35-.82-.77-1.21-.72-.68-2.02-.99-3.02-.73-.38,.1-1.05,.57-1.12,.78-.02,.08-.08,.14-.11,.14-.1,0-.47,.82-.41,.92,.02,.04,.41,.21,.86,.38l.82,.32,.11-.18c.24-.37,.6-.67,.79-.67,.22,0,.66,.2,.75,.34,.03,.05,.06,.24,.06,.42,0,.27-.05,.37-.26,.59-.23,.23-.31,.26-.67,.26-.45,0-1.65-.38-2.24-.72-.42-.23-.48-.24-.69-.09-.14,.1-.26,.08-1.09-.12-.78-.2-.92-.25-.88-.36,.11-.26,.26-.89,.26-1.12,0-.13-.05-.42-.11-.65s-.1-.43-.08-.44c0-.02,.5,.1,1.08,.24,.59,.15,1.08,.24,1.12,.21,.11-.11,.43-1.57,.35-1.62-.05-.02-1.79-.48-3.87-1.02s-3.86-.99-3.93-1.01c-.08-.02-.14-.11-.14-.22,0-.09-.05-.2-.12-.22-.07-.03-2.8-.5-6.06-1.04s-5.99-1.01-6.06-1.04c-.09-.03-.14,.05-.21,.4Zm7.24,2.51c.66,.11,1.21,.21,1.22,.22,.03,.03-.37,2.2-.4,2.25-.02,.02-.46-.05-.98-.14-.53-.09-.97-.16-.99-.16s0-.15,.04-.33c.12-.5,.03-1.45-.17-1.77-.21-.33-.27-.33,1.28-.07Zm19.39,6l.39,.15-.34,.74c-.19,.4-.5,1.08-.69,1.51l-.35,.77-.62,.29c-.6,.28-.65,.29-1.42,.29-.69,0-.87-.03-1.3-.21-.71-.3-1.26-.69-1.44-1.04-.1-.18-.11-.75-.02-.8,.03-.02,.24,.03,.47,.11,.5,.19,1.72,.34,2.21,.27,.45-.06,1.05-.4,1.45-.82,.31-.32,.55-.84,.65-1.38l.05-.27,.28,.11c.15,.07,.45,.19,.67,.27Z"/>
    <path class="cls-2" d="M125.45,38c-1.1,.04-3.46,.18-4.28,.27-.4,.04-1.21,.12-1.8,.18-1.4,.14-4.9,.63-5.49,.76-.25,.05-.75,.15-1.11,.19-.95,.13-4.2,.84-6.26,1.37-3.1,.79-5.83,1.64-8.38,2.6-4.84,1.82-4.43,1.64-9.09,3.86-2.22,1.06-6.31,3.33-7.35,4.09-.27,.19-.66,.45-.88,.57-.73,.42-3.44,2.24-4.28,2.87-.47,.35-1.4,1.05-2.06,1.55-.66,.5-1.5,1.15-1.86,1.45-1.78,1.47-4.49,3.84-5.31,4.62-1.72,1.64-5.67,5.8-6.29,6.61-.19,.26-.63,.79-.97,1.19-1.37,1.6-4.93,6.43-5.91,8.04-.19,.3-.65,1.03-1.03,1.62-.38,.6-.92,1.48-1.19,1.97-.27,.5-.8,1.44-1.18,2.1-.67,1.18-3.02,5.95-3.29,6.7-.08,.21-.21,.52-.29,.69s-.43,.99-.76,1.83c-1.94,4.92-3.81,11.34-4.6,15.85-.27,1.54-.86,5.53-.91,6.22-.03,.34-.08,.85-.12,1.15-.05,.29-.15,1.51-.23,2.71-.28,3.99-.17,11.02,.22,13.86,.05,.29,.1,.79,.12,1.11,.16,2.02,1.02,7.12,1.6,9.58,.55,2.34,1.65,6.16,2.53,8.78,.45,1.36,1.63,4.44,2.06,5.38,.22,.48,.43,.96,.46,1.07,.12,.42,2.39,5.08,3.01,6.16,.36,.64,.9,1.6,1.19,2.13,.3,.53,.89,1.53,1.34,2.21,.44,.69,.99,1.57,1.21,1.93,.72,1.18,4.61,6.44,5.77,7.8,.34,.4,.79,.95,.99,1.21,.63,.82,4.56,4.96,6.26,6.58,.5,.49,1.87,1.7,3.02,2.68,2.81,2.4,2.76,2.37,4.15,3.41,.66,.5,1.6,1.2,2.06,1.55,.88,.66,3.33,2.31,4.32,2.89,.31,.18,.69,.44,.84,.55,.37,.29,3.22,1.96,4.13,2.41,.4,.2,.99,.51,1.3,.69,.31,.18,1.38,.71,2.37,1.18s2.33,1.11,2.98,1.41c.65,.31,1.43,.66,1.72,.76,.3,.11,1.86,.7,3.47,1.31,3.02,1.14,5.57,1.94,8.74,2.76,1.92,.49,5.54,1.28,6.41,1.4,.34,.05,.83,.13,1.08,.19,1.17,.27,6,.86,8.89,1.08,2.35,.18,10,.18,12.41,0,2.86-.22,7.74-.81,8.93-1.08,.25-.06,.75-.15,1.08-.19,.87-.11,4.49-.91,6.41-1.4,2.33-.6,5.64-1.59,6.91-2.06,.61-.23,2.18-.82,3.47-1.31,1.31-.49,2.9-1.15,3.55-1.46,.65-.31,1.99-.95,2.98-1.41s2.05-1,2.37-1.18c.31-.18,.9-.5,1.3-.69,.92-.46,3.77-2.12,4.13-2.41,.15-.11,.53-.37,.84-.55,.99-.58,3.44-2.22,4.32-2.89,.47-.35,1.4-1.05,2.06-1.55,1.39-1.04,1.34-1.01,4.15-3.41,1.15-.99,2.52-2.19,3.02-2.68,1.64-1.56,5.1-5.2,6.13-6.43,.18-.22,.63-.75,.99-1.18,1.66-1.97,5.16-6.74,6.13-8.34,.21-.36,.69-1.12,1.06-1.68,.66-1.02,1.18-1.93,2.32-4.01,.83-1.51,2.83-5.58,3.14-6.36,.14-.37,.39-.95,.56-1.31,.34-.73,1.54-3.87,1.96-5.16,.88-2.63,1.98-6.45,2.53-8.78,.58-2.47,1.44-7.57,1.6-9.58,.02-.31,.08-.82,.12-1.11,.39-2.84,.5-9.87,.22-13.86-.08-1.2-.18-2.42-.23-2.71-.04-.3-.09-.81-.12-1.15-.05-.69-.63-4.68-.91-6.22-.79-4.5-2.66-10.92-4.6-15.85-.34-.84-.66-1.64-.74-1.79-.08-.14-.21-.47-.31-.73-.24-.65-2.02-4.35-2.52-5.24-.22-.4-.65-1.19-.95-1.76-.92-1.72-1.6-2.89-2.25-3.9-.34-.53-.77-1.21-.96-1.5-.98-1.6-4.53-6.43-5.91-8.04-.34-.4-.78-.93-.97-1.18s-.43-.53-.52-.61c-.1-.08-.79-.82-1.53-1.64-2.23-2.45-4.51-4.68-6.8-6.64-2.82-2.42-3.2-2.73-4.61-3.8-.66-.5-1.6-1.2-2.06-1.55-.84-.63-3.56-2.45-4.28-2.87-.21-.12-.6-.38-.88-.57-1.05-.76-5.13-3.02-7.35-4.09-.56-.26-1.76-.84-2.69-1.28-.92-.44-2.44-1.08-3.36-1.43s-2.52-.95-3.55-1.34c-1.99-.76-4.93-1.66-7.87-2.41-2.06-.53-5.32-1.24-6.26-1.37-.36-.05-.86-.14-1.11-.19-.52-.12-4.58-.69-5.46-.76-.31-.02-.85-.08-1.18-.12-1.73-.21-3.97-.31-7.52-.33-2.08-.02-4.11-.02-4.51,0Zm9.64,3.12c1.48,.11,2.94,.22,3.23,.26,.3,.05,.79,.1,1.11,.12,.64,.05,4.2,.57,4.28,.61,.02,.02,.47,.1,.98,.19,1.88,.32,6.79,1.46,8.38,1.94,.89,.27,2.25,.69,3.05,.92s1.86,.6,2.37,.8c.5,.21,1.31,.5,1.76,.65,.47,.15,1.1,.4,1.41,.55s.95,.42,1.41,.61c1.9,.78,4.99,2.25,6.8,3.24,.63,.34,1.59,.86,2.13,1.15,.86,.46,1.99,1.14,3.84,2.32,.81,.51,2.02,1.34,2.73,1.86,.38,.27,1.03,.73,1.45,1.01s1.31,.95,1.99,1.49,1.5,1.19,1.83,1.45c.34,.25,.87,.69,1.18,.98s.95,.84,1.43,1.23c.99,.84,3.51,3.25,4.77,4.57,3.9,4.11,7.63,8.78,9.91,12.37,1.6,2.53,2.33,3.73,2.75,4.51,.24,.46,.53,.98,.64,1.15,.35,.54,2.51,4.9,3.09,6.25,.77,1.76,1.91,4.54,2.01,4.93,.05,.18,.21,.63,.35,1.02,1.01,2.63,2.8,9.28,3.28,12.2,.07,.4,.15,.85,.19,.99,.09,.34,.5,3.22,.57,3.93,.03,.29,.08,.77,.12,1.07,.05,.29,.17,1.76,.27,3.25,.29,3.9,.29,7.97,0,11.84-.11,1.49-.24,2.92-.27,3.17-.03,.25-.08,.72-.11,1.03-.07,.77-.48,3.6-.6,4.16-.06,.25-.15,.72-.2,1.03-.13,.83-.8,3.8-1.2,5.31-.47,1.77-1.56,5.35-2.02,6.59-.21,.57-.37,1.05-.37,1.1,0,.11-1.28,3.3-1.49,3.73-.09,.19-.38,.85-.64,1.47-.46,1.11-2.49,5.25-2.76,5.63-.08,.11-.37,.63-.66,1.15-.78,1.45-3.28,5.43-4.31,6.87-1.37,1.92-2.65,3.64-3.13,4.21-.27,.32-.76,.89-1.07,1.26-.32,.37-.75,.9-.95,1.18-.21,.27-.74,.88-1.18,1.34-.44,.47-1.17,1.25-1.62,1.76-1.21,1.34-4.1,4.12-5.64,5.41-.36,.3-.89,.76-1.18,1.03-.29,.27-.81,.69-1.15,.95-.34,.26-1.15,.9-1.8,1.43-1.33,1.07-2.15,1.65-5.45,3.9-1.19,.81-3.25,2.06-4.34,2.65-.58,.31-1.18,.64-1.34,.74s-.6,.34-.97,.53-1.05,.55-1.51,.81c-.46,.25-1.21,.62-1.68,.82-.47,.19-1.18,.52-1.57,.72s-1.12,.53-1.6,.73-1.24,.53-1.69,.73c-.45,.2-1.22,.5-1.72,.67-.5,.16-1.3,.46-1.76,.65-.76,.3-5.28,1.72-6.78,2.12-1.02,.27-3.67,.89-4.01,.95-.19,.03-1.04,.21-1.89,.39-1.47,.32-5.03,.88-6.32,.99-.34,.02-.82,.08-1.07,.11s-1.73,.16-3.28,.27c-4.04,.3-8.03,.3-12.07,0-1.55-.11-3.03-.24-3.28-.27s-.73-.09-1.07-.11c-1.3-.11-4.85-.66-6.32-.99-.85-.18-1.7-.36-1.89-.39-1.7-.25-8.89-2.3-10.81-3.07-.46-.19-1.24-.48-1.75-.64-.5-.17-1.29-.48-1.76-.69s-1.15-.5-1.53-.65c-.38-.15-1.09-.47-1.59-.72-.49-.24-1.2-.57-1.57-.73-.84-.34-2.16-1.01-3.31-1.65-.48-.27-1.24-.69-1.68-.94s-1.06-.59-1.37-.76c-.95-.53-2.94-1.76-3.67-2.27-.37-.27-1.06-.74-1.53-1.05-1.76-1.2-2.73-1.9-3.89-2.83-.66-.53-1.47-1.17-1.8-1.43-.34-.25-.86-.68-1.15-.95-.3-.27-.82-.73-1.18-1.03-1.7-1.41-4.41-4.03-5.85-5.64-.41-.47-1.08-1.18-1.48-1.6s-.9-.99-1.11-1.26-.58-.74-.84-1.04c-1.36-1.6-1.7-2.03-2.75-3.43-1.3-1.73-1.9-2.6-3.03-4.38-1.66-2.63-2.34-3.75-2.84-4.67-.28-.52-.58-1.03-.66-1.15-.18-.24-2.02-3.95-2.58-5.16-.47-1.04-2.31-5.53-2.31-5.67,0-.05-.17-.54-.37-1.11-.46-1.24-1.55-4.82-2.02-6.59-.4-1.5-1.07-4.48-1.2-5.31-.05-.31-.14-.78-.2-1.03-.12-.57-.53-3.39-.6-4.16-.03-.31-.08-.78-.11-1.03-.04-.25-.16-1.68-.27-3.17-.29-3.87-.29-7.94,0-11.84,.11-1.49,.23-2.96,.27-3.25,.04-.3,.09-.78,.12-1.07,.06-.71,.47-3.59,.57-3.93,.04-.15,.12-.6,.19-.99,.48-2.92,2.27-9.56,3.28-12.2,.15-.39,.31-.84,.35-1.01,.11-.41,1.64-4.19,2.16-5.32,.56-1.23,2.69-5.48,2.94-5.87,.11-.17,.4-.69,.64-1.15,.62-1.15,2.83-4.69,4.06-6.5,3.2-4.69,9.55-11.76,13.57-15.13,.36-.3,.91-.78,1.22-1.06s.85-.73,1.18-.98c.34-.26,1.16-.91,1.83-1.45s1.6-1.24,2.06-1.54c.47-.31,1.24-.85,1.73-1.2,1.83-1.3,2.33-1.63,3.49-2.34,3.46-2.12,8.58-4.78,11.16-5.8,.48-.19,1.24-.51,1.68-.71s1.18-.49,1.64-.65c.47-.15,1.25-.44,1.76-.64,.85-.34,1.92-.68,5.62-1.79,1.44-.44,6.46-1.59,8.18-1.88,.51-.09,.95-.18,.98-.19,.08-.05,3.66-.56,4.32-.61,.34-.03,.82-.08,1.07-.12,.53-.08,5.67-.44,6.84-.48,1.93-.07,5.96,.04,8.57,.22Z"/>
    <path class="cls-2" d="M125.34,45.54c-.6,.15-1.13,.46-1.52,.89-.47,.53-.61,.8-.84,1.73l-.2,.77v7.92l-.89,.09c-1.41,.15-2.76,.31-3.13,.4-.19,.04-.36,.06-.37,.05-.02-.02-.47-1.66-1.02-3.65s-1.09-3.89-1.21-4.2c-.54-1.54-1.9-2.67-3.23-2.67-.31,0-7.95,2-8.45,2.22-.5,.21-1.07,.72-1.28,1.15-.11,.2-.26,.63-.35,.96-.27,.99-.22,1.3,1.01,5.71,.59,2.13,1.06,3.88,1.05,3.89s-.49,.18-1.05,.39c-.57,.2-1.15,.43-1.31,.5s-.6,.26-.99,.4c-.53,.21-.73,.24-.77,.18-.04-.05-.92-1.55-1.99-3.34-1.05-1.79-2.01-3.36-2.12-3.51-.51-.67-1.28-1.36-1.79-1.61-.46-.23-.62-.27-1.24-.29-.47-.02-.79,0-.96,.07-.44,.18-7.31,4.02-7.61,4.26-.35,.28-.72,.95-.89,1.63-.17,.66-.07,1.55,.26,2.24,.11,.25,1.13,2,2.25,3.89,1.12,1.89,2.03,3.45,2.03,3.48,0,.02-.42,.35-.92,.73-.51,.37-1.28,.95-1.7,1.28s-.79,.6-.82,.6-.98-.9-2.11-2.01c-3.95-3.86-4.16-4.06-4.77-4.39-1.27-.69-2.73-.73-3.56-.09-.18,.14-1.82,1.71-5.28,5.07-.62,.6-.85,.88-1.02,1.25-.42,.89-.34,1.94,.2,2.91,.26,.46,1.21,1.44,4.65,4.8l2.05,1.99-.32,.4c-.18,.23-.51,.63-.75,.91s-.66,.8-.95,1.18c-.29,.37-.55,.72-.58,.76s-1.79-.9-3.9-2.08-4.03-2.21-4.26-2.3c-.53-.21-1.81-.3-2.34-.17-.71,.18-1.15,.45-1.5,.91-.38,.5-4.04,6.58-4.25,7.06-.31,.71-.26,1.58,.14,2.38,.24,.49,.99,1.26,1.62,1.67,.27,.18,2.06,1.2,3.97,2.26s3.49,1.94,3.51,1.96c0,0-.24,.57-.55,1.23s-.68,1.53-.82,1.91c-.15,.41-.29,.71-.35,.71-.05,0-2-.5-4.32-1.12l-4.22-1.12h-1.03c-.95,0-1.06,0-1.45,.19-.6,.27-1.02,.6-1.36,1.07-.28,.38-.37,.66-1.43,4.4-1.27,4.51-1.25,4.38-.79,5.36,.26,.56,.47,.8,1.02,1.22,.9,.66,1.39,.83,5.96,1.99,2.18,.56,3.98,1.02,3.98,1.02,0,0-.07,.46-.16,1.01-.09,.54-.23,1.47-.31,2.04l-.14,1.05h-8.99l-.83,.2c-.73,.17-.92,.24-1.37,.57-.6,.43-.83,.69-1.12,1.31l-.2,.43,.02,4.38,.02,4.38,.18,.33c.47,.88,1.27,1.42,2.54,1.73l.8,.19h8.8l.13,1.05c.19,1.57,.35,2.85,.37,2.94,0,.05-1.77,.56-4.38,1.24-4.9,1.29-5.16,1.39-6,2.18-.56,.54-.92,1.25-.99,1.95-.05,.46,.1,1.01,2.15,8.16,.14,.48,.76,1.2,1.25,1.45,.43,.21,1.08,.39,1.73,.46,.57,.06,.9-.02,5.87-1.29,2.06-.53,3.75-.95,3.76-.94,.05,.07,.59,1.35,.76,1.81,.12,.31,.37,.91,.55,1.33,.18,.41,.33,.76,.31,.76-.02,.02-1.66,.92-3.65,2.03-1.99,1.1-3.77,2.09-3.96,2.19-1.3,.73-2.2,2.4-1.92,3.59,.05,.24,.18,.57,.27,.71,.09,.15,1.02,1.71,2.05,3.47s1.97,3.3,2.08,3.41c.26,.28,1.12,.79,1.5,.89,.44,.11,1.2,.11,1.72-.03,.86-.22,1.54-.57,5.03-2.54,1.94-1.1,3.55-2,3.58-2s.21,.23,.4,.51c.57,.85,1.22,1.71,1.73,2.3l.49,.57-2.12,2.07c-1.17,1.13-2.67,2.62-3.35,3.29-1.18,1.19-1.23,1.25-1.51,1.92-.48,1.12-.46,2.04,.08,2.83,.31,.47,5.75,5.69,6.33,6.09,.88,.59,1.99,.58,3.19-.03,.7-.35,1.06-.66,3.6-3.15,1.31-1.27,2.6-2.52,2.88-2.79l.51-.47,1.09,.83c2.02,1.54,2.35,1.79,2.32,1.84-.02,.02-.98,1.66-2.15,3.63s-2.2,3.76-2.3,3.97c-.39,.86-.4,1.99-.02,2.89,.3,.69,.75,1.01,4.34,3.01,1.83,1.02,3.48,1.92,3.67,2,.8,.36,1.63,.27,2.73-.3,.6-.31,1-.66,1.47-1.34,.15-.21,1.14-1.84,2.2-3.63s1.94-3.25,1.94-3.26c.03-.05,1.5,.55,2.05,.82,.34,.18,.93,.43,1.31,.57,.37,.14,.68,.27,.67,.31,0,.03-.49,1.81-1.08,3.94-1.23,4.45-1.29,4.78-1.01,5.82,.21,.77,.56,1.28,1.17,1.73l.48,.35,4.12,1.08c4.7,1.24,4.51,1.21,5.58,.7,.95-.46,1.6-1.18,1.92-2.09,.11-.31,.66-2.2,1.21-4.21,.57-2.02,1.03-3.67,1.05-3.69s.4,.05,.86,.13c.73,.13,1.7,.26,3.15,.43l.4,.05v4.23c0,4.72,0,4.74,.51,5.67,.34,.61,.56,.86,1.07,1.19,.73,.47,.95,.49,5.35,.49s4.57-.02,5.3-.49c.76-.48,1.18-1.06,1.44-1.99,.17-.6,.17-.74,.2-4.78l.03-4.16,.86-.09c1.33-.15,2.65-.31,3.07-.39,.21-.04,.4-.05,.44-.02,.02,.03,.52,1.73,1.09,3.8,.57,2.05,1.12,3.98,1.23,4.26,.31,.89,.99,1.6,1.91,2.05,1.06,.51,.87,.54,5.58-.7,2.26-.6,4.2-1.13,4.31-1.19,.28-.15,.86-.71,1.09-1.06,.11-.17,.27-.6,.37-.95,.27-1.05,.22-1.35-1.01-5.77-.59-2.12-1.06-3.87-1.05-3.88s.49-.18,1.05-.39c.57-.2,1.15-.43,1.31-.5s.6-.26,.99-.4c.53-.21,.73-.24,.77-.18,.04,.05,.92,1.55,1.99,3.34,2.15,3.64,2.05,3.48,2.75,4.23,.37,.4,.66,.62,1.09,.84,.53,.27,.64,.3,1.32,.34,.73,.03,.76,.02,1.24-.21,1.19-.6,6.87-3.8,7.26-4.09,.49-.37,.77-.83,.95-1.57,.18-.73,.07-1.55-.34-2.39-.24-.5-3.99-6.9-4.22-7.19-.05-.07,1.6-1.38,3.31-2.62,.17-.12,.04-.24,2.7,2.37,3.24,3.17,3.71,3.6,4.36,3.94,1.14,.6,2.19,.72,3.06,.34,.43-.18,.78-.5,3.42-3.06,1.62-1.57,3.06-3.04,3.21-3.25,.58-.86,.55-2.02-.1-3.18-.3-.53-1-1.27-4.61-4.79l-2.05-1.99,.32-.4c.18-.23,.51-.63,.75-.91s.66-.81,.95-1.18c.29-.38,.55-.72,.58-.76s1.63,.81,3.56,1.88c3.9,2.18,4.08,2.27,4.8,2.54,.82,.31,2.07,.24,2.86-.15,.6-.3,.89-.71,3.02-4.24,2.34-3.9,2.38-3.97,2.18-4.89-.17-.78-.53-1.43-1.12-1.99-.64-.61-.51-.53-4.77-2.89-1.91-1.06-3.48-1.94-3.5-1.95,0,0,.18-.44,.43-.96s.61-1.37,.81-1.89c.21-.52,.41-.96,.46-.98,.05-.02,2,.47,4.33,1.08l4.23,1.12h.99s.99,.02,.99,.02l.6-.29c.68-.32,1.43-1.02,1.56-1.44,.05-.14,.55-1.92,1.12-3.95q1.23-4.36,.77-5.34c-.33-.69-.65-1.04-1.41-1.53-.67-.44-1.22-.6-5.57-1.7-3-.76-3.99-1.04-3.96-1.11,.05-.11,.19-1.15,.39-2.7,.07-.53,.14-1.03,.16-1.13l.03-.17h8.97l.79-.19c.43-.11,.91-.26,1.07-.34,.78-.41,1.44-1.13,1.62-1.75,.05-.18,.08-1.87,.08-4.52v-4.24l-.2-.42c-.28-.61-.51-.87-1.11-1.3-.46-.32-.65-.4-1.37-.57l-.83-.2h-8.84l-.09-.63c-.05-.34-.14-1.12-.2-1.73-.07-.61-.15-1.24-.18-1.4-.05-.21-.05-.31,.02-.32,.05-.02,1.99-.53,4.32-1.14,3.8-1,4.29-1.15,4.93-1.47,1.36-.69,2.11-1.71,2.12-2.86,0-.27-2.14-7.97-2.31-8.29-.17-.33-.84-1.02-1.14-1.17-.39-.21-1.47-.46-1.93-.46-.35,0-1.61,.31-7.15,1.71-1.23,.32-2.25,.57-2.26,.56-.05-.07-.59-1.35-.76-1.81-.12-.31-.37-.91-.55-1.33-.18-.41-.33-.76-.31-.76,.02-.02,1.74-.98,3.84-2.15s3.92-2.19,4.03-2.28c.96-.71,1.48-1.46,1.67-2.4,.17-.87,.14-.95-2.08-4.74-1.1-1.87-2.12-3.55-2.26-3.73-.32-.4-1-.84-1.5-.99-.57-.17-1.62-.09-2.38,.18-.39,.14-1.94,.96-4.3,2.3-2.03,1.15-3.71,2.09-3.74,2.09s-.37-.46-.76-1.02-.96-1.32-1.28-1.69l-.58-.67,2.12-2.07c2.57-2.51,4.36-4.31,4.57-4.61,.27-.37,.57-1.19,.62-1.67,.06-.66-.08-1.25-.44-1.77-.29-.44-5.59-5.58-6.25-6.06-.99-.73-2.62-.55-3.99,.44-.15,.11-1.4,1.3-2.79,2.65-1.38,1.35-2.73,2.66-2.99,2.9l-.47,.44-1.09-.83c-1.96-1.48-2.36-1.79-2.33-1.84,.02-.02,.96-1.63,2.12-3.56,1.15-1.93,2.18-3.7,2.3-3.93,.32-.62,.43-1.58,.26-2.26s-.42-1.15-.82-1.54c-.22-.21-1.47-.95-3.9-2.31-3.19-1.79-3.63-2-4.09-2.08-.64-.11-1.24,0-1.99,.36-1.05,.5-1.28,.81-3.83,5.08-1.06,1.79-1.94,3.25-1.95,3.26-.02,.04-1.16-.43-1.91-.78-.42-.2-1.07-.47-1.45-.61-.56-.21-.68-.28-.66-.4,.02-.08,.52-1.98,1.13-4.23,.73-2.69,1.1-4.22,1.1-4.47,0-.54-.25-1.43-.55-1.92-.15-.25-.44-.57-.7-.77l-.46-.35-4.12-1.1c-3.8-1.01-4.17-1.09-4.61-1.05-1.19,.1-2.41,1.06-2.89,2.29-.1,.25-.66,2.16-1.24,4.24-.58,2.07-1.07,3.77-1.08,3.79s-.38-.04-.82-.12c-.75-.14-2.13-.32-3.15-.43l-.44-.05v-4.19c0-4.71,0-4.68-.54-5.71-.17-.31-.42-.69-.55-.82-.31-.32-.95-.66-1.49-.77-.59-.12-8.24-.11-8.76,.02Zm8.23,3.08c.07,.16,.09,1.53,.09,5.65v5.43l.8,.05c.44,.02,1.32,.11,1.95,.2,.63,.08,1.56,.21,2.06,.27,.75,.1,3.81,.6,4.63,.76,.25,.05,.12,.44,1.71-5.35q1.45-5.31,1.76-5.3c.08,0,1.72,.4,3.63,.89l3.47,.89v.42c0,.3-.36,1.67-1.25,4.83l-1.24,4.41,.46,.9,.45,.91,1.79,.69c2.26,.88,2.76,1.09,4.48,1.93,.76,.38,1.41,.69,1.42,.69s.16-.23,.32-.52c.56-1.01,5.03-8.54,5.21-8.78,.38-.5,.19-.57,3.68,1.37,2.27,1.26,3.21,1.82,3.21,1.91,0,.33-.47,1.18-2.59,4.67-1.25,2.06-2.31,3.83-2.36,3.91-.11,.21,.23,2.09,.4,2.21,.99,.69,2.02,1.45,2.86,2.1,.99,.76,1.38,1.08,2.89,2.34l.66,.54,3.32-3.22c4.83-4.66,4.79-4.63,5.01-4.68s-.07-.31,3.43,3.08l1.98,1.92-.11,.26c-.11,.29-.79,.96-4.52,4.56-1.46,1.41-2.65,2.57-2.65,2.6,0,.02-.05,.47-.11,.99l-.12,.94,.21,.28c.11,.15,.38,.48,.6,.73,.76,.89,1.7,2.16,2.7,3.63,.27,.4,.52,.75,.54,.78,.03,.03,.53,.13,1.12,.21l1.07,.16,4.28-2.38c3.09-1.73,4.35-2.39,4.57-2.41l.31-.04,1.68,2.81c.92,1.54,1.76,2.93,1.86,3.09l.18,.29-.29,.29c-.19,.19-1.67,1.05-4.3,2.51-2.21,1.23-4.12,2.28-4.25,2.35-.21,.1-.3,.25-.63,1.1l-.4,.99,.32,.72c.36,.8,1.5,3.61,1.93,4.74l.27,.73,.99,.47,.99,.47,4.64-1.23c3.39-.9,4.77-1.24,5.1-1.24h.46s.93,3.39,.93,3.39c.52,1.87,.93,3.44,.92,3.51-.05,.25-.96,.53-5.25,1.63-2.46,.63-4.57,1.16-4.67,1.18-.18,.03-.95,.89-1.5,1.63-.08,.11-.06,.28,.05,.92,.21,1.16,.38,2.42,.55,4.19,.08,.86,.15,1.59,.15,1.61s.39,.34,.86,.71l.87,.66h5.06c4.38,0,5.09,.02,5.28,.11l.23,.12v7.1l-.27,.11c-.22,.09-1.08,.11-5.33,.11h-5.06l-.86,.6c-.47,.34-.87,.62-.89,.63-.02,.02-.08,.6-.15,1.28-.06,.69-.18,1.63-.27,2.1-.08,.46-.17,1.03-.19,1.26-.03,.23-.11,.77-.2,1.21-.08,.44-.12,.83-.09,.89,.04,.05,.31,.44,.62,.86l.56,.76,4.79,1.25c2.63,.69,4.9,1.3,5.04,1.35,.14,.06,.27,.16,.3,.22,.02,.07-.38,1.66-.89,3.55l-.94,3.43h-.31c-.29,0-9.58-2.31-9.84-2.45-.08-.05-.42,.05-1.14,.35-.56,.24-1.03,.44-1.05,.45s-.28,.69-.6,1.5c-.57,1.48-.91,2.27-1.67,3.86l-.41,.86,.38,.94c.31,.76,.42,.97,.63,1.1,.13,.09,2.08,1.18,4.33,2.43,2.25,1.25,4.16,2.36,4.26,2.47,.15,.17,.16,.21,.07,.36-.05,.08-.89,1.49-1.86,3.12-1.3,2.2-1.79,2.96-1.89,2.96-.08,0-.25-.05-.38-.11-.14-.05-.34-.14-.45-.18s-1.92-1.05-4.01-2.24-3.91-2.21-4.05-2.29c-.24-.14-.27-.14-1.26,.05-.95,.18-1.02,.21-1.21,.44-.11,.14-.67,.86-1.25,1.63-.59,.76-1.22,1.57-1.42,1.79s-.59,.71-.88,1.05l-.51,.64,.05,.98,.05,.99,1.57,1.51c3.31,3.18,5.28,5.12,5.44,5.32,.35,.44,.39,.38-2.4,3.05-3.02,2.89-2.6,2.7-3.7,1.65-.37-.35-1.99-1.9-3.6-3.44-1.62-1.54-3.12-3.03-3.35-3.31l-.4-.5-.21,.15c-.11,.08-.57,.46-1.04,.85-.86,.71-1.66,1.34-2.9,2.22-1.55,1.12-1.94,1.4-2.6,1.83-.37,.25-.76,.52-.86,.59l-.17,.14,.39,.69c.21,.37,1.41,2.39,2.67,4.47,2.12,3.53,2.59,4.39,2.59,4.72,0,.09-.93,.65-3.18,1.89-3.04,1.7-3.18,1.76-3.38,1.66-.25-.13-.11,.1-2.83-4.5-2.27-3.84-2.99-5.04-3.07-5.12-.02-.02-.6,.22-1.29,.53-.69,.31-1.34,.6-1.44,.63s-.36,.15-.57,.24c-.54,.27-4.16,1.64-4.96,1.88-.37,.11-.69,.21-.7,.23-.02,.02,.07,.37,.19,.79,.79,2.64,2.55,9.36,2.56,9.73v.42s-3.51,.89-3.51,.89c-1.93,.5-3.56,.89-3.62,.88-.06,0-.17-.1-.24-.21-.11-.15-1.18-3.95-2.51-8.92-.05-.18-.12-.32-.17-.32s-.41-.24-.82-.52c-.4-.29-.78-.54-.82-.57s-.64,.05-1.32,.18c-1.06,.19-3.6,.46-6.32,.65l-.7,.05-.02,5.48c-.02,4.51-.04,5.5-.13,5.6-.09,.11-.45,.13-3.8,.13h-3.69l-.1-.17c-.08-.14-.11-1.23-.12-4.93l-.02-4.75-.2-.21c-.11-.11-.4-.46-.66-.76-.25-.3-.51-.55-.58-.55-.12,0-.44-.05-2.07-.27-.48-.07-1.25-.17-1.72-.23-.46-.05-1.61-.24-2.55-.41-.94-.18-1.73-.31-1.76-.31-.08,0-.21,.4-1.64,5.65-.69,2.54-1.33,4.7-1.41,4.81s-.18,.2-.24,.21c-.06,.02-1.69-.38-3.62-.88l-3.51-.89v-.42c.02-.37,1.41-5.54,2.83-10.47,.02-.09-.11-.18-.56-.34-1.49-.53-3.77-1.41-4.13-1.6-.21-.11-.6-.28-.87-.38s-1.13-.5-1.92-.88c-.79-.38-1.45-.69-1.47-.69-.02,0-.1,.15-.19,.32-.09,.18-1.28,2.18-2.63,4.45s-2.51,4.23-2.58,4.37c-.07,.13-.23,.31-.36,.4l-.23,.17-3.21-1.79c-3.41-1.89-3.34-1.84-3.11-2.28,.06-.11,.12-.27,.15-.36,.02-.08,1.07-1.86,2.33-3.93,1.26-2.08,2.33-3.85,2.38-3.93,.11-.21-.23-2.09-.4-2.21-1.3-.92-2.01-1.44-2.86-2.1-1-.77-1.48-1.16-2.89-2.34l-.65-.55-3.9,3.77c-2.15,2.08-4.03,3.86-4.19,3.97s-.34,.18-.4,.17c-.14-.03-5.23-4.96-5.23-5.06,0-.26,.86-1.16,3.88-4.07,1.86-1.79,3.38-3.27,3.38-3.29,0-.02,.05-.46,.11-.99l.12-.95-.29-.37c-.16-.2-.55-.69-.87-1.08-.64-.78-1.59-2.07-2.35-3.19-.27-.4-.51-.75-.53-.78-.03-.03-.53-.13-1.12-.21l-1.07-.16-4.26,2.38c-3.03,1.69-4.35,2.38-4.58,2.41l-.31,.05-1.68-2.81c-.92-1.54-1.76-2.93-1.85-3.09l-.17-.28,.24-.27c.18-.2,1.34-.89,4.15-2.45,2.15-1.19,4.07-2.25,4.28-2.36l.38-.2,.4-.99,.4-.99-.32-.67c-.3-.63-1.29-3.06-1.93-4.76l-.28-.73-.95-.47-.95-.47-.6,.15c-.33,.08-2.51,.64-4.83,1.26-2.84,.75-4.34,1.11-4.54,1.09l-.31-.02-.94-3.4c-.51-1.87-.92-3.45-.91-3.51,0-.06,.16-.19,.34-.28,.25-.13,8.66-2.34,9.57-2.52,.18-.03,.95-.89,1.5-1.63,.08-.11,.06-.28-.05-.92-.21-1.16-.38-2.42-.55-4.19-.08-.86-.15-1.59-.15-1.61,0-.03-.39-.34-.86-.71l-.86-.66h-5.02c-4.22,0-5.06-.02-5.28-.11l-.27-.11v-7.1l.23-.12c.19-.1,.9-.11,5.32-.11h5.11l.86-.6c.47-.34,.87-.62,.89-.63,.02-.02,.08-.6,.15-1.28,.06-.69,.18-1.64,.27-2.1,.08-.47,.18-1.15,.23-1.53,.05-.38,.14-.92,.2-1.21,.06-.29,.08-.57,.05-.62-.04-.05-.31-.44-.62-.86l-.56-.76-4.75-1.24c-2.61-.68-4.9-1.31-5.07-1.39-.19-.08-.33-.2-.33-.27s.42-1.66,.93-3.52l.93-3.4,.46,.04c.43,.03,9.26,2.25,9.65,2.41,.14,.06,.36,0,1.18-.34,.55-.23,1.02-.43,1.04-.44,.02-.02,.25-.61,.52-1.32,.51-1.34,.86-2.11,1.68-3.84l.5-1.03-.38-.95c-.21-.52-.44-.99-.52-1.05-.08-.05-2.01-1.15-4.29-2.41-2.28-1.28-4.25-2.41-4.38-2.52-.15-.15-.21-.24-.16-.32,.03-.05,.87-1.47,1.86-3.13,1.28-2.16,1.83-3.02,1.93-3.02,.31,0,1.21,.47,5.07,2.66l4.06,2.31,1.02-.19c.56-.11,1.05-.24,1.1-.29,.05-.05,.61-.78,1.25-1.62,.65-.84,1.49-1.89,1.87-2.33,1.13-1.31,1.05-1.14,.99-2.29l-.06-.99-3.5-3.38c-3.21-3.09-3.8-3.73-3.72-3.96,.02-.04,1.19-1.19,2.61-2.55l2.59-2.47,.24,.1c.13,.05,.47,.34,.77,.63s1.7,1.63,3.13,2.99c1.43,1.35,2.78,2.64,3,2.87l.4,.4,1.02,.08,1.03,.08,.75-.6c.4-.34,1.05-.82,1.43-1.1,.38-.27,1.08-.78,1.57-1.13,1.12-.81,1.1-.79,2.12-1.45l.86-.56-.13-.2c-.82-1.26-5.42-8.97-5.51-9.24-.19-.55-.3-.47,2.52-2.03,1.44-.8,2.87-1.6,3.2-1.78l.6-.32,.29,.28c.18,.18,1.19,1.8,2.65,4.26,2.31,3.92,3.04,5.12,3.12,5.2,.02,.02,.49-.17,1.02-.42,.54-.25,1.28-.58,1.63-.73,1.12-.49,4.9-1.92,5.61-2.12,.37-.11,.69-.21,.71-.23s-.05-.25-.13-.53c-.08-.27-.7-2.51-1.39-4.99-.92-3.37-1.24-4.61-1.24-4.96v-.46s3.57-.91,3.57-.91l3.58-.92,.18,.22c.09,.11,.19,.29,.21,.37,.02,.09,.58,2.12,1.24,4.51,.66,2.39,1.29,4.67,1.4,5.06,.18,.69,.2,.71,.39,.67,2.69-.53,5.15-.82,8.73-1.08l.74-.05,.02-5.48c.02-3.01,.05-5.53,.09-5.61,.06-.12,.31-.13,3.8-.13h3.73l.1,.21Z"/>
    <path class="cls-2" d="M125.41,66.86c-1.5,.09-4.74,.4-4.85,.46-.02,.02-.34,.06-.69,.11-.36,.05-.98,.15-1.37,.23-.4,.08-1.08,.2-1.53,.27-.44,.08-1.08,.21-1.41,.31s-.99,.27-1.45,.37c-1.34,.31-2.31,.6-4.43,1.33-1.85,.63-2.41,.84-3.94,1.45-.79,.31-4.15,1.89-4.5,2.12-.15,.1-.66,.37-1.12,.6-.47,.23-1.17,.63-1.57,.88-.4,.24-.87,.53-1.06,.63-.19,.09-.63,.38-.99,.64-.35,.25-.94,.65-1.3,.88-.36,.22-1.11,.76-1.67,1.18-.56,.42-1.18,.88-1.37,1.01-.19,.13-1.14,.92-2.11,1.75-2.68,2.31-5.57,5.27-7.41,7.6-.25,.31-.63,.79-.84,1.05-.43,.53-.98,1.28-1.25,1.69-.1,.16-.48,.69-.85,1.2-.64,.89-.8,1.14-1.96,3.13-1.06,1.82-1.25,2.17-2.21,4.12-.95,1.97-1.41,2.98-1.74,3.94-.1,.27-.24,.61-.31,.74-.2,.39-1.23,3.47-1.54,4.6-.15,.57-.33,1.18-.38,1.37-.32,1.03-.92,4.1-1.15,5.84-.06,.46-.17,1.15-.23,1.53-.13,.79-.23,2.17-.34,4.9-.11,2.64,.06,6.83,.37,8.85,.08,.55,.19,1.28,.24,1.64,.05,.36,.14,.94,.19,1.3,.12,.77,.76,3.71,.91,4.2,.06,.19,.24,.81,.39,1.37,.32,1.2,1.34,4.2,1.8,5.31,.17,.42,.41,1,.53,1.3,.68,1.72,2.28,4.87,3.51,6.93,.18,.31,.53,.89,.76,1.28s.72,1.12,1.07,1.6,.73,1.02,.83,1.18,.33,.47,.49,.69c.16,.21,.44,.57,.62,.81,2.2,2.94,5.38,6.29,8.49,8.97,.97,.82,1.92,1.61,2.12,1.75,.19,.13,.76,.54,1.26,.92,.5,.37,1.21,.89,1.59,1.15,.38,.26,.98,.66,1.34,.91s.79,.51,.95,.6c.16,.08,.71,.42,1.22,.73,.5,.31,1.2,.7,1.54,.86,.34,.16,.8,.4,1.02,.53,.21,.14,1.19,.62,2.16,1.08,2.52,1.19,3.47,1.57,6.44,2.6,2.12,.73,3.09,1.02,4.43,1.33,.47,.11,1.12,.27,1.45,.37s.97,.23,1.41,.31c.44,.07,1.15,.19,1.57,.27,2.83,.54,7.11,.91,10.46,.91s7.68-.37,10.46-.91c.42-.08,.94-.17,1.15-.2,.57-.08,2.18-.45,4.2-.98,.5-.13,1.95-.58,3.21-1.01,3.22-1.08,4.12-1.44,6.74-2.69,.97-.47,1.95-.95,2.16-1.08,.21-.13,.67-.37,1.02-.53,.34-.16,1.03-.55,1.54-.86,.51-.31,1.06-.64,1.22-.73,.17-.08,.63-.37,1.03-.65s1.11-.76,1.57-1.08c.47-.32,1.13-.8,1.49-1.08s.82-.62,1.03-.76c.21-.15,1.18-.94,2.14-1.76,3.02-2.58,6.33-6.09,8.49-8.97,.18-.24,.46-.6,.62-.81,.16-.21,.38-.52,.49-.69s.48-.7,.83-1.18,.83-1.21,1.07-1.6,.58-.98,.76-1.28c1.23-2.05,2.83-5.21,3.51-6.93,.11-.3,.36-.88,.53-1.3,.47-1.11,1.48-4.11,1.8-5.31,.15-.57,.33-1.18,.39-1.37,.15-.49,.79-3.43,.91-4.2,.05-.36,.14-.94,.19-1.3,.05-.36,.15-1.09,.24-1.64,.31-2.02,.49-6.22,.37-8.87-.11-2.73-.21-4.09-.34-4.88-.06-.38-.17-1.07-.23-1.53-.22-1.74-.82-4.81-1.15-5.84-.05-.19-.23-.81-.38-1.37-.31-1.13-1.34-4.21-1.54-4.6-.07-.13-.21-.47-.31-.74-.34-.96-.79-1.97-1.74-3.94-.95-1.96-1.15-2.31-2.21-4.12-1.16-1.99-1.32-2.25-1.96-3.13-.37-.5-.75-1.04-.85-1.2-.27-.41-.82-1.15-1.25-1.69-.21-.26-.59-.73-.84-1.05-1.79-2.27-4.86-5.41-7.41-7.6-.96-.83-1.89-1.6-2.06-1.71-.17-.11-.63-.45-1.02-.76-.4-.31-1.26-.92-1.92-1.36s-1.45-.98-1.76-1.18c-.91-.61-2.25-1.41-3.24-1.91-.5-.25-1.04-.54-1.19-.64-.35-.22-3.71-1.8-4.5-2.12-1.6-.63-2.12-.82-4.25-1.54-2.12-.71-2.97-.96-4.81-1.42-1.43-.35-1.93-.46-2.67-.57-.42-.07-.97-.17-1.22-.22-.25-.06-.66-.13-.92-.16s-.6-.08-.76-.12c-.63-.13-3.34-.38-5.23-.49-2.31-.13-4.67-.13-6.99,0Zm7.52,2.98c1.95,.11,3.13,.23,3.59,.34,.15,.04,.61,.11,1.03,.15s1.04,.15,1.37,.23,.8,.16,1.03,.19c.92,.11,4.99,1.13,5.96,1.47,.23,.08,.73,.24,1.11,.34,.65,.18,.99,.31,3.25,1.21,.53,.21,1.13,.45,1.34,.53,.34,.14,.92,.4,2.84,1.29,.34,.16,.81,.41,1.05,.57s.76,.44,1.18,.65c.9,.45,2.39,1.34,3.08,1.84,.28,.21,.68,.46,.89,.57,.21,.11,.63,.4,.95,.65,.31,.25,.92,.71,1.36,1.03,5.72,4.15,10.77,9.71,14.56,16.05,.89,1.48,2.83,5.28,3.31,6.48,.81,1.99,1.75,4.57,1.94,5.31,.06,.26,.15,.56,.19,.65,.12,.31,.53,1.83,.85,3.19,.29,1.24,.36,1.6,.63,3.33,.06,.37,.13,.76,.15,.86,.23,.94,.58,5.72,.58,7.87s-.35,6.93-.58,7.87c-.02,.11-.09,.49-.15,.86-.06,.37-.15,.97-.21,1.34-.12,.77-.69,3.25-.86,3.77-.11,.33-.21,.71-.63,2.21-.21,.77-1.33,3.8-1.98,5.38-.54,1.34-2.18,4.48-3.36,6.45-3.51,5.89-8.76,11.72-13.99,15.56-.48,.35-1.17,.86-1.53,1.15-.36,.27-.82,.59-1.03,.69-.21,.11-.66,.39-.99,.63-.74,.53-1.97,1.27-2.81,1.69-.34,.18-.77,.42-.96,.55-.34,.24-1.46,.79-3.41,1.68-1.07,.5-1.21,.56-2.48,1.06-2.16,.86-2.74,1.08-3.36,1.24-.36,.1-.89,.27-1.18,.37-.29,.11-.79,.25-1.11,.32s-.78,.2-1.03,.27c-.56,.18-2.97,.73-3.55,.8-.23,.03-.63,.1-.88,.16-.42,.1-1.28,.24-3.4,.53-1.26,.18-4.58,.34-6.76,.34-2.72,0-6.58-.24-7.45-.46-.15-.04-.61-.11-1.03-.15s-1.04-.15-1.37-.23-.8-.16-1.03-.19c-.58-.08-2.99-.62-3.55-.8-.25-.08-.72-.21-1.03-.27s-.81-.21-1.11-.32c-.29-.1-.82-.27-1.18-.37-.62-.16-1.2-.38-3.36-1.24-1.48-.59-2.18-.9-4.35-1.94-1.52-.73-4.28-2.31-5.31-3.04-.34-.24-.78-.53-.99-.63-.21-.11-.67-.42-1.03-.69-.36-.28-1.05-.79-1.53-1.15-5.23-3.83-10.48-9.67-13.99-15.56-1.36-2.27-3.02-5.51-3.69-7.17-.06-.15-.26-.69-.45-1.22-.18-.53-.57-1.58-.84-2.35-.28-.76-.59-1.75-.69-2.18-.11-.43-.23-.88-.27-1-.12-.34-.76-3.11-.89-3.86-.05-.36-.15-.96-.21-1.34-.06-.38-.13-.77-.15-.88-.23-.94-.58-5.72-.58-7.87s.35-6.93,.58-7.87c.02-.11,.09-.48,.15-.84,.05-.36,.15-.96,.21-1.34,.12-.76,.75-3.46,.92-4.01,.06-.19,.19-.69,.3-1.11,.18-.71,.37-1.28,1.47-4.28,.61-1.67,.78-2.05,2.12-4.7,1.61-3.18,2.57-4.78,4.46-7.43,3.38-4.73,7.47-8.88,12-12.17,.44-.32,1.05-.78,1.36-1.03,.32-.25,.75-.54,.95-.65,.21-.11,.61-.36,.89-.57,.66-.47,1.65-1.07,3.22-1.93,2.42-1.33,3.71-1.94,6.38-2.99,.47-.18,1.2-.47,1.64-.65s1.12-.4,1.49-.51c.38-.11,.88-.26,1.11-.34,.96-.34,5.04-1.36,5.96-1.47,.23-.03,.63-.1,.88-.16s.94-.18,1.53-.27,1.43-.21,1.87-.27c2.16-.31,7.32-.42,10.62-.22Z"/>
    <path class="cls-2" d="M128.62,78.29c-.11,.31-.38,.95-.59,1.44-.21,.48-.66,1.57-.99,2.41-.33,.84-.86,2.16-1.18,2.94-3.14,7.7-4.78,11.95-6.19,16.04-.31,.9-.63,1.79-.71,1.99-.37,.89-.51,1.3-1,2.83-.28,.9-.6,1.95-.68,2.33-.09,.37-.2,.81-.24,.95-.15,.55-.45,2.6-.55,3.7-.12,1.37-.12,5.12,0,5.88,.05,.29,.16,1.07,.24,1.72,.21,1.61,.5,2.88,1.21,5.35,.61,2.12,1.38,4.19,1.86,4.99,.54,.92,1.33,2.58,1.56,3.28,.18,.56,.21,.73,.21,1.8s-.02,1.21-.21,1.71c-.43,1.09-1.36,2.12-2.31,2.54-1.14,.51-2.51,.68-3.49,.44-.69-.18-1.36-.43-1.54-.57-.08-.08-.3-.21-.47-.3-.56-.27-1.67-1.68-2-2.51-.24-.62-.53-1.78-.61-2.51-.05-.38-.11-.98-.16-1.34-.09-.8-.1-2.85,0-3.51,.04-.27,.11-.75,.15-1.06,.04-.31,.15-.78,.22-1.03,.08-.26,.23-.73,.31-1.04,.31-1.08,.71-2.1,1.16-3.01,.5-1,.49-.95,.67-3.56,.11-1.6,0-3.54-.31-5.01-.12-.6-.27-1.21-.34-1.35-.06-.15-.11-.34-.11-.41,0-.23-1.02-2.4-1.34-2.85-.99-1.41-1.8-2.22-3.02-3.05-1.26-.86-1.85-1.12-3.44-1.57-1.11-.32-1.68-.4-3.23-.47-1.5-.05-3.18,.14-4.63,.53-1.24,.34-3.17,1.15-4.09,1.7-1.54,.92-3.01,2.18-3.94,3.38-.18,.23-.38,.49-.46,.59s-.35,.59-.6,1.08l-.47,.9,.22,.02c.12,.02,.57,.08,.99,.14,.42,.07,.97,.15,1.22,.18,.69,.1,1.38,.29,2.13,.58,1.01,.4,1.65,.94,2.03,1.74,.43,.9,.4,2.21-.09,3.52-.12,.34-.34,.99-.48,1.45-.15,.46-.33,.99-.41,1.18-.21,.46-1.04,3.95-1.18,4.96-.24,1.6-.43,3.8-.43,4.96,0,1.46,.31,4.67,.57,5.83,.41,1.84,.85,3.25,1.47,4.67,.54,1.26,1.64,3.28,2.16,3.97,.15,.21,.44,.62,.64,.91,.52,.76,1.79,2.17,2.88,3.18,.94,.88,2.68,2.28,3.37,2.71,.2,.12,.54,.34,.76,.5,.52,.36,2.67,1.54,3.46,1.9,1.24,.57,2,.91,2.48,1.09,.27,.11,.72,.27,.99,.38s.77,.27,1.11,.36,.69,.21,.8,.27c.37,.19,3.57,.98,5.12,1.26,.77,.14,1.07,.2,1.82,.35l.17,.03v10.39h16.88v-10.23l.37-.05c3.31-.42,7.68-1.57,10.91-2.86,1.41-.57,4.21-1.95,4.83-2.4,.24-.18,.69-.46,.97-.62,.28-.17,1.14-.76,1.89-1.34,2.12-1.59,4.58-4.12,5.62-5.77,.18-.3,.5-.76,.69-1.03,.44-.61,1.67-3.02,1.9-3.72,.1-.28,.24-.65,.32-.8,.17-.35,.69-2.28,.95-3.54,.73-3.52,.76-7.21,.09-11.26-.22-1.34-.28-1.58-.65-2.48-.23-.55-.47-1.18-.53-1.41-.06-.23-.18-.62-.26-.86-.29-.88-.45-2.43-.36-3.44,.05-.53,.13-.8,.36-1.3,.33-.72,.65-1.11,1.19-1.47,.48-.31,.86-.45,1.87-.66,.69-.15,1.01-.18,2.28-.17,1.12,0,1.47,0,1.47-.08,0-.09-.13-.49-.44-1.34-.22-.6-.76-1.63-1.18-2.28-.47-.7-2.25-2.5-3.15-3.17-.76-.57-2.98-1.73-3.7-1.93-.24-.06-.58-.18-.77-.26-.52-.21-2.24-.53-3.28-.61-1.61-.12-3.76,.12-5.16,.58-2.07,.68-3.65,1.66-5.21,3.25-.53,.54-.65,.68-1.21,1.47-.4,.57-.44,.64-.79,1.22-.37,.63-1.14,2.36-1.29,2.88-.05,.21-.15,.53-.21,.73-.45,1.51-.57,2.05-.8,4-.08,.63-.08,.68,.11,1.08,.92,2.1,2.04,5.82,2.44,8.15,.7,4.04,.28,7.47-1.16,9.58-.83,1.21-2.32,2.22-3.88,2.63l-.59,.15-.81-.33c-1.59-.64-2.02-.86-3.08-1.6-.26-.18-.79-.8-.97-1.15-.5-.92-.51-2.05-.04-3.32,.18-.47,.53-1.16,1.08-2.15,.65-1.15,2.25-5.38,2.86-7.55,1.1-3.94,1.37-5.54,1.59-9.15,.24-4.11-.67-9.42-2.25-13.08-.59-1.35-1.2-3.02-2.02-5.5-.68-2.05-1.36-3.94-2.44-6.81-.59-1.57-1.09-2.96-1.12-3.08-.03-.13-.43-1.24-.89-2.48-.91-2.44-1.66-4.54-2.14-6.02-.37-1.16-.48-1.21-.79-.38Zm.26,7.19c.12,.27,.27,.68,.34,.9,.06,.22,.31,.87,.54,1.44s.51,1.27,.6,1.57c.18,.56,.66,1.75,1,2.52,.11,.25,.31,.75,.42,1.11,.12,.36,.47,1.28,.79,2.04,.31,.76,.55,1.41,.53,1.42-.02,.02,.07,.3,.19,.63,.73,1.88,2.13,7.58,2.41,9.78,.03,.21,.14,.88,.24,1.49s.22,1.54,.26,2.06c.05,.53,.11,1.35,.15,1.83,.18,2.2,.05,6.93-.27,9.05-.33,2.24-1.24,6.09-1.64,6.91-.07,.15-.19,.49-.27,.76-.07,.27-.23,.69-.34,.92s-.25,.56-.31,.73-.31,.77-.58,1.34c-.56,1.18-.69,1.73-.76,3.15-.08,1.6,.18,3.02,.73,3.96,.4,.7,1.07,1.54,1.59,1.99,.8,.69,2.23,1.51,3.19,1.81,.3,.09,.61,.21,.7,.25,.27,.14,2.15-.06,3.12-.32,.95-.26,2.31-.91,2.93-1.39,.79-.63,1.85-1.7,2.24-2.3,.95-1.44,1.64-2.98,2.04-4.56,.25-1,.53-3.32,.53-4.38v-.71l-.92-2.06c-1.07-2.39-1.39-3.3-1.92-5.49-.37-1.58-.48-4.58-.19-5.77,.55-2.28,2.57-4.88,4.67-6.04,.25-.14,.53-.31,.62-.37,.19-.15,1.52-.7,2.06-.87,.21-.06,.85-.21,1.41-.31,2.53-.5,5.17-.06,7.16,1.17,1.38,.86,1.78,1.18,2.56,2.05,.42,.47,.77,.88,.78,.91,0,.03-.25,.15-.57,.27-1.43,.52-2.75,1.44-3.49,2.43-.34,.46-.78,1.37-.91,1.89-.3,1.24-.1,3.05,.53,4.81,.18,.5,.42,1.24,.53,1.64,.27,.95,.79,3.73,.89,4.73,.13,1.31,.09,3.8-.08,5.41-.18,1.7-.31,2.38-.65,3.46-.15,.44-.31,1.01-.37,1.26-.27,1.15-1.7,4.17-2.68,5.69-.56,.87-1.63,2.25-2.51,3.26-1.31,1.49-2.31,2.38-4.38,3.94-1.96,1.47-2.73,1.95-4.86,2.99-1.73,.86-2.57,1.21-4.09,1.76-.59,.21-2.76,.84-4.16,1.2l-.99,.25-9.62,.02c-10.46,.02-9.78,.05-11.76-.4-1.67-.38-2.63-.69-4.3-1.35-2.28-.9-4.28-1.92-5.48-2.76-2-1.42-2.91-2.17-4.35-3.57-1.38-1.34-1.64-1.64-2.75-3.14-.68-.91-1.42-1.97-1.65-2.37-.67-1.15-1.52-2.83-1.71-3.41-.1-.29-.22-.61-.27-.7-.21-.4-1.08-3.28-1.29-4.28-.31-1.47-.54-3.77-.54-5.26,0-2.83,.68-6.55,1.6-8.83,.53-1.31,.97-2.77,1.02-3.43,.05-.51,.02-.76-.15-1.45-.12-.53-.27-.95-.4-1.15-.11-.18-.3-.45-.4-.61-.44-.65-2.1-2.03-3.44-2.89-.24-.15-.44-.3-.44-.34,0-.1,.69-.73,1.35-1.23,.67-.5,2.6-1.5,3.31-1.7,1-.3,1.31-.37,2.21-.52,.76-.13,1.24-.17,2.33-.16,1.37,0,1.6,.04,3.05,.39,.88,.22,2.63,1.13,3.46,1.82,1,.82,2.21,2.79,2.64,4.3,.53,1.84,.64,4.82,.27,7.23-.08,.57-.15,.69-.89,1.66-.31,.41-.89,1.6-1.14,2.32-.24,.7-.68,2.51-.79,3.28-.28,1.89-.14,4.46,.34,6.01,.77,2.54,1.92,4.32,3.78,5.87,1.02,.86,2.6,1.58,4.24,1.96,.58,.14,2.51,.14,3.13,0,.25-.05,.59-.12,.74-.16,.15-.03,.47-.15,.69-.25s.53-.24,.67-.31c.61-.28,1.75-1.28,2.2-1.94,.44-.63,.57-.94,.86-1.85l.26-.8v-1.53c-.02-1.39-.03-1.6-.22-2.36-.45-1.83-.92-2.96-2.22-5.34-.23-.43-.34-.78-.61-2.11-.34-1.63-.58-3.17-.72-4.59-.05-.44-.11-1.09-.16-1.45-.13-1.12-.24-4.41-.19-5.84,.18-5.16,.84-9.09,2.38-14.13,.19-.63,.43-1.32,.53-1.54,.09-.21,.33-.82,.53-1.37,.19-.53,.44-1.15,.54-1.35,.18-.37,.27-.6,1.02-2.62,.2-.55,.49-1.31,.63-1.68,.15-.38,.36-.92,.47-1.21,.11-.29,.25-.62,.31-.75,.07-.12,.22-.5,.35-.85,.39-1.05,.95-2.58,1.21-3.29,.14-.37,.26-.66,.27-.66s.13,.22,.25,.49Zm4.21,78.29v4.32h-10.54v-8.63h10.54v4.32Z"/>
    <path class="cls-2" d="M128.66,96.84c-.05,.18-.24,.89-.44,1.56-.19,.67-.5,1.83-.69,2.56-.35,1.39-.63,2.3-1.63,5.41-.51,1.58-.67,1.97-1.02,2.52-.98,1.56-1.73,3.43-2.08,5.17-.2,.99-.2,4.12,0,5.11,.6,2.99,1.48,5.58,2.83,8.29,.31,.61,.63,1.34,.73,1.64,.18,.57,.53,1.31,.78,1.66,.08,.12,.31,.31,.5,.41,.33,.2,.35,.2,.6,.08,.6-.28,.75-.51,2.09-3.14,.72-1.4,1.44-2.89,1.6-3.3,.4-.99,1.05-3.03,1.12-3.47,.03-.19,.15-.75,.27-1.24,.54-2.25,.48-5.47-.17-8.72-.27-1.41-.58-2.25-1.36-3.86-1.32-2.71-2.18-5.76-2.83-9.99-.08-.52-.16-.96-.18-.98-.02-.02-.08,.11-.12,.29Zm.38,9.5c1.4,3.13,1.73,4.12,2.07,6.19,.12,.76,.15,1.15,.11,1.74-.02,.41-.08,.8-.11,.86-.05,.08-.16,.03-.52-.24-.65-.5-1.05-.73-1.55-.84-1.19-.28-2.26,.02-3.35,.94-.31,.27-.33,.27-.29,.09,.02-.1,.13-.75,.24-1.44,.34-2.14,.6-3.15,1.39-5.23,.56-1.47,1.38-3.36,1.44-3.3,.02,.02,.27,.57,.57,1.24Zm-2.29,15.2c.71,.36,.73,.36,1.46,.36s.76-.02,1.4-.31c.37-.17,.84-.45,1.06-.62q.39-.31,.46-.14c.14,.34,.08,1.51-.12,2.29-.15,.63-.32,.99-1.1,2.41-.51,.92-1.12,2.07-1.37,2.56l-.44,.89-.52-.97c-.62-1.15-1.37-3.03-1.63-4.01-.17-.66-.43-2.15-.53-2.99l-.05-.37,.33,.27c.18,.15,.65,.43,1.05,.63Z"/>
    <path class="cls-2" d="M103,115.37c0,.26,.05,.32,.42,.61,.57,.44,.76,.82,.76,1.51,0,.29-.05,.68-.09,.85-.13,.44-.77,1.41-1.43,2.13-.31,.34-.89,.99-1.3,1.45-.41,.46-1.07,1.18-1.46,1.6-.94,1.02-1.21,1.4-1.86,2.7-.44,.89-.6,1.3-.82,2.14-.24,.96-.26,1.12-.26,2.24s.02,1.27,.27,2.25c.44,1.7,1.06,2.85,2.47,4.54,.98,1.18,3.59,3.12,4.82,3.58,.24,.08,.69,.23,1.02,.31,.53,.13,.66,.14,1.1,.06,.63-.11,.84-.21,1.12-.57,.32-.4,.44-.74,.44-1.29,0-.51-.16-1-.47-1.43-.22-.31-.78-2.02-1.18-3.62-.82-3.28-1.03-6.42-.63-9.58,.2-1.55,.56-3.47,.79-4.24,.34-1.08,.24-2.54-.23-3.55-.53-1.11-1.29-1.65-2.66-1.87-.39-.06-.73-.11-.76-.11-.04,0-.06,.13-.06,.28Zm1.29,6.99c-.26,1.02-.67,3.22-.76,4.15-.11,1.06-.13,3.04-.05,3.84l.06,.56-.37-.26c-.79-.54-1.63-.57-2.51-.08-.27,.15-.57,.38-.68,.51l-.19,.24v-.47c0-1.44,.34-3.09,.94-4.44,.48-1.09,1.44-2.41,2.67-3.64,.53-.53,.99-.97,1.01-.97,.02,0-.03,.25-.11,.55Zm-.07,11.95c.13,.37,.76,1.73,1.39,3.02,.63,1.3,1.13,2.37,1.12,2.38-.02,.02-.86-.38-1.88-.89-2.09-1.02-2.43-1.28-3.33-2.49-.46-.62-1.3-2-1.25-2.05,.02,0,.28,.08,.6,.21,.34,.14,.77,.25,1.08,.27,.64,.05,1.04-.12,1.56-.69,.21-.23,.4-.41,.42-.42,.03,0,.16,.29,.3,.66Z"/>
    <path class="cls-2" d="M153.63,115.21c-1.3,.24-2.05,.78-2.55,1.86-.48,1.02-.57,2.47-.24,3.56,.23,.75,.59,2.63,.8,4.28,.15,1.09,.16,1.47,.13,3.51-.03,1.89-.07,2.44-.2,3.13-.09,.46-.23,1.2-.31,1.64-.18,1.02-1.24,4.59-1.45,4.88-.31,.43-.47,.92-.47,1.43,0,.55,.11,.89,.44,1.29,.27,.36,.49,.47,1.12,.57,.44,.08,.57,.07,1.1-.06,.88-.23,1.38-.44,2.09-.86,1.67-1.01,3.47-2.6,4.53-4.01,1.12-1.48,1.96-3.76,1.96-5.33,0-1.99-.29-3.3-1.08-4.88-.73-1.46-.76-1.49-2.63-3.54-1.31-1.44-2.59-2.88-2.86-3.22-.43-.55-.69-1.27-.69-1.89,0-.69,.17-1.05,.72-1.54,.37-.33,.43-.41,.43-.66,0-.33,.02-.32-.84-.16Zm.74,7.81c1.77,1.96,2.57,3.28,3.03,5.07,.2,.76,.35,1.96,.35,2.75v.47l-.34-.31c-.95-.87-2.08-1.01-3.02-.36l-.35,.24,.03-1.68c.02-.93-.02-2.11-.06-2.64-.09-.95-.48-3.12-.76-4.19l-.15-.56,.33,.27c.18,.15,.6,.57,.93,.94Zm-.35,11.05c.21,.23,.54,.49,.73,.58,.49,.24,1.18,.17,1.96-.19l.58-.27-.36,.7c-.45,.87-1.3,2.02-1.92,2.6-.4,.37-.76,.58-2.32,1.34-1.02,.5-1.86,.89-1.87,.89-.02-.02,.37-.84,.85-1.84,.48-1.01,1.11-2.37,1.39-3.03,.29-.66,.53-1.2,.54-1.2,.02,0,.2,.19,.42,.42Z"/>
    <path class="cls-2" d="M61.7,42.44c-6.48,4.9-6.73,5.1-6.65,5.19,.05,.06-.11,.25-.53,.63l-.6,.54-.46-.27c-1.31-.76-1.86-.91-3.16-.9-.99,0-1.05,0-1.54,.24-.61,.28-1.19,.86-1.5,1.47-.17,.35-.21,.52-.21,1.07s.03,.72,.2,1.08c.33,.7,1.34,1.59,1.83,1.6,.06,0,.15,.04,.21,.09,.08,.08-.4,.59-2.2,2.39-1.64,1.65-2.28,2.34-2.25,2.42,.04,.08-.71,1.08-2.36,3.15-1.33,1.66-2.41,3.05-2.41,3.06,0,.02-.57,.8-1.28,1.73-.69,.93-1.27,1.75-1.27,1.81,0,.07-.54,.91-1.2,1.88-.66,.96-1.22,1.79-1.24,1.84-.05,.1,1.08,.88,1.3,.9,.09,0,.27-.19,.53-.58l.39-.59,1.11,.69,1.12,.69-.5,.85c-.27,.47-.54,.9-.6,.96-.08,.08-.26,0-1.08-.46l-.99-.56h-.76c-1.05,0-1.37,.18-2.05,1.19-.69,1.04-.59,2.38,.23,3.02,.64,.5,1.53,.68,2.05,.41,.5-.26,.51-.26,.4-1.34-.05-.53-.08-.98-.05-1s.29,.1,.59,.27c.52,.3,.54,.32,.44,.48-.05,.08-.2,.43-.32,.76-.18,.48-.21,.66-.16,1,.08,.77,.61,1.43,1.47,1.85,.4,.19,.53,.22,1.14,.22,.64,0,.72-.02,1.13-.26,.4-.23,1.2-1.05,1.2-1.24,0-.11,.02-.17,.13-.43,.31-.74-.13-1.92-.86-2.29-.12-.07-.4-.24-.63-.37l-.4-.25,.5-.86c.27-.47,.53-.89,.57-.93,.03-.04,.76,.37,1.6,.9,.85,.53,1.57,.98,1.6,.99,.09,.02,1.15-1.5,1.08-1.56-.04-.03-1.6-1.03-3.47-2.22l-3.41-2.18,.43-.63c.23-.34,.43-.67,.44-.73,.02-.18,.45-.73,.53-.7,.11,.05,6.37,4.38,6.55,4.54,.11,.1,.18,.05,.63-.53,.27-.34,.53-.69,.57-.76,.05-.09-.56-.56-3.23-2.44-1.82-1.28-3.32-2.34-3.35-2.36s.18-.37,.47-.75c.28-.39,.53-.75,.55-.79s.44-.58,.94-1.18c.85-1.02,.94-1.1,1.28-1.18,.47-.12,.94-.04,1.48,.26,.93,.51,.95,1.34,.08,2.35-.26,.3-.64,.58-1.45,1.09-.1,.06,0,.18,.61,.67l.74,.59,.4-.34,.4-.34,.57,.29c.31,.17,.82,.37,1.12,.47,.5,.16,.6,.17,1.06,.09,.63-.11,1.37-.47,1.73-.84,.68-.71,1.63-2.15,1.53-2.32-.02-.05-.37-.29-.75-.53l-.69-.45-.13,.29c-.08,.15-.14,.34-.14,.4,0,.15-.27,.65-.44,.82-.54,.54-1.34,.91-1.75,.81-.18-.05-.77-.31-.85-.37-.02-.02,.06-.18,.18-.37,.18-.3,.21-.47,.24-1.09,.02-.44,0-.88-.05-1.06-.09-.34-.45-.92-.77-1.24-.21-.21-1.29-.79-1.7-.91l-.21-.06,.73-.9c.4-.5,.69-.94,.67-.99-.05-.08,3.83-3.95,3.96-3.96,.04,0,.21,.15,.4,.33,.4,.37,.39,.5-.05,.7-.27,.12-.64,.47-1.41,1.34-.61,.69-.83,1.34-.84,2.47,0,.8,.02,.86,.24,1.31,.35,.68,1.01,1.31,1.74,1.67,.57,.29,.66,.31,1.39,.33,.92,.03,1.2-.05,2.27-.6l.72-.38-.34-.66c-.19-.37-.37-.69-.4-.73-.03-.04-.21,0-.38,.1-.52,.27-.99,.38-1.57,.38-1.11,0-1.79-.6-1.79-1.57,0-.81,.67-1.72,1.74-2.34,.27-.15,.5-.28,.53-.28,.05,0,1.73,1.58,3.2,3l.47,.46,.69-.66,.69-.67-.47-.44c-1.24-1.15-5.44-5.15-5.44-5.19,0-.03,.36-.44,.79-.89l.79-.83,.54,.59c2.25,2.41,5.06,5.24,5.14,5.19,.05-.03,.4-.31,.76-.62l.66-.56-.5-.51c-1.52-1.55-5.17-5.39-5.16-5.42,0-.02,.24-.25,.54-.5s.6-.55,.67-.66c.07-.12,.63-.59,1.24-1.05l1.12-.84,.4,.06c.48,.06,1.04,.35,1.11,.57,.02,.08-.02,.26-.09,.41-.18,.34-1.29,1.09-1.88,1.28-.24,.08-.44,.16-.44,.2,0,.18,1.11,1.47,1.55,1.82,.08,.05,.44,.24,.8,.42,.65,.31,.68,.32,1.47,.32s.81,0,1.54-.36c.41-.2,.96-.53,1.22-.76,.48-.39,1.12-1.13,1.33-1.54l.11-.21,.61,.77c.44,.56,.65,.76,.73,.73,.3-.11,1.46-1.07,1.41-1.15-.03-.05-1.16-1.45-2.51-3.12-1.36-1.66-2.47-3.03-2.47-3.05,0-.02,.3-.27,.67-.55,.37-.28,.66-.55,.66-.6,0-.11-.95-1.28-1.04-1.28-.04,0-1.06,.75-2.27,1.66Zm1.73,3.48q1.15,1.43,1.07,1.7c-.21,.79-.73,1.51-1.43,1.97-.22,.15-.44,.27-.47,.27s-.2,.07-.35,.15c-.32,.17-.58,.18-1.09,.07-.58-.13-.58-.18,.02-.7,.73-.63,1.05-1.24,1.05-1.93,0-.34-.05-.6-.16-.83-.18-.39-.73-.92-1.13-1.08-.3-.13-.32-.09,.53-.73,.49-.37,.67-.47,.74-.4,.05,.05,.6,.73,1.23,1.52Zm-12.01,3.58c.25,.05,.64,.18,.86,.28l.4,.2-.57,.51c-.32,.28-.58,.54-.58,.57,0,.04-.18,.24-.39,.46l-.4,.4-.27-.26c-.17-.17-.37-.28-.57-.32-.86-.15-1.21-.66-.92-1.36,.26-.62,.95-.76,2.44-.49Zm-12.07,27.85c.21,.12,.44,.31,.49,.41,.09,.17,.08,.21-.04,.39-.08,.11-.21,.21-.27,.24-.15,.05-.52-.11-.82-.34-.17-.13-.18-.15-.08-.44,.1-.31,.21-.49,.3-.49,.02,0,.22,.1,.43,.22Z"/>
    <path class="cls-2" d="M195.16,43.01c-.1,.1-.36,.38-.57,.64l-.39,.46,.28,.22c.49,.39,3.99,3.4,3.99,3.44,0,.03-1.12,1.31-1.47,1.68-.09,.1,0-.15,.35-.9l.27-.6-.42-.4c-.47-.46-1.11-.86-1.67-1.05-.53-.18-1.5-.18-2.02,.02-.4,.15-1.05,.66-1.19,.94-.04,.08-.1,.14-.13,.14-.1,0-.38,.6-.5,1.03-.21,.75-.09,1.5,.33,2.18,.43,.69,1.66,1.67,2.11,1.68,.11,0-.02,.17-.43,.63-.31,.34-.56,.66-.53,.72s.34,.36,.71,.67c.53,.45,.69,.55,.74,.47,.04-.06,.76-.9,1.63-1.86,1.48-1.67,1.58-1.76,1.84-1.76,.15,0,.3,.03,.34,.06,.04,.04,.21,.11,.38,.15,.3,.08,.83,.57,1.02,.93,.1,.18,.1,.51,0,.57-.04,.02-.08,.11-.08,.18,0,.33-.86,.85-1.4,.85-.27,0-.92-.37-1.15-.64-.27-.34-.32-.32-1,.46l-.51,.59,.37,.37c1.17,1.2,2.73,1.46,4.09,.69,1.75-1.01,2.13-3.13,.85-4.7-.36-.44-1.14-1.01-1.52-1.12-.17-.05-.17-.06,.15-.42l.33-.37,1.86,1.59c1.03,.88,1.87,1.63,1.88,1.67s.24,.32,.52,.61c.27,.29,.5,.56,.49,.58-.02,.05-4.8,4.54-5.54,5.19l-.38,.35,.66,.72,.66,.72,.4-.38c.22-.21,1.56-1.47,2.96-2.8,1.41-1.33,2.59-2.42,2.62-2.42,.07,0,5.33,6,5.38,6.14,.04,.09-.66,.74-.79,.73-.03,0-.56-.57-1.17-1.26-1.16-1.31-1.67-1.77-2.37-2.14-.37-.2-.5-.22-1.15-.22s-.76,.02-1.11,.22c-.88,.51-1.31,1.05-1.53,1.94-.11,.45-.11,.53,0,1.05,.11,.5,.18,.62,.6,1.12,.83,.97,1.36,1.28,2.23,1.28,.43,0,.62-.04,.93-.2,.49-.24,.92-.65,1.13-1.07l.16-.31-.76-.78c-.42-.42-.79-.76-.82-.73s-.11,.24-.15,.48c-.1,.48-.23,.63-.55,.63s-.58-.2-.75-.54c-.18-.35-.14-.67,.14-.95,.39-.39,.88-.34,1.41,.13,.41,.38,2.28,2.48,2.28,2.57,0,.04-.84,.76-1.86,1.6-1.03,.86-1.89,1.59-1.9,1.63-.04,.13,1.12,1.5,1.22,1.44,.05-.03,1.44-1.19,3.09-2.57,1.64-1.39,3.03-2.54,3.09-2.57,.06-.04,.23,.09,.47,.37,.31,.37,.34,.44,.24,.5-.1,.06-.05,.16,.33,.69,.24,.35,.44,.63,.44,.64-.05,.04-2.69,1.86-2.73,1.88-.08,.05-.68,.81-.9,1.16-.27,.42-.37,1.02-.28,1.73,.05,.4,.12,.57,.51,1.15,.27,.4,.61,.79,.83,.96,.2,.15,.37,.31,.37,.33,0,.05-.95,.76-1.02,.76-.02,0-.24-.17-.48-.37-.44-.37-.69-.5-1.5-.76-.25-.08-.51-.17-.58-.2-.18-.08-.22,.15-.22,1.08v.78l.44,.16c.63,.23,.78,.31,.98,.57,.53,.69,.5,1.19-.08,1.47-.73,.35-1.12,.14-1.92-1.09-.42-.63-.69-1.59-.76-2.64-.04-.56-.02-.7,.12-1.02,.09-.2,.15-.38,.12-.4-.05-.05-1.15-.16-1.67-.16h-.44s.04,1.46,.04,1.46c.04,1.45,.04,1.49,.31,2.28,.39,1.12,1.22,2.44,1.86,2.95,1.03,.83,1.91,.99,3.08,.55,.6-.22,1.31-.87,1.54-1.43,.11-.26,.15-.5,.13-.91l-.02-.57,3.12-2.18c1.72-1.19,3.15-2.18,3.18-2.18,.1-.03,.89,1.13,.83,1.21-.04,.05,.37,.82,.95,1.82,.99,1.69,1.01,1.75,.95,2.04-.12,.53-.68,1.18-1.18,1.37-.39,.15-.82,.09-1.2-.15-.55-.37-.82-.83-1.1-1.95-.11-.42-.21-.77-.22-.79-.02-.02-1.57,.82-1.57,.86,0,0,.05,.15,.1,.31q.24,.68-.17,.95c-.77,.49-1.36,1.3-1.5,2.06-.18,.98,.1,1.82,1.02,3.06,.29,.4,.58,.76,.64,.81,.09,.07,.22,.02,.69-.27,.31-.2,.67-.43,.79-.52l.21-.15-.5-.38c-.67-.5-1-1.12-1-1.87,0-.45,.03-.56,.23-.83,.13-.18,.32-.37,.44-.44,.21-.12,.21-.12,.54,.22,.34,.35,1.03,.73,1.62,.9,1,.27,2.16-.17,3.09-1.18l.35-.38,.57,.99c.31,.54,.63,1.02,.69,1.05,.08,.05,.31-.06,.76-.35,.36-.22,.64-.44,.63-.47,0-.04-.99-1.71-2.19-3.72-1.57-2.63-2.16-3.68-2.11-3.75s-.69-1.12-2.73-3.83c-2.57-3.4-2.81-3.75-2.72-3.89s-.18-.47-3.32-4.01c-1.89-2.12-4.19-4.64-5.12-5.59-1.2-1.21-1.69-1.76-1.66-1.85,.04-.09-1.13-1.11-4.44-3.88-2.47-2.06-4.67-3.92-4.92-4.12l-.43-.37-.19,.18Zm.37,5.41c.22,.1,.49,.35,.79,.71l.44,.56-.54,.63-.54,.63-.38-.05c-.81-.1-1.54-.67-1.73-1.35-.08-.28-.07-.36,.08-.64,.24-.47,.69-.73,1.18-.68,.2,.02,.52,.11,.7,.21Zm20.83,18.81c.79,1.06,.8,1.07,.63,1.19-.08,.07-.79,.57-1.57,1.1-1.6,1.11-1.56,1.1-2.29,.6-.44-.3-.63-.55-.77-1.02-.1-.35,.02-.69,.36-1,.31-.3,2.71-1.97,2.78-1.95,.04,.02,.42,.5,.86,1.08Z"/>
    <path class="cls-2" d="M31.09,86.02c-.62,.15-1.26,.53-1.86,1.08-.84,.78-1.18,1.57-1.18,2.75,0,1.08,.34,1.87,1.12,2.67,.94,.96,2.37,1.38,3.73,1.1,.64-.13,1.61-.63,2.02-1.05,.45-.45,.96-1.37,1.08-1.91,.37-1.73-.47-3.43-2.09-4.27-.34-.17-.79-.35-1.02-.4-.52-.11-1.32-.1-1.81,.02Z"/>
    <path class="cls-2" d="M223.02,86.01c-1.08,.28-2.19,1.15-2.66,2.09-.6,1.2-.59,2.38,.05,3.53,.44,.79,.91,1.24,1.67,1.6,1.32,.63,2.51,.63,3.75-.02,1.13-.58,1.8-1.49,2.06-2.76,.11-.57,.11-.66,0-1.22-.19-.95-.53-1.6-1.08-2.1-.53-.47-1.16-.88-1.64-1.05-.44-.16-1.68-.2-2.16-.08Z"/>
    <path class="cls-2" d="M231.56,99.03c-1.88,1.86-2.43,2.51-2.8,3.28l-.31,.63-.3-.55c-.82-1.53-2.21-2.15-3.98-1.77-.85,.18-1.77,.82-2.29,1.61-.32,.49-.45,1.34-.35,2.3,.06,.62,1.46,6.7,1.56,6.8,.02,.02,12.5-2.71,12.54-2.75,.02-.02-.57-2.44-.61-2.47,0-.02-1.17,.23-2.57,.54s-2.57,.55-2.6,.53c-.08-.05-.29-1.07-.29-1.42,0-.6,.5-1.38,1.45-2.31,.26-.25,.99-.99,1.61-1.65l1.14-1.2-.34-1.47c-.19-.81-.36-1.48-.37-1.5-.02-.02-.68,.62-1.48,1.41Zm-5.45,4.24c.49,.25,.74,.8,1.25,2.8,.41,1.6,.41,1.62,.25,1.66-.73,.18-2.93,.63-2.94,.61-.04-.04-.43-1.61-.66-2.71-.28-1.31-.19-1.78,.43-2.19,.53-.35,1.17-.41,1.67-.16Z"/>
    <path class="cls-2" d="M24.95,97.93s-.15,.55-.34,1.2c-.19,.64-.33,1.18-.31,1.2,.05,.05,12.36,3.23,12.4,3.2,.05-.05,.71-2.37,.68-2.39-.02-.02-12.33-3.23-12.4-3.23-.02,0-.02,0-.02,.02Z"/>
    <path class="cls-2" d="M23.57,102.51s-.11,.54-.23,1.16c-.13,.63-.21,1.15-.2,1.16s1.84,.35,4.06,.74c2.72,.48,3.99,.73,3.89,.77-.08,.04-2.09,.82-4.46,1.73-2.37,.92-4.32,1.68-4.33,1.7-.05,.04-.49,2.44-.46,2.47,.04,.05,12.59,2.24,12.62,2.21,.05-.05,.41-2.28,.38-2.31-.02-.02-1.89-.35-4.15-.74-2.73-.47-4.06-.73-3.96-.77,.08-.04,2.15-.83,4.57-1.76,2.43-.94,4.44-1.72,4.45-1.73,.04-.05,.48-2.37,.45-2.4-.02-.02-12.53-2.24-12.62-2.24-.02,0-.02,.02-.02,.02Z"/>
    <path class="cls-2" d="M227.46,111.84c-2.26,.19-4.13,.35-4.15,.37-.03,.04,.2,2.51,.24,2.55,0,.02,1.6-.11,3.53-.28,4.14-.37,5.58-.44,6.05-.31,.19,.05,.47,.22,.67,.4,.43,.4,.65,.95,.69,1.83,.07,1.08-.22,1.67-1.06,2.15-.39,.23-.89,.29-5.97,.74-1.89,.17-3.44,.32-3.46,.34-.03,.03,.2,2.51,.24,2.54,.02,.02,7.56-.64,8.03-.71,.89-.13,2.11-.45,2.56-.68,.66-.34,1.37-1.08,1.6-1.69,.34-.92,.4-1.36,.36-2.67-.06-1.76-.37-2.74-1.19-3.69-.41-.48-.76-.7-1.54-.98-.91-.32-1.79-.31-6.59,.08Z"/>
    <path class="cls-2" d="M21.59,115.07s-.11,1.08-.23,2.31c-.26,2.56-.29,4.04-.11,4.77,.3,1.18,1.09,2.15,2.31,2.86,.95,.55,1.75,.77,3.28,.92,1.73,.16,2.76,.08,3.83-.34,.92-.34,.95-.36,1.54-.84,.5-.4,.97-1,1.28-1.61,.15-.29,.4-1.31,.5-2.05,.08-.54,.44-4.95,.4-4.98-.02-.02-12.48-1.08-12.78-1.09-.02,0-.02,.02-.02,.05Zm6.18,3.04c2.28,.18,4.16,.35,4.18,.36,.03,.04-.33,2.71-.43,3.18-.08,.32-.18,.5-.44,.79-.66,.7-1.3,.89-2.96,.89s-3.31-.39-4.06-.97c-.55-.41-.76-1.32-.63-2.76,.1-1.1,.17-1.84,.18-1.84,0,0,1.89,.15,4.17,.34Z"/>
    <path class="cls-2" d="M226.88,122.95c-.67,.18-1.1,.41-1.47,.8-.35,.35-.78,1.03-.93,1.47-.16,.47-.26,1.89-.31,4.54l-.05,2.51h.22c.11,0,3.01,.05,6.42,.11,3.42,.07,6.22,.11,6.23,.1,.02-.02,.05-.6,.08-1.29l.05-1.28-2.43-.05-2.44-.05v-1.85c-.02-2.14-.08-2.5-.61-3.41-.73-1.23-1.78-1.76-3.47-1.75-.5,0-.99,.05-1.3,.14Zm2.22,2.69c.35,.18,.65,.52,.76,.89,.05,.16,.11,.94,.12,1.8l.04,1.52-1.33-.05c-.73-.03-1.54-.05-1.79-.05h-.48v-.71c0-1.31,.14-2.33,.37-2.76,.24-.45,.47-.63,.98-.77,.44-.12,.95-.08,1.34,.12Z"/>
    <path class="cls-2" d="M26.86,127.32c-1.99,.02-4.17,.05-4.84,.06h-1.21s.05,1.28,.05,1.28c.03,.71,.06,1.29,.08,1.31,.03,.03,12.82-.21,12.85-.25,.02-.02,0-.58-.02-1.25l-.06-1.23-1.61,.02c-.89,0-3.25,.04-5.24,.07Z"/>
    <path class="cls-2" d="M21.01,131.58c.02,.38,.07,1,.09,1.38l.05,.68,.4,.11c.21,.06,.86,.24,1.42,.4,.57,.15,1.05,.31,1.09,.34,.08,.07,.44,4.83,.37,4.9-.03,.03-.65,.33-1.38,.66s-1.34,.63-1.36,.64c-.03,.03,.19,2.67,.23,2.7,.02,.02,12.33-5.74,12.4-5.8,.03-.04-.12-2.67-.16-2.71-.02,0-2.93-.9-6.47-1.97s-6.51-1.96-6.59-1.99c-.13-.05-.14,0-.09,.65Zm8.43,4.38l1.71,.48-2.26,.96c-1.24,.53-2.26,.94-2.26,.91,0-.02-.05-.73-.11-1.57s-.11-1.55-.11-1.58c0-.05,.3,.03,3.04,.8Z"/>
    <path class="cls-2" d="M223.9,133.87s-.05,.57-.11,1.19c-.07,.62-.11,1.14-.09,1.15s1.81,.2,3.99,.42c2.18,.21,4.02,.41,4.1,.44,.11,.04-1.11,.63-4.25,2.1-2.42,1.13-4.4,2.07-4.4,2.1,0,.02-.07,.57-.15,1.22s-.14,1.19-.12,1.21c.03,.04,12.75,1.32,12.78,1.29,.04-.04,.33-2.36,.3-2.39-.02-.02-1.81-.21-3.99-.42-2.18-.21-3.99-.41-4.02-.44-.03-.02,1.84-.93,4.16-2.02,2.32-1.08,4.26-1.99,4.32-2.02,.08-.05,.37-2.51,.31-2.58-.02-.02-12.62-1.33-12.78-1.33-.02,0-.02,.03-.02,.07Z"/>
    <path class="cls-2" d="M28.77,143.39c-3.42,.69-6.23,1.26-6.25,1.28-.03,.03,.5,2.28,.54,2.32,.02,.02,7.41-1.48,7.94-1.61q.15-.04,0,.1c-.08,.08-1.57,1.46-3.31,3.06s-3.27,3.02-3.38,3.12l-.21,.21,.27,1.25c.15,.69,.28,1.26,.3,1.28,.02,.02,12.5-2.56,12.55-2.6,.02-.03-.42-2.28-.46-2.32-.02-.02-6.79,1.37-8.03,1.66q-.29,.06-.15-.07c.08-.08,1.6-1.49,3.39-3.14s3.34-3.09,3.45-3.2l.21-.2-.23-1.18c-.12-.65-.23-1.19-.23-1.21,0-.04-.36,.03-6.41,1.25Z"/>
    <path class="cls-2" d="M228.67,147.17c-3.53,.54-6.56,1-6.74,1.03l-.31,.05-.31,1.31c-.18,.73-.29,1.34-.26,1.37,.05,.05,11.09,7.3,11.3,7.42,.1,.06,.75-2.54,.66-2.62-.04-.03-.61-.39-1.28-.8s-1.23-.76-1.24-.76c-.03-.02,1.1-4.7,1.15-4.74,.02-.02,.73-.15,1.56-.27s1.52-.24,1.54-.25c.02-.02,.63-2.63,.63-2.7,0-.05-.21-.02-6.68,.97Zm.55,2.61c-.02,.05-.18,.73-.36,1.51-.18,.78-.35,1.44-.38,1.47-.03,.04-.95-.5-2.05-1.18-1.1-.69-1.98-1.27-1.96-1.28,.03-.04,4.22-.58,4.64-.61,.08,0,.12,.03,.1,.08Z"/>
    <path class="cls-2" d="M219.84,154.7c-.05,.12-.3,.81-.57,1.54l-.49,1.34,1.72,3.25c.94,1.79,1.69,3.26,1.66,3.28-.03,0-1.21-.38-2.6-.86-1.41-.48-2.57-.87-2.57-.86-.06,.05-.87,2.3-.84,2.32,.05,.05,12.07,4.3,12.09,4.28,.05-.05,.86-2.37,.84-2.4-.02-.02-.85-.31-1.85-.67s-1.83-.66-1.84-.67c0,0-.29-.57-.63-1.25-.6-1.19-.61-1.24-.44-1.28,.09-.02,1.63-.3,3.41-.61s3.25-.59,3.27-.6c.06-.06,1.17-3.05,1.15-3.08-.02,0-2.07,.44-4.56,1.01s-4.54,1.03-4.54,1.03c0,0-.68-1.34-1.5-2.98-.82-1.64-1.51-2.98-1.55-2.98-.03,0-.09,.09-.14,.21Z"/>
    <path class="cls-2" d="M33.05,159.46c-3.33,1.05-6.07,1.91-6.09,1.92s.15,.57,.36,1.23c.32,1.01,.4,1.2,.51,1.17,.07-.02,2.83-.89,6.12-1.92,3.29-1.02,6-1.88,6.01-1.89,.05-.04-.74-2.42-.79-2.41-.03,0-2.78,.86-6.12,1.9Z"/>
    <path class="cls-2" d="M34.73,163.55c-3.2,1.32-5.84,2.41-5.86,2.43-.06,.06,.92,2.2,.99,2.17,.05-.02,1.75-.71,3.78-1.54,2.03-.83,3.7-1.5,3.7-1.48,.02,.02-1.15,1.62-2.57,3.57s-2.67,3.67-2.77,3.83l-.19,.27,.5,1.13c.27,.63,.51,1.15,.52,1.16,.02,.02,11.73-4.83,11.78-4.89,.07-.06-.92-2.2-.99-2.16-.05,.02-1.78,.74-3.86,1.6-2.07,.86-3.78,1.57-3.8,1.57s1.24-1.73,2.78-3.84c1.54-2.11,2.83-3.87,2.86-3.92,.05-.09-.92-2.33-1.01-2.31-.02,0-2.67,1.08-5.88,2.4Z"/>
    <path class="cls-2" d="M213.56,169.52c-.37,.66-.68,1.23-.68,1.28,0,.05,.64,1.15,1.43,2.44,.79,1.29,1.42,2.36,1.41,2.38s-1.31,.07-2.89,.11-2.87,.1-2.89,.11c-.07,.08-1.45,2.6-1.43,2.61,.02,.02,1.99-.1,4.41-.24l4.38-.27,2.3,1.27c1.26,.7,2.31,1.29,2.34,1.31,.04,.02,.82-1.26,1.34-2.21,.02-.02-1.05-.62-2.35-1.31l-2.39-1.27-2.06-3.7c-1.13-2.03-2.09-3.7-2.14-3.7-.04,0-.38,.53-.76,1.19Z"/>
    <path class="cls-2" d="M43.04,172.28c-1.07,.36-1.59,.8-2.06,1.8-.24,.51-.31,.73-.34,1.27-.07,.85,.04,1.44,.56,3.25,.36,1.24,.41,1.51,.38,1.91-.05,.67-.15,.83-.67,1.07-.43,.19-.48,.2-.89,.11-.63-.13-1.03-.39-1.43-.95-.47-.67-.64-1.08-.69-1.74-.05-.51-.03-.6,.16-.98,.11-.23,.38-.6,.58-.82,.24-.26,.35-.44,.32-.5-.04-.05-.37-.51-.74-1.02l-.68-.92-.21,.15c-.42,.3-1.22,1.24-1.52,1.77-.36,.65-.51,1.37-.43,2.08,.21,1.87,1.77,4.31,3.24,5.05,1.29,.64,2.44,.66,3.67,.04,1.12-.56,1.96-1.74,2.05-2.83,.04-.57-.1-1.31-.65-3.42-.42-1.64-.48-2.24-.25-2.6,.16-.26,.55-.47,.86-.47s.95,.43,1.23,.82c.41,.57,.75,1.31,.79,1.73,.05,.48-.15,.93-.6,1.35l-.29,.27,.69,1.08,.69,1.08,.24-.13c.39-.2,1.16-1.04,1.37-1.48,.31-.66,.4-1.28,.29-1.99-.18-1.14-.6-2.05-1.48-3.25-.63-.84-1.15-1.24-2.05-1.62-.64-.26-1.53-.31-2.13-.11Z"/>
    <path class="cls-2" d="M49.23,179.74c-.47,.35-.87,.66-.89,.67-.02,0,.49,.69,1.12,1.5s1.13,1.49,1.12,1.5-1.89,1.37-4.18,3.05c-2.29,1.66-4.19,3.05-4.22,3.09-.07,.06,1.44,2.04,1.54,2.02,.04,0,1.93-1.37,4.21-3.04s4.16-3.03,4.2-3.04c.03,0,.57,.62,1.18,1.4,.62,.78,1.15,1.41,1.2,1.39,.04,0,.45-.28,.91-.6,.53-.37,.81-.62,.77-.66-.65-.86-5.93-7.75-6-7.82-.07-.08-.27,.04-.95,.56Z"/>
    <path class="cls-2" d="M208.12,179.91c-.81,.24-1.46,.66-2.25,1.46-1.05,1.07-1.76,2.2-2.07,3.33-.15,.53-.16,.73-.12,1.45,.08,1.41,.45,2.41,1.26,3.36,.49,.57,1.41,1.39,2.08,1.83,.48,.32,1.99,.92,2.56,1.03,1.72,.31,3.15,.05,4.44-.8,1.07-.71,1.85-1.63,2.57-3.01,.6-1.14,.81-2,.87-3.51l.04-.96-2.01-1.29c-1.11-.71-2.08-1.34-2.18-1.39-.15-.09-.24,.02-1.68,2.05-.83,1.18-1.54,2.18-1.57,2.24-.04,.06,.24,.29,.82,.68,.48,.32,.91,.59,.95,.6,.04,.02,.43-.5,.87-1.14l.79-1.16,.66,.4,.66,.4v.37c0,.62-.23,1.66-.47,2.17-.44,.9-1.14,1.5-2.13,1.83-.93,.31-1.86,.2-3.03-.38-1.28-.62-2.43-1.63-2.83-2.51-.17-.36-.2-.53-.2-1.15,0-.82,.13-1.22,.64-2.07,.32-.53,1-1.06,1.57-1.23,.35-.1,1.3-.13,1.54-.04,.15,.05,.21-.05,.7-1.15,.31-.66,.53-1.21,.52-1.22-.11-.11-.98-.26-1.69-.29-.66-.03-.94,0-1.31,.1Z"/>
    <path class="cls-2" d="M52.16,191.52c-2.7,2.17-4.91,3.98-4.92,4.02,0,.03,.36,.5,.81,1.05,.54,.64,.86,.96,.91,.92,.29-.22,9.65-7.84,9.72-7.9,.07-.06-.08-.29-.67-.96-.42-.48-.81-.92-.86-.97-.08-.08-1.13,.74-4.99,3.86Z"/>
    <path class="cls-2" d="M200.91,189.45c-1.43,.17-2.93,1.03-4.07,2.35-1.26,1.46-1.74,2.83-1.52,4.35,.15,.99,.35,1.56,.86,2.32,.78,1.19,1.91,2.27,3.18,3.05,.52,.31,.8,.42,1.63,.63,.86,.21,1.09,.24,1.57,.21,.9-.08,1.7-.27,2.25-.56,.73-.36,1.97-1.39,2.49-2.04,.43-.54,1.08-1.79,1.24-2.38,.11-.43,.11-1.98-.02-2.44-.24-.91-.92-2.02-1.79-2.97-.37-.4-1.61-1.41-2.02-1.65-.55-.33-1.63-.7-2.34-.8-.73-.11-.93-.12-1.46-.06Zm1.62,2.75c1.28,.6,2.7,1.89,3.25,2.96,.4,.8,.41,1.95,.02,2.75-.34,.69-.8,1.12-1.64,1.52-.86,.41-1.3,.48-2.13,.31-1.54-.31-3.35-1.85-3.99-3.4-.17-.4-.21-.62-.21-1.15,0-.63,0-.69,.33-1.29,.43-.82,.92-1.31,1.7-1.7,.62-.3,.63-.3,1.38-.27,.66,.03,.83,.07,1.28,.27Z"/>
    <path class="cls-2" d="M58.71,191.22l-.79,.74,1.35,1.3,1.35,1.3-3.78,3.66c-2.08,2.02-3.79,3.67-3.79,3.68s.42,.4,.94,.89l.94,.88,3.77-3.61,3.77-3.61,1.34,1.28,1.34,1.29,.78-.78,.78-.78-2.88-2.8c-1.59-1.54-3.22-3.1-3.61-3.48l-.73-.69-.79,.73Z"/>
    <path class="cls-2" d="M64.74,200.23c-3.09,3.64-3.84,4.7-4.05,5.65-.27,1.31,.1,2.48,1.16,3.59,.52,.54,1.65,1.41,2.28,1.76,.79,.44,1.14,.55,1.89,.63,1.14,.12,1.81-.13,3.02-1.15,.4-.34,.73-.64,.73-.67s.21-.3,.47-.59c.26-.3,1.41-1.67,2.57-3.05,1.15-1.39,2.15-2.57,2.21-2.64,.08-.11-.02-.21-.83-.83-.52-.39-.98-.74-1.02-.77-.05-.05-.93,.95-2.41,2.7-2.8,3.33-3.7,4.28-4.19,4.42-.55,.16-.98,.11-1.54-.15-1.02-.47-1.74-1.44-1.74-2.34,0-.61,.34-1.09,3.13-4.48,1.47-1.78,2.7-3.26,2.71-3.29,.02-.02-.39-.37-.9-.76s-.97-.74-1.02-.77c-.05-.05-.93,.94-2.47,2.74Z"/>
    <path class="cls-2" d="M187.33,200.45c-.86,.69-.99,.83-.91,.93,.15,.2,7.71,9.28,7.8,9.38,.07,.08,.88-.52,3.57-2.63,1.92-1.5,3.5-2.76,3.51-2.8,0-.03-.29-.42-.66-.86l-.67-.79-.2,.14c-.11,.08-1.23,.95-2.49,1.95-1.77,1.4-2.31,1.78-2.38,1.7-.05-.05-1.49-1.78-3.2-3.83-1.71-2.06-3.17-3.8-3.24-3.87-.12-.13-.18-.09-1.14,.68Z"/>
    <path class="cls-2" d="M75.02,204.52c-.32,.46-.6,.86-.6,.91-.02,.05,.69,.52,1.56,1.06l1.58,.98-2.89,4.35c-1.6,2.39-2.87,4.37-2.84,4.4,.12,.1,2.05,1.28,2.13,1.31,.05,.02,1.38-1.91,2.99-4.31l2.89-4.33,1.56,1.02,1.57,1.02,.14-.17c.13-.17,.14-.16,.02,.1-.05,.15-1.09,2.31-2.29,4.8s-2.17,4.55-2.15,4.57c.05,.05,8.78,3.99,8.8,3.97,.03-.04,.95-1.89,.95-1.92,0-.02-1.44-.67-3.21-1.46-1.76-.79-3.21-1.47-3.21-1.5,0-.03,.33-.71,.73-1.5l.72-1.44,2.35,1.05c1.29,.58,2.59,1.16,2.88,1.3,.29,.13,.53,.23,.54,.22,.08-.1,.95-1.92,.93-1.95-.02-.02-1.3-.6-2.84-1.29-1.54-.69-2.83-1.27-2.86-1.29-.05-.03,.83-2.08,1.03-2.41,.02-.03,1.44,.57,3.15,1.34s3.12,1.4,3.12,1.38c.08-.09,.95-1.91,.92-1.93-.08-.08-8.43-3.87-8.55-3.88-.08,0-1.99-1.17-4.24-2.58-2.26-1.41-4.15-2.58-4.19-2.6s-.34,.32-.66,.79Z"/>
    <path class="cls-2" d="M182.6,203.87c-.73,.17-2.12,.87-2.79,1.41-1.24,1-1.93,1.98-2.24,3.18-.15,.59-.15,1.66,0,2.34,.29,1.26,1.16,2.89,2.1,3.92,.45,.5,1.43,1.22,2.09,1.56,.97,.48,2.36,.63,3.58,.36,.92-.19,2.34-.94,3.26-1.71,1-.84,1.51-1.63,1.83-2.88,.5-1.97-.19-3.99-2.17-6.32-.54-.63-1.31-1.16-2.27-1.56l-.87-.35-1.03-.02c-.69-.02-1.19,0-1.5,.08Zm2.3,2.56c1.29,.58,2.89,2.89,3.05,4.39,.05,.5-.09,1.34-.3,1.75-.25,.47-.59,.81-1.21,1.18-.91,.57-1.7,.72-2.58,.51-1.29-.3-2.43-1.34-3.25-2.99-.49-.97-.61-1.58-.48-2.33,.24-1.34,.96-2.14,2.41-2.67,.6-.23,1.68-.16,2.36,.15Z"/>
    <path class="cls-2" d="M173.84,209c-.59,.27-1.08,.5-1.09,.52-.02,0,.79,1.68,1.77,3.71s1.79,3.7,1.78,3.7c-.02,.02-1.34-.83-2.96-1.88s-3.47-2.25-4.13-2.67l-1.19-.76-1.14,.53c-.62,.3-1.15,.55-1.15,.57-.02,.02,5.37,11.19,5.42,11.25,.02,.02,2.18-.94,2.25-1,.02-.02-.76-1.63-1.73-3.6s-1.75-3.58-1.74-3.59c.02-.02,1.6,.99,3.54,2.23s3.76,2.4,4.06,2.58l.54,.34,1.2-.55c.66-.3,1.18-.57,1.18-.6-.17-.43-5.44-11.3-5.48-11.3-.02,0-.53,.23-1.11,.5Z"/>
    <path class="cls-2" d="M162.96,213.58c-.65,.23-1.19,.43-1.21,.44,0,.02,.36,1.01,.82,2.21,.46,1.21,.85,2.23,.86,2.28,.02,.1-4.53,1.76-4.61,1.68-.02-.02-.43-1.04-.89-2.25-.46-1.21-.86-2.21-.87-2.23-.03-.03-2.41,.78-2.47,.83-.02,.02,4.38,11.65,4.43,11.71,.02,.03,2.34-.78,2.4-.84,.02,0-.39-1.12-.89-2.46-.5-1.34-.92-2.48-.94-2.54-.02-.07,.67-.34,2.31-.92,1.28-.45,2.35-.8,2.38-.77,.03,.02,.47,1.18,.99,2.55,.56,1.47,.97,2.49,1.02,2.47,.05-.02,.61-.21,1.25-.44,.95-.33,1.16-.43,1.12-.53-.03-.07-1.01-2.65-2.18-5.74s-2.15-5.67-2.18-5.75c-.03-.07-.08-.13-.11-.12-.02,0-.57,.19-1.22,.42Z"/>
    <path class="cls-2" d="M99.79,215.97c-.9,.29-1.71,.73-2.25,1.23-.99,.93-1.38,1.57-1.98,3.21-.53,1.47-.63,2.69-.35,3.93,.18,.76,.31,1.07,.78,1.76,.41,.63,.61,.82,1.28,1.32,1.41,1.05,3.5,1.6,5.08,1.36,1.44-.22,2.18-.56,3.15-1.45,.57-.53,1.18-1.34,1.43-1.89,1.08-2.47,1.15-4.91,.17-6.59-.29-.5-1.14-1.37-1.7-1.76-1.48-1.01-4.24-1.56-5.6-1.12Zm2.83,2.31c1.18,.27,1.96,.98,2.36,2.13,.31,.89,.11,2.29-.52,3.74-.18,.4-.39,.83-.47,.97-.21,.34-.86,.84-1.46,1.12-.47,.23-.54,.24-1.41,.23-.85,0-.95-.02-1.34-.22-1.12-.57-1.76-1.34-1.92-2.31-.24-1.43,.49-3.87,1.48-4.9,.8-.84,1.88-1.08,3.28-.76Z"/>
    <path class="cls-2" d="M149.36,217.41c-.11,.02-.5,.11-.89,.21-1.26,.33-2.25,.95-3.02,1.88-.83,1.02-1.08,1.63-1.28,3.13-.18,1.31,.24,3.24,1.02,4.64,.71,1.29,1.92,2.35,3.16,2.77,1.44,.49,3.49,.3,4.95-.46,.62-.32,1.76-1.4,2.02-1.9,.39-.78,.77-2.77,.53-2.77-.05,0-.65-.04-1.31-.08-.66-.04-1.22-.07-1.24-.05,0,.02-.06,.33-.11,.69-.15,1.24-.48,1.78-1.36,2.22-.66,.34-1.27,.45-1.84,.35-1.55-.27-2.28-1.17-2.92-3.57-.2-.74-.24-1.05-.24-1.74,0-.83,0-.85,.31-1.46,.27-.53,.38-.67,.79-.98,1.16-.86,2.57-.86,3.63,0,.18,.15,.4,.4,.48,.57l.15,.3,1.23-.62,1.23-.61-.21-.28c-.73-.98-1.51-1.66-2.25-1.93-.72-.27-2.15-.44-2.83-.32Z"/>
    <path class="cls-2" d="M110.25,217.9s-.55,2.77-1.22,6.13c-.67,3.36-1.21,6.12-1.19,6.13,.04,.04,2.51,.48,2.54,.45,.02,0,.26-1.15,.55-2.52,.28-1.37,.53-2.51,.55-2.52s1.18,.19,2.58,.46,2.57,.47,2.58,.46c.05-.05,.49-2.13,.46-2.16-.02-.02-1.19-.23-2.6-.47s-2.58-.46-2.6-.47c-.03-.03,.53-2.73,.58-2.77,.02-.02,1.37,.22,3,.53,1.64,.31,2.99,.55,3,.54,.04-.05,.48-2.06,.45-2.09-.02-.02-1.88-.39-4.14-.82-2.27-.44-4.21-.82-4.32-.85-.12-.02-.21-.03-.21-.02Z"/>
    <path class="cls-2" d="M137.95,219.42c-2.47,.21-4.51,.38-4.53,.4-.03,.03,1.04,12.36,1.07,12.4,.04,.03,9.69-.73,9.73-.77,.03-.03-.13-2.13-.16-2.16-.02-.02-1.6,.11-3.52,.28-1.93,.16-3.52,.29-3.53,.27-.04-.04-.33-3.2-.3-3.23,.02-.02,1.45-.15,3.18-.3s3.16-.27,3.18-.29c.03-.03-.2-2.05-.24-2.08-.02-.02-1.44,.09-3.18,.24-1.73,.15-3.17,.26-3.18,.24-.04-.04-.25-2.59-.21-2.62,.02-.02,6.5-.63,6.8-.63,.03,0,.04-.24,.02-.53-.02-.3-.07-.78-.09-1.07l-.05-.53h-.24c-.13,.02-2.26,.18-4.74,.39Z"/>
    <path class="cls-2" d="M123.05,220.61c-.03,.57-.04,1.05-.02,1.06s.86,.07,1.89,.11c1.02,.05,1.87,.09,1.89,.11,.02,0-.06,2.31-.17,5.12-.11,2.8-.18,5.11-.18,5.12,.02,.02,.62,.05,1.34,.08,1.08,.05,1.31,.04,1.31-.05,0-.66,.31-10.18,.34-10.2,.02-.02,.79,0,1.73,.05,.94,.05,1.79,.08,1.87,.08,.16,0,.17-.05,.22-1.08,.03-.59,.04-1.08,.02-1.1-.02-.02-9.41-.34-10.11-.34-.06,0-.11,.35-.15,1.04Z"/>
  </g>
</svg>