<svg version="1.1" id="Layer_1" xmlns="http://www.w3.org/2000/svg" xmlns:xlink="http://www.w3.org/1999/xlink" x="0px" y="0px"
	 width="100%" viewBox="0 0 3601 3941" enable-background="new 0 0 3601 3941" xml:space="preserve">
<path fill="#173E79" opacity="1.000000" stroke="none" 
	d="
M1780.000000,2.000007 
	C1795.375122,2.000000 1810.750366,2.000000 1827.543457,2.619051 
	C1841.922241,6.109829 1855.234741,7.911802 1867.782593,12.038910 
	C1921.360229,29.661379 1961.818115,63.445015 1988.384277,113.282120 
	C2005.787964,145.930481 2013.661743,180.935272 2011.664673,217.977356 
	C2011.080322,228.813782 2009.914917,239.618881 2008.964600,251.054001 
	C2424.162354,482.681396 2839.508545,714.391479 3254.518799,945.914307 
	C3305.678955,900.217896 3364.561768,882.255554 3431.166260,892.591492 
	C3484.721680,900.902527 3528.318359,927.655029 3561.538086,970.491821 
	C3584.816650,1000.509216 3599.711914,1034.196411 3602.562012,1072.584717 
	C3602.648682,1073.752441 3603.503418,1074.862915 3604.000000,1076.000000 
	C3604.000000,1089.375244 3604.000000,1102.750610 3603.377441,1117.606934 
	C3602.211670,1125.379517 3602.330078,1131.812012 3601.023438,1137.940918 
	C3587.976074,1199.144531 3554.460693,1245.969727 3500.708740,1277.838623 
	C3487.401367,1285.728516 3472.647705,1291.179443 3458.019043,1298.003296 
	C3458.019043,1753.992920 3458.019043,2210.744873 3458.019043,2667.469727 
	C3459.846191,2668.259277 3461.329346,2669.039795 3462.898926,2669.558105 
	C3496.763672,2680.744141 3525.510742,2699.721191 3549.703613,2725.888184 
	C3575.617920,2753.916504 3592.407227,2786.579346 3600.317871,2823.836670 
	C3601.871826,2831.155029 3602.788818,2838.608643 3604.000000,2846.000000 
	C3604.000000,2859.375244 3604.000000,2872.750732 3603.377441,2887.604004 
	C3602.103760,2895.359131 3601.965576,2901.739990 3600.720215,2907.896484 
	C3591.523193,2953.354492 3569.729980,2991.614746 3534.882324,3022.384766 
	C3488.835938,3063.043213 3434.864258,3079.149902 3374.277344,3073.357422 
	C3335.670654,3069.666260 3301.034912,3055.106934 3270.238037,3031.502930 
	C3265.829346,3028.123779 3261.434326,3024.727051 3257.058105,3021.357910 
	C2841.666992,3263.183350 2426.845703,3504.677002 2012.351318,3745.980469 
	C2011.627808,3751.497803 2011.005127,3756.418213 2010.334473,3761.332275 
	C2001.094971,3829.048096 1966.372559,3879.986816 1908.359497,3915.305664 
	C1884.177368,3930.027832 1857.451660,3937.844971 1828.857422,3942.023438 
	C1824.731812,3942.609375 1821.365845,3943.304688 1818.000000,3944.000000 
	C1809.286255,3944.000000 1800.572388,3944.000000 1790.464844,3943.380371 
	C1785.508179,3942.551270 1781.945557,3942.342041 1777.597656,3941.828369 
	C1774.532593,3941.111084 1772.260498,3940.647705 1769.971680,3940.292725 
	C1678.261475,3926.061279 1605.984009,3848.520020 1597.744141,3757.353271 
	C1597.030640,3749.459717 1593.966431,3744.330322 1586.867065,3740.232666 
	C1516.044189,3699.356934 1445.409302,3658.155762 1374.716553,3617.054688 
	C1250.868042,3545.049316 1126.982178,3473.108398 1003.175903,3401.030762 
	C895.451599,3338.315918 787.840210,3275.407227 680.133667,3212.661621 
	C576.448547,3152.259277 472.708923,3091.950439 368.979492,3031.624023 
	C362.769257,3028.011963 356.435822,3024.612061 350.589203,3021.352783 
	C298.873993,3065.947510 240.023834,3082.416016 174.294601,3071.360840 
	C90.805496,3057.317871 24.759403,2991.939697 7.609255,2908.703125 
	C5.905595,2900.434570 3.877511,2892.232666 2.000006,2884.000000 
	C2.000000,2873.955811 2.000000,2863.911621 2.678601,2852.649414 
	C4.099753,2847.500488 4.842304,2843.569824 5.620612,2839.066406 
	C5.681238,2837.730225 5.706108,2836.966064 5.961135,2835.685059 
	C6.146311,2834.793213 6.101331,2834.418701 6.176027,2833.245605 
	C22.264645,2749.636719 71.729942,2695.882080 149.755386,2667.250732 
	C149.755386,2210.151855 149.755386,1753.334106 149.755386,1296.590698 
	C131.224396,1290.268188 113.918777,1282.668213 98.058083,1272.034790 
	C49.942722,1239.777466 19.482250,1195.563477 7.611865,1138.709595 
	C5.885852,1130.442871 3.877625,1122.235107 1.999995,1114.000000 
	C2.000000,1103.955811 2.000000,1093.911621 2.678552,1082.649292 
	C4.099634,1077.500366 4.842164,1073.569580 5.620420,1069.066406 
	C5.681037,1067.729858 5.705928,1066.965576 5.960984,1065.684937 
	C6.146048,1064.794189 6.100947,1064.419922 6.175413,1063.255615 
	C6.784207,1059.869873 7.218585,1057.262695 7.770823,1054.680664 
	C17.497572,1009.204163 39.840919,970.832825 74.942795,940.620300 
	C124.131226,898.283569 181.625580,883.027466 245.579849,892.541138 
	C274.568909,896.853455 301.346741,907.618652 325.634583,924.101135 
	C335.464996,930.772400 344.772888,938.213623 354.574402,945.494507 
	C769.696655,713.907654 1184.767456,482.349518 1599.512817,250.972900 
	C1598.871338,242.856781 1598.299805,235.624069 1597.818359,227.900269 
	C1597.821899,226.672562 1597.434448,226.166321 1596.567993,224.979355 
	C1596.464111,214.078735 1596.538452,204.089233 1596.999512,193.782532 
	C1597.483154,192.826599 1597.580078,192.187851 1597.672607,190.686035 
	C1597.784424,174.333694 1601.336426,159.347061 1606.535156,145.035995 
	C1634.304932,68.593269 1687.782349,21.485031 1767.910767,5.305668 
	C1771.996460,4.480696 1775.972778,3.114323 1780.000000,2.000007 
M3190.253906,1076.417114 
	C3191.219971,1068.931030 3192.185791,1061.444946 3193.207520,1053.526855 
	C2778.568848,822.182129 2364.083740,590.923096 1949.126099,359.400360 
	C1924.831055,381.949097 1897.291626,398.753845 1865.669678,408.516724 
	C1865.669678,413.432251 1865.669800,417.411743 1865.669800,421.391266 
	C1865.669800,659.691589 1865.630371,897.991882 1865.724487,1136.292236 
	C1865.734985,1162.986328 1848.627930,1183.454712 1826.936157,1191.065674 
	C1816.513794,1194.722534 1805.878418,1194.794556 1795.335327,1193.957031 
	C1768.951660,1191.860962 1745.232788,1170.891724 1743.906860,1143.409302 
	C1743.819946,1142.674072 1743.433228,1142.167969 1742.390503,1140.061035 
	C1742.390503,896.194458 1742.390503,652.327942 1742.390503,410.038025 
	C1726.534668,402.369995 1711.653442,396.370392 1698.034424,388.253235 
	C1684.188477,380.000702 1671.586670,369.661041 1658.119385,360.005524 
	C1244.124634,590.991028 829.663452,822.236755 414.702637,1053.761230 
	C421.154358,1083.326782 420.401520,1112.624756 415.039642,1141.614014 
	C828.267090,1380.960571 1240.488159,1619.724243 1652.428101,1858.324951 
	C1662.719849,1850.977783 1672.165283,1843.619995 1682.200928,1837.182495 
	C1715.691895,1815.699951 1751.854614,1801.420166 1793.711548,1798.028564 
	C1805.198730,1797.968506 1816.686035,1797.908325 1829.836914,1798.101562 
	C1831.168579,1798.118042 1832.517944,1797.999512 1833.829468,1798.170654 
	C1872.612671,1803.230713 1907.643066,1817.190674 1937.879883,1842.342651 
	C1943.965210,1847.404541 1949.713501,1852.871460 1955.847900,1858.358032 
	C2368.653320,1619.252563 2781.229736,1380.279663 3193.381104,1141.553101 
	C3192.120850,1133.027588 3191.012207,1125.527588 3190.057373,1116.926270 
	C3189.890869,1116.595093 3189.724365,1116.264038 3189.651855,1114.071777 
	C3189.594482,1102.727417 3189.537109,1091.383057 3189.917725,1079.074463 
	C3189.880371,1078.723389 3189.843262,1078.372314 3190.253906,1076.417114 
M2010.120117,2020.465698 
	C2009.774292,2021.052124 2009.783691,2021.632812 2010.304443,2023.933472 
	C2008.247314,2050.515381 2000.230835,2075.326660 1987.771851,2098.752197 
	C1967.520874,2136.828857 1938.441650,2166.164062 1900.012207,2185.867188 
	C1889.118042,2191.452637 1877.613159,2195.846680 1865.669922,2201.103271 
	C1865.669922,2204.918213 1865.669922,2209.223145 1865.669922,2213.528076 
	C1865.669922,2650.503906 1865.669312,3087.479980 1865.678589,3524.455811 
	C1865.678711,3528.452637 1865.810547,3532.449707 1866.243286,3537.432617 
	C1866.894897,3537.550293 1867.546387,3537.668213 1869.695801,3537.881592 
	C1915.758179,3553.389648 1951.817749,3582.000977 1979.088257,3622.297852 
	C2384.415039,3386.216797 2789.199219,3150.451660 3193.191406,2915.147705 
	C3191.964844,2899.663086 3190.136963,2885.179199 3189.858643,2870.666016 
	C3189.580322,2856.133789 3190.849854,2841.572266 3191.461670,2826.511963 
	C3189.672363,2825.377686 3187.508057,2823.847168 3185.203857,2822.568848 
	C3154.676758,2805.633545 3124.127197,2788.738037 3093.588379,2771.823975 
	C3033.980957,2738.809814 2974.359131,2705.821533 2914.776123,2672.763428 
	C2858.377930,2641.472656 2802.040283,2610.072754 2745.643066,2578.780029 
	C2664.833984,2533.941895 2583.988281,2489.170166 2503.171143,2444.346680 
	C2419.741211,2398.074463 2336.326660,2351.775635 2252.907471,2305.483887 
	C2232.561279,2294.192871 2211.948730,2283.348389 2191.960449,2271.455078 
	C2171.422852,2259.235107 2161.370850,2240.333008 2161.785400,2216.523926 
	C2162.203613,2192.502686 2173.781982,2174.572266 2194.771973,2163.323975 
	C2215.615479,2152.153809 2236.332764,2154.511963 2256.614746,2165.799561 
	C2318.765869,2200.389160 2381.000977,2234.827637 2443.179443,2269.367920 
	C2494.921631,2298.110840 2546.593262,2326.980469 2598.362549,2355.674316 
	C2658.248291,2388.866699 2718.251709,2421.846680 2778.122070,2455.066650 
	C2858.650879,2499.749756 2939.092041,2544.590332 3019.587402,2589.333496 
	C3085.547119,2625.997070 3151.522461,2662.632080 3217.511719,2699.242188 
	C3228.798584,2705.503906 3240.190918,2711.574951 3251.948730,2717.958984 
	C3275.583252,2694.494629 3303.484375,2678.870361 3334.026855,2668.274414 
	C3334.026855,2210.504150 3334.026855,1753.597046 3334.026855,1296.202515 
	C3304.436768,1285.946655 3277.615479,1271.026367 3254.468018,1249.123657 
	C2839.343994,1489.564453 2424.561523,1729.807251 2010.216553,1969.796753 
	C2010.216553,1974.425415 2010.216553,1978.056885 2009.989746,1982.629517 
	C2010.041870,1983.357910 2010.410156,1983.849609 2011.586304,1985.904419 
	C2011.341064,1997.243896 2011.095825,2008.583252 2010.120117,2020.465698 
M419.628540,2859.869873 
	C419.503296,2865.210693 419.378052,2870.551758 418.447052,2876.476074 
	C418.032227,2877.079834 417.974365,2877.716064 418.324188,2880.155273 
	C417.136475,2891.595947 415.948730,2903.036621 414.720032,2914.872070 
	C819.414612,3150.591553 1224.081421,3386.294678 1628.962524,3622.122559 
	C1630.404541,3620.364746 1631.528076,3619.159180 1632.468262,3617.824463 
	C1643.038574,3602.813965 1654.875732,3588.953369 1669.056396,3577.191406 
	C1690.240356,3559.619629 1713.347778,3545.538574 1741.041748,3537.960449 
	C1741.768066,3537.709229 1742.130127,3537.199463 1742.301147,3534.508789 
	C1742.310791,3092.420898 1742.320801,2650.332764 1742.313110,2208.244873 
	C1742.313110,2205.625732 1742.061401,2203.006592 1741.941284,2200.661621 
	C1740.969849,2200.051270 1740.433228,2199.642822 1739.837524,2199.356934 
	C1738.938477,2198.925049 1738.014648,2198.531738 1737.073242,2198.202637 
	C1679.668213,2178.122070 1638.722412,2140.036133 1613.882324,2084.738770 
	C1604.157715,2063.090332 1597.902588,2040.403687 1597.908447,2015.408936 
	C1597.822144,2014.672607 1597.434814,2014.166382 1596.390869,2012.095215 
	C1596.464966,2004.763184 1596.539062,1997.431152 1597.386719,1989.465088 
	C1597.483521,1988.826416 1597.580444,1988.187866 1597.668823,1985.803589 
	C1597.668823,1980.535156 1597.668823,1975.266724 1597.668823,1969.511963 
	C1183.337036,1729.537231 768.854797,1489.475220 355.143951,1249.860107 
	C341.731171,1259.378052 329.829498,1269.095581 316.729309,1276.766113 
	C303.327454,1284.613037 288.750732,1290.453491 274.095581,1297.455322 
	C274.095581,1753.657471 274.095581,2210.828125 274.095581,2668.593262 
	C305.629242,2678.290283 332.652100,2695.398438 356.718964,2717.680908 
	C363.640503,2714.002686 370.404144,2710.546143 377.040375,2706.860596 
	C463.359711,2658.918213 549.644226,2610.913330 635.971252,2562.984619 
	C717.067444,2517.959961 798.207336,2473.013916 879.321594,2428.021729 
	C956.350159,2385.295898 1033.382446,2342.576904 1110.390015,2299.813477 
	C1169.971436,2266.726807 1229.505493,2233.555176 1289.084717,2200.464600 
	C1311.749023,2187.876709 1334.213867,2174.893311 1357.244629,2163.010498 
	C1389.941528,2146.140381 1430.584106,2161.878174 1442.824829,2196.170410 
	C1453.228882,2225.316895 1442.641479,2257.166748 1413.682983,2273.168213 
	C1357.814697,2304.039307 1301.991577,2334.992188 1246.168579,2365.945557 
	C1157.793823,2414.948242 1069.433105,2463.976318 981.068787,2512.997803 
	C895.609863,2560.407227 810.159424,2607.832520 724.694702,2655.231689 
	C633.708618,2705.693115 542.703796,2756.121094 451.725006,2806.595947 
	C439.597687,2813.323975 427.574371,2820.239746 416.191498,2826.679199 
	C416.957184,2837.059326 417.638947,2846.302246 418.221100,2856.542969 
	C418.609711,2857.062744 418.998352,2857.582764 419.628540,2859.869873 
z"/>
<path fill="#FFFFFF" opacity="1.000000" stroke="none" 
	d="
M5.730816,1066.201416 
	C5.705928,1066.965576 5.681037,1067.729858 5.016695,1069.286621 
	C3.584830,1070.052734 2.792414,1070.026367 1.999999,1070.000000 
	C2.000000,714.109436 2.000000,358.218842 2.000000,2.000000 
	C594.041748,2.000000 1186.083618,2.000000 1779.062744,2.000007 
	C1775.972778,3.114323 1771.996460,4.480696 1767.910767,5.305668 
	C1687.782349,21.485031 1634.304932,68.593269 1606.535156,145.035995 
	C1601.336426,159.347061 1597.784424,174.333694 1597.217285,190.966690 
	C1596.715210,192.773514 1596.663940,193.436615 1596.612671,194.099716 
	C1596.538452,204.089233 1596.464111,214.078735 1596.446045,225.468506 
	C1596.910889,227.376282 1597.319458,227.883804 1597.728027,228.391327 
	C1598.299805,235.624069 1598.871338,242.856781 1599.512817,250.972900 
	C1184.767456,482.349518 769.696655,713.907654 354.574402,945.494507 
	C344.772888,938.213623 335.464996,930.772400 325.634583,924.101135 
	C301.346741,907.618652 274.568909,896.853455 245.579849,892.541138 
	C181.625580,883.027466 124.131226,898.283569 74.942795,940.620300 
	C39.840919,970.832825 17.497572,1009.204163 7.770823,1054.680664 
	C7.218585,1057.262695 6.784207,1059.869873 5.877902,1063.426636 
	C5.376532,1064.600098 5.183930,1064.840210 5.229812,1065.018921 
	C5.335021,1065.428955 5.556520,1065.809082 5.730816,1066.201416 
z"/>
<path fill="#FFFFFF" opacity="1.000000" stroke="none" 
	d="
M3604.000000,1075.062744 
	C3603.503418,1074.862915 3602.648682,1073.752441 3602.562012,1072.584717 
	C3599.711914,1034.196411 3584.816650,1000.509216 3561.538086,970.491821 
	C3528.318359,927.655029 3484.721680,900.902527 3431.166260,892.591492 
	C3364.561768,882.255554 3305.678955,900.217896 3254.518799,945.914307 
	C2839.508545,714.391479 2424.162354,482.681396 2008.964600,251.054001 
	C2009.914917,239.618881 2011.080322,228.813782 2011.664673,217.977356 
	C2013.661743,180.935272 2005.787964,145.930481 1988.384277,113.282120 
	C1961.818115,63.445015 1921.360229,29.661379 1867.782593,12.038910 
	C1855.234741,7.911802 1841.922241,6.109829 1828.480713,2.619051 
	C2419.818359,2.000000 3011.636475,2.000000 3604.000000,2.000000 
	C3604.000000,359.374939 3604.000000,716.750122 3604.000000,1075.062744 
z"/>
<path fill="#FFFFFF" opacity="1.000000" stroke="none" 
	d="
M2.000006,2884.937256 
	C3.877511,2892.232666 5.905595,2900.434570 7.609255,2908.703125 
	C24.759403,2991.939697 90.805496,3057.317871 174.294601,3071.360840 
	C240.023834,3082.416016 298.873993,3065.947510 350.589203,3021.352783 
	C356.435822,3024.612061 362.769257,3028.011963 368.979492,3031.624023 
	C472.708923,3091.950439 576.448547,3152.259277 680.133667,3212.661621 
	C787.840210,3275.407227 895.451599,3338.315918 1003.175903,3401.030762 
	C1126.982178,3473.108398 1250.868042,3545.049316 1374.716553,3617.054688 
	C1445.409302,3658.155762 1516.044189,3699.356934 1586.867065,3740.232666 
	C1593.966431,3744.330322 1597.030640,3749.459717 1597.744141,3757.353271 
	C1605.984009,3848.520020 1678.261475,3926.061279 1769.971680,3940.292725 
	C1772.260498,3940.647705 1774.532593,3941.111084 1777.527588,3942.299805 
	C1778.242554,3943.075928 1778.000000,3944.000000 1778.000000,3944.000000 
	C1186.182617,3944.000000 594.365234,3944.000000 2.000000,3944.000000 
	C2.000000,3591.291748 2.000000,3238.583008 2.000006,2884.937256 
z"/>
<path fill="#FFFFFF" opacity="1.000000" stroke="none" 
	d="
M1829.617188,3942.132812 
	C1857.451660,3937.844971 1884.177368,3930.027832 1908.359497,3915.305664 
	C1966.372559,3879.986816 2001.094971,3829.048096 2010.334473,3761.332275 
	C2011.005127,3756.418213 2011.627808,3751.497803 2012.351318,3745.980469 
	C2426.845703,3504.677002 2841.666992,3263.183350 3257.058105,3021.357910 
	C3261.434326,3024.727051 3265.829346,3028.123779 3270.238037,3031.502930 
	C3301.034912,3055.106934 3335.670654,3069.666260 3374.277344,3073.357422 
	C3434.864258,3079.149902 3488.835938,3063.043213 3534.882324,3022.384766 
	C3569.729980,2991.614746 3591.523193,2953.354492 3600.720215,2907.896484 
	C3601.965576,2901.739990 3602.103760,2895.359131 3603.377441,2888.541016 
	C3604.000000,3239.891113 3604.000000,3591.782471 3604.000000,3944.000000 
	C3013.291504,3944.000000 2422.583008,3944.000000 1830.814453,3943.538818 
	C1829.754150,3943.077637 1829.617188,3942.132812 1829.617188,3942.132812 
z"/>
<path fill="#FFFFFF" opacity="1.000000" stroke="none" 
	d="
M1.999995,1114.937256 
	C3.877625,1122.235107 5.885852,1130.442871 7.611865,1138.709595 
	C19.482250,1195.563477 49.942722,1239.777466 98.058083,1272.034790 
	C113.918777,1282.668213 131.224396,1290.268188 149.755386,1296.590698 
	C149.755386,1753.334106 149.755386,2210.151855 149.755386,2667.250732 
	C71.729942,2695.882080 22.264645,2749.636719 5.878589,2833.416992 
	C5.377079,2834.599609 5.184244,2834.839600 5.230054,2835.018555 
	C5.335111,2835.428955 5.556709,2835.809570 5.730962,2836.202148 
	C5.706108,2836.966064 5.681238,2837.730225 5.016879,2839.286865 
	C3.584927,2840.052979 2.792464,2840.026367 2.000001,2840.000000 
	C2.000000,2265.291504 2.000000,1690.583130 1.999995,1114.937256 
z"/>
<path fill="#FFFFFF" opacity="1.000000" stroke="none" 
	d="
M3604.000000,2845.062744 
	C3602.788818,2838.608643 3601.871826,2831.155029 3600.317871,2823.836670 
	C3592.407227,2786.579346 3575.617920,2753.916504 3549.703613,2725.888184 
	C3525.510742,2699.721191 3496.763672,2680.744141 3462.898926,2669.558105 
	C3461.329346,2669.039795 3459.846191,2668.259277 3458.019043,2667.469727 
	C3458.019043,2210.744873 3458.019043,1753.992920 3458.019043,1298.003296 
	C3472.647705,1291.179443 3487.401367,1285.728516 3500.708740,1277.838623 
	C3554.460693,1245.969727 3587.976074,1199.144531 3601.023438,1137.940918 
	C3602.330078,1131.812012 3602.211670,1125.379517 3603.377441,1118.543945 
	C3604.000000,1693.375122 3604.000000,2268.750244 3604.000000,2845.062744 
z"/>
<path fill="#8595B5" opacity="1.000000" stroke="none" 
	d="
M2.000001,2840.856934 
	C2.792464,2840.026367 3.584927,2840.052979 4.981123,2839.859375 
	C4.842304,2843.569824 4.099753,2847.500488 2.678601,2851.715820 
	C2.000000,2848.571289 2.000000,2845.142578 2.000001,2840.856934 
z"/>
<path fill="#8595B5" opacity="1.000000" stroke="none" 
	d="
M1.999999,1070.856934 
	C2.792414,1070.026367 3.584830,1070.052734 4.980969,1069.858887 
	C4.842164,1073.569580 4.099634,1077.500366 2.678552,1081.715576 
	C2.000000,1078.571289 2.000000,1075.142578 1.999999,1070.856934 
z"/>
<path fill="#BC9FD0" opacity="1.000000" stroke="none" 
	d="
M1828.857422,3942.023438 
	C1829.617188,3942.132812 1829.754150,3943.077637 1829.877075,3943.538818 
	C1826.571289,3944.000000 1823.142578,3944.000000 1818.856934,3944.000000 
	C1821.365845,3943.304688 1824.731812,3942.609375 1828.857422,3942.023438 
z"/>
<path fill="#BC9FD0" opacity="1.000000" stroke="none" 
	d="
M1778.856934,3944.000000 
	C1778.000000,3944.000000 1778.242554,3943.075928 1778.312744,3942.604492 
	C1781.945557,3942.342041 1785.508179,3942.551270 1789.535400,3943.380371 
	C1786.571289,3944.000000 1783.142578,3944.000000 1778.856934,3944.000000 
z"/>
<path fill="#FFFFFF" opacity="1.000000" stroke="none" 
	d="
M1597.728271,2016.390747 
	C1597.902588,2040.403687 1604.157715,2063.090332 1613.882324,2084.738770 
	C1638.722412,2140.036133 1679.668213,2178.122070 1737.073242,2198.202637 
	C1738.014648,2198.531738 1738.938477,2198.925049 1739.837524,2199.356934 
	C1740.433228,2199.642822 1740.969849,2200.051270 1741.941284,2200.661621 
	C1742.061401,2203.006592 1742.313110,2205.625732 1742.313110,2208.244873 
	C1742.320801,2650.332764 1742.310791,3092.420898 1741.793945,3535.607666 
	C1740.750610,3536.996826 1740.336792,3537.409912 1740.045532,3537.945801 
	C1713.347778,3545.538574 1690.240356,3559.619629 1669.056396,3577.191406 
	C1654.875732,3588.953369 1643.038574,3602.813965 1632.468262,3617.824463 
	C1631.528076,3619.159180 1630.404541,3620.364746 1628.962524,3622.122559 
	C1224.081421,3386.294678 819.414612,3150.591553 414.720032,2914.872070 
	C415.948730,2903.036621 417.136475,2891.595947 418.703369,2878.970215 
	C419.139313,2877.154053 419.196075,2876.523438 419.252808,2875.892578 
	C419.378052,2870.551758 419.503296,2865.210693 419.661011,2858.473145 
	C419.235840,2856.565918 418.778259,2856.055420 418.320679,2855.544922 
	C417.638947,2846.302246 416.957184,2837.059326 416.191498,2826.679199 
	C427.574371,2820.239746 439.597687,2813.323975 451.725006,2806.595947 
	C542.703796,2756.121094 633.708618,2705.693115 724.694702,2655.231689 
	C810.159424,2607.832520 895.609863,2560.407227 981.068787,2512.997803 
	C1069.433105,2463.976318 1157.793823,2414.948242 1246.168579,2365.945557 
	C1301.991577,2334.992188 1357.814697,2304.039307 1413.682983,2273.168213 
	C1442.641479,2257.166748 1453.228882,2225.316895 1442.824829,2196.170410 
	C1430.584106,2161.878174 1389.941528,2146.140381 1357.244629,2163.010498 
	C1334.213867,2174.893311 1311.749023,2187.876709 1289.084717,2200.464600 
	C1229.505493,2233.555176 1169.971436,2266.726807 1110.390015,2299.813477 
	C1033.382446,2342.576904 956.350159,2385.295898 879.321594,2428.021729 
	C798.207336,2473.013916 717.067444,2517.959961 635.971252,2562.984619 
	C549.644226,2610.913330 463.359711,2658.918213 377.040375,2706.860596 
	C370.404144,2710.546143 363.640503,2714.002686 356.718964,2717.680908 
	C332.652100,2695.398438 305.629242,2678.290283 274.095581,2668.593262 
	C274.095581,2210.828125 274.095581,1753.657471 274.095581,1297.455322 
	C288.750732,1290.453491 303.327454,1284.613037 316.729309,1276.766113 
	C329.829498,1269.095581 341.731171,1259.378052 355.143951,1249.860107 
	C768.854797,1489.475220 1183.337036,1729.537231 1597.668823,1969.511963 
	C1597.668823,1975.266724 1597.668823,1980.535156 1597.218018,1986.957031 
	C1596.715942,1988.773438 1596.664551,1989.436279 1596.613159,1990.099121 
	C1596.539062,1997.431152 1596.464966,2004.763184 1596.447021,2013.481934 
	C1596.911621,2015.375854 1597.319946,2015.883301 1597.728271,2016.390747 
M1317.735474,2957.942627 
	C1317.735474,2957.942627 1317.960693,2958.035645 1316.101562,2957.867920 
	C1300.837280,2957.882324 1285.571533,2957.790527 1270.310425,2958.014648 
	C1267.755005,2958.052002 1265.219727,2959.459473 1262.384155,2962.058350 
	C1262.394287,3005.919678 1262.404419,3049.780762 1263.482300,3094.840576 
	C1267.072510,3095.227051 1270.661743,3095.938477 1274.253052,3095.948975 
	C1305.181763,3096.037598 1336.110962,3096.000000 1367.039917,3096.000000 
	C1465.813110,3096.000000 1564.586426,3096.028076 1663.359497,3095.900146 
	C1667.436401,3095.894775 1671.511353,3094.426514 1675.653564,3091.811523 
	C1675.657349,2850.236816 1675.662354,2608.661865 1675.651245,2367.087158 
	C1675.651123,2364.095703 1675.444946,2361.104004 1675.581177,2357.140625 
	C1675.031860,2356.867920 1674.482544,2356.595215 1672.644165,2355.638428 
	C1668.380737,2353.820068 1664.112061,2352.013672 1659.854492,2350.181641 
	C1611.326538,2329.298584 1569.681763,2298.828125 1533.669067,2258.669678 
	C1531.927856,2257.729736 1530.323975,2257.071777 1530.367065,2262.028076 
	C1530.356445,2389.333008 1530.335449,2516.637939 1530.340576,2643.942871 
	C1530.342285,2686.599121 1530.410278,2729.255615 1529.948486,2772.914062 
	C1529.998413,2773.284180 1530.048218,2773.654053 1529.729492,2775.777588 
	C1529.265747,2782.366699 1529.147827,2789.002441 1528.271729,2795.536133 
	C1525.901245,2813.212158 1524.040894,2831.014404 1520.483643,2848.461914 
	C1510.934204,2895.298340 1481.767700,2924.927490 1437.206909,2940.100586 
	C1405.257446,2950.979736 1372.131714,2955.101074 1336.685547,2956.002930 
	C1330.395264,2956.572510 1324.104980,2957.142334 1317.735474,2957.942627 
M1049.742310,1915.920166 
	C1055.158691,1859.391113 1064.702515,1803.682007 1083.805664,1749.686768 
	C1027.599243,1718.795044 972.194702,1688.343872 915.663208,1657.273560 
	C915.663208,1661.495361 915.663208,1663.813721 915.663208,1666.131958 
	C915.663269,1747.748535 915.660156,1829.365234 915.679199,1910.981812 
	C915.679749,1913.304077 915.915405,1915.626465 917.302856,1919.025269 
	C919.243530,1919.345703 921.183777,1919.942871 923.124939,1919.945801 
	C962.545166,1920.003174 1001.965637,1920.039185 1041.385376,1919.894165 
	C1044.122559,1919.884155 1046.854492,1918.426270 1049.742310,1915.920166 
z"/>
<path fill="#FFFFFF" opacity="1.000000" stroke="none" 
	d="
M1865.880859,3536.446533 
	C1865.810547,3532.449707 1865.678711,3528.452637 1865.678589,3524.455811 
	C1865.669312,3087.479980 1865.669922,2650.503906 1865.669922,2213.528076 
	C1865.669922,2209.223145 1865.669922,2204.918213 1865.669922,2201.103271 
	C1877.613159,2195.846680 1889.118042,2191.452637 1900.012207,2185.867188 
	C1938.441650,2166.164062 1967.520874,2136.828857 1987.771851,2098.752197 
	C2000.230835,2075.326660 2008.247314,2050.515381 2010.493408,2022.748291 
	C2010.922363,2021.035400 2010.978516,2020.488525 2010.850586,2019.922729 
	C2011.095825,2008.583252 2011.341064,1997.243896 2011.410156,1984.546631 
	C2011.112915,1982.540894 2010.773682,1982.040771 2010.216553,1981.688354 
	C2010.216553,1978.056885 2010.216553,1974.425415 2010.216553,1969.796753 
	C2424.561523,1729.807251 2839.343994,1489.564453 3254.468018,1249.123657 
	C3277.615479,1271.026367 3304.436768,1285.946655 3334.026855,1296.202515 
	C3334.026855,1753.597046 3334.026855,2210.504150 3334.026855,2668.274414 
	C3303.484375,2678.870361 3275.583252,2694.494629 3251.948730,2717.958984 
	C3240.190918,2711.574951 3228.798584,2705.503906 3217.511719,2699.242188 
	C3151.522461,2662.632080 3085.547119,2625.997070 3019.587402,2589.333496 
	C2939.092041,2544.590332 2858.650879,2499.749756 2778.122070,2455.066650 
	C2718.251709,2421.846680 2658.248291,2388.866699 2598.362549,2355.674316 
	C2546.593262,2326.980469 2494.921631,2298.110840 2443.179443,2269.367920 
	C2381.000977,2234.827637 2318.765869,2200.389160 2256.614746,2165.799561 
	C2236.332764,2154.511963 2215.615479,2152.153809 2194.771973,2163.323975 
	C2173.781982,2174.572266 2162.203613,2192.502686 2161.785400,2216.523926 
	C2161.370850,2240.333008 2171.422852,2259.235107 2191.960449,2271.455078 
	C2211.948730,2283.348389 2232.561279,2294.192871 2252.907471,2305.483887 
	C2336.326660,2351.775635 2419.741211,2398.074463 2503.171143,2444.346680 
	C2583.988281,2489.170166 2664.833984,2533.941895 2745.643066,2578.780029 
	C2802.040283,2610.072754 2858.377930,2641.472656 2914.776123,2672.763428 
	C2974.359131,2705.821533 3033.980957,2738.809814 3093.588379,2771.823975 
	C3124.127197,2788.738037 3154.676758,2805.633545 3185.203857,2822.568848 
	C3187.508057,2823.847168 3189.672363,2825.377686 3191.461670,2826.511963 
	C3190.849854,2841.572266 3189.580322,2856.133789 3189.858643,2870.666016 
	C3190.136963,2885.179199 3191.964844,2899.663086 3193.191406,2915.147705 
	C2789.199219,3150.451660 2384.415039,3386.216797 1979.088257,3622.297852 
	C1951.817749,3582.000977 1915.758179,3553.389648 1868.627686,3537.509766 
	C1867.045776,3536.796387 1866.486206,3536.565918 1865.880859,3536.446533 
M2292.796143,2956.853027 
	C2286.279053,2956.674561 2279.762207,2956.496338 2271.621582,2956.235352 
	C2267.819336,2956.119141 2264.017090,2956.002686 2258.936768,2954.892822 
	C2255.112061,2954.657471 2251.287354,2954.422119 2245.727051,2954.175049 
	C2218.765869,2952.147217 2192.327637,2947.483398 2167.031738,2937.667969 
	C2125.780029,2921.661133 2100.109863,2892.087646 2090.280762,2848.821045 
	C2083.632324,2819.554199 2080.605957,2789.773193 2080.531006,2759.933350 
	C2080.118408,2595.295166 2080.333740,2430.655518 2080.333740,2266.016357 
	C2080.333740,2262.513428 2080.333740,2259.010498 2080.333740,2255.507568 
	C2039.080566,2299.866455 1991.593872,2333.576660 1935.666016,2355.622559 
	C1935.666016,2359.841797 1935.666138,2363.469238 1935.666138,2367.096680 
	C1935.666138,2605.723633 1935.664551,2844.350342 1935.681763,3082.977295 
	C1935.682129,3086.633789 1935.917114,3090.290527 1937.303223,3095.024414 
	C1940.915527,3095.349609 1944.527100,3095.947998 1948.140259,3095.957031 
	C1978.412231,3096.032715 2008.684692,3096.000000 2038.956909,3096.000000 
	C2138.422852,3096.000000 2237.888916,3096.027832 2337.354736,3095.900146 
	C2341.433105,3095.894775 2345.509521,3094.427002 2349.653809,3091.812256 
	C2349.657715,3078.518311 2349.697510,3065.224365 2349.657959,3051.930420 
	C2349.567139,3021.362061 2349.437744,2990.793945 2348.849854,2958.604248 
	C2330.573730,2958.463379 2312.297852,2958.322754 2294.213623,2958.067871 
	C2294.213623,2958.067871 2294.113037,2957.868408 2292.796143,2956.853027 
M2693.656494,1915.813354 
	C2693.656494,1828.024170 2693.656494,1740.234985 2693.656494,1650.246216 
	C2636.583252,1683.916870 2581.246582,1716.562988 2525.759277,1749.297852 
	C2526.122559,1751.394775 2526.191162,1753.060913 2526.705566,1754.575562 
	C2542.039062,1799.713379 2551.571289,1846.080322 2556.436523,1893.464844 
	C2557.278320,1901.663696 2558.823730,1909.790405 2561.305176,1919.026489 
	C2563.245850,1919.346558 2565.186279,1919.943237 2567.127441,1919.946045 
	C2606.546875,1920.003418 2645.966553,1920.039307 2685.385254,1919.894165 
	C2688.122559,1919.884155 2690.854248,1918.426392 2693.656494,1915.813354 
z"/>
<path fill="#FFFFFF" opacity="1.000000" stroke="none" 
	d="
M3189.903564,1118.027588 
	C3191.012207,1125.527588 3192.120850,1133.027588 3193.381104,1141.553101 
	C2781.229736,1380.279663 2368.653320,1619.252563 1955.847900,1858.358032 
	C1949.713501,1852.871460 1943.965210,1847.404541 1937.879883,1842.342651 
	C1907.643066,1817.190674 1872.612671,1803.230713 1833.829468,1798.170654 
	C1832.517944,1797.999512 1831.168579,1798.118042 1828.333008,1797.455566 
	C1818.628052,1796.533569 1810.426270,1796.043213 1802.226807,1796.082153 
	C1798.753540,1796.098877 1795.285767,1797.227661 1791.815430,1797.851074 
	C1751.854614,1801.420166 1715.691895,1815.699951 1682.200928,1837.182495 
	C1672.165283,1843.619995 1662.719849,1850.977783 1652.428101,1858.324951 
	C1240.488159,1619.724243 828.267090,1380.960571 415.039642,1141.614014 
	C420.401520,1112.624756 421.154358,1083.326782 414.702637,1053.761230 
	C829.663452,822.236755 1244.124634,590.991028 1658.119385,360.005524 
	C1671.586670,369.661041 1684.188477,380.000702 1698.034424,388.253235 
	C1711.653442,396.370392 1726.534668,402.369995 1742.390503,410.038025 
	C1742.390503,652.327942 1742.390503,896.194458 1742.448486,1141.464722 
	C1742.913696,1143.375732 1743.321045,1143.883179 1743.728271,1144.390503 
	C1745.232788,1170.891724 1768.951660,1191.860962 1795.335327,1193.957031 
	C1805.878418,1194.794556 1816.513794,1194.722534 1826.936157,1191.065674 
	C1848.627930,1183.454712 1865.734985,1162.986328 1865.724487,1136.292236 
	C1865.630371,897.991882 1865.669800,659.691589 1865.669800,421.391266 
	C1865.669800,417.411743 1865.669678,413.432251 1865.669678,408.516724 
	C1897.291626,398.753845 1924.831055,381.949097 1949.126099,359.400360 
	C2364.083740,590.923096 2778.568848,822.182129 3193.207520,1053.526855 
	C3192.185791,1061.444946 3191.219971,1068.931030 3189.735352,1077.376221 
	C3188.773682,1078.993408 3188.861328,1079.561157 3189.479736,1080.038696 
	C3189.537109,1091.383057 3189.594482,1102.727417 3189.380371,1115.246338 
	C3188.960205,1117.173096 3189.225098,1117.708618 3189.903564,1118.027588 
M2072.037598,1474.107178 
	C2077.674561,1474.071411 2083.311768,1474.019165 2088.948730,1474.002686 
	C2124.760986,1473.898438 2160.573242,1473.802002 2198.163818,1473.887329 
	C2204.845703,1473.884277 2211.527832,1473.881226 2219.936279,1474.137451 
	C2241.648438,1476.755127 2263.487061,1478.605225 2285.045654,1482.154541 
	C2326.317627,1488.949341 2365.679199,1501.835693 2402.192139,1522.578247 
	C2406.600098,1525.082275 2409.973389,1524.999023 2414.104736,1522.494507 
	C2423.764404,1516.638428 2433.588623,1511.053101 2443.364502,1505.389526 
	C2526.207520,1457.395752 2609.054932,1409.409180 2692.756104,1361.380249 
	C2693.356445,1361.007568 2693.492188,1360.508545 2693.592773,1358.068115 
	C2693.510498,1334.110229 2693.428223,1310.152466 2693.609619,1285.289795 
	C2693.406494,1284.522583 2692.923096,1284.246216 2690.313232,1284.068237 
	C2688.980957,1284.046265 2687.648682,1284.005005 2686.316406,1284.005005 
	C2415.808594,1284.001831 2145.300781,1284.000122 1874.792969,1284.020264 
	C1871.808716,1284.020508 1868.824585,1284.307495 1864.904419,1284.508057 
	C1864.302734,1284.994751 1864.218994,1285.558838 1864.380371,1288.031372 
	C1864.365112,1399.626587 1864.347290,1511.221924 1864.354004,1622.817139 
	C1864.354248,1625.134521 1864.642212,1627.451782 1864.864258,1630.891113 
	C1865.917236,1631.112671 1866.970337,1631.334229 1869.579712,1632.017822 
	C1923.281372,1641.763550 1972.482788,1662.345581 2016.352417,1694.771118 
	C2033.602661,1707.521240 2049.337646,1722.321655 2066.118652,1737.121338 
	C2066.535400,1736.683960 2066.952393,1736.246582 2067.622070,1733.974243 
	C2067.636719,1688.645264 2067.635742,1643.316162 2067.684814,1597.987183 
	C2067.691406,1592.000244 2067.955566,1586.013672 2068.680664,1579.686523 
	C2068.771729,1579.483032 2068.973145,1579.252563 2068.931396,1579.081299 
	C2068.833008,1578.677734 2068.618652,1578.302612 2068.351562,1576.054443 
	C2068.453125,1542.103027 2068.554688,1508.151489 2069.420166,1474.369751 
	C2069.420166,1474.369751 2070.190918,1474.233398 2072.037598,1474.107178 
M1413.812988,1473.978760 
	C1455.839111,1473.991089 1497.865356,1474.003418 1540.270020,1475.855103 
	C1540.285889,1517.086914 1540.301758,1558.318848 1540.203613,1600.548462 
	C1540.592529,1601.067383 1540.981445,1601.586304 1541.622437,1603.951050 
	C1541.636719,1608.922119 1541.652588,1613.893066 1541.664795,1618.864136 
	C1541.760132,1657.966797 1541.854736,1697.069336 1542.192627,1737.056885 
	C1542.779785,1736.711670 1543.367065,1736.366455 1544.502930,1734.787231 
	C1599.684082,1680.332397 1664.985962,1644.999023 1742.334839,1631.229248 
	C1742.334839,1627.005493 1742.334839,1623.411255 1742.334839,1619.817017 
	C1742.334839,1511.869385 1742.338745,1403.921631 1742.316162,1295.973999 
	C1742.315430,1292.655396 1742.039795,1289.336792 1741.197754,1284.422485 
	C1737.547485,1284.281982 1733.897095,1284.018677 1730.246826,1284.018433 
	C1462.834839,1283.999268 1195.422852,1284.000854 928.010925,1284.002808 
	C925.013977,1284.002808 922.002258,1283.867798 919.028137,1284.135986 
	C918.006409,1284.228149 917.078491,1285.360840 915.729309,1287.856934 
	C915.729309,1312.135620 915.729309,1336.414429 915.729309,1361.000854 
	C1010.807861,1416.086670 1105.575684,1470.992554 1200.505005,1525.991943 
	C1251.496094,1495.952148 1307.461792,1482.022583 1367.446167,1476.062134 
	C1371.147583,1475.433472 1374.848999,1474.804810 1380.155518,1474.176636 
	C1383.363892,1474.078003 1386.572388,1473.979248 1391.645874,1474.051758 
	C1398.408081,1473.992676 1405.170288,1473.933594 1413.812988,1473.978760 
z"/>
<path fill="#BC9FD0" opacity="1.000000" stroke="none" 
	d="
M1792.763428,1797.939697 
	C1795.285767,1797.227661 1798.753540,1796.098877 1802.226807,1796.082153 
	C1810.426270,1796.043213 1818.628052,1796.533569 1827.501099,1797.328979 
	C1816.686035,1797.908325 1805.198730,1797.968506 1792.763428,1797.939697 
z"/>
<path fill="#506E9B" opacity="1.000000" stroke="none" 
	d="
M418.849945,2876.184326 
	C419.196075,2876.523438 419.139313,2877.154053 418.677979,2878.084961 
	C417.974365,2877.716064 418.032227,2877.079834 418.849945,2876.184326 
z"/>
<path fill="#506E9B" opacity="1.000000" stroke="none" 
	d="
M1866.062012,3536.939453 
	C1866.486206,3536.565918 1867.045776,3536.796387 1867.878784,3537.461914 
	C1867.546387,3537.668213 1866.894897,3537.550293 1866.062012,3536.939453 
z"/>
<path fill="#506E9B" opacity="1.000000" stroke="none" 
	d="
M1740.543701,3537.953125 
	C1740.336792,3537.409912 1740.750610,3536.996826 1741.707275,3536.568604 
	C1742.130127,3537.199463 1741.768066,3537.709229 1740.543701,3537.953125 
z"/>
<path fill="#506E9B" opacity="1.000000" stroke="none" 
	d="
M1596.999512,193.782532 
	C1596.663940,193.436615 1596.715210,192.773514 1597.221680,191.829742 
	C1597.580078,192.187851 1597.483154,192.826599 1596.999512,193.782532 
z"/>
<path fill="#506E9B" opacity="1.000000" stroke="none" 
	d="
M1743.817627,1143.899902 
	C1743.321045,1143.883179 1742.913696,1143.375732 1742.626709,1142.379639 
	C1743.433228,1142.167969 1743.819946,1142.674072 1743.817627,1143.899902 
z"/>
<path fill="#506E9B" opacity="1.000000" stroke="none" 
	d="
M1597.818237,227.900269 
	C1597.319458,227.883804 1596.910889,227.376282 1596.624268,226.379608 
	C1597.434448,226.166321 1597.821899,226.672562 1597.818237,227.900269 
z"/>
<path fill="#506E9B" opacity="1.000000" stroke="none" 
	d="
M418.270874,2856.043945 
	C418.778259,2856.055420 419.235840,2856.565918 419.540222,2857.589355 
	C418.998352,2857.582764 418.609711,2857.062744 418.270874,2856.043945 
z"/>
<path fill="#BFD0E8" opacity="1.000000" stroke="none" 
	d="
M3189.980469,1117.476929 
	C3189.225098,1117.708618 3188.960205,1117.173096 3189.333496,1116.176880 
	C3189.724365,1116.264038 3189.890869,1116.595093 3189.980469,1117.476929 
z"/>
<path fill="#8595B5" opacity="1.000000" stroke="none" 
	d="
M5.961119,2835.685059 
	C5.556709,2835.809570 5.335111,2835.428955 5.230054,2835.018555 
	C5.184244,2834.839600 5.377079,2834.599609 5.758912,2834.215820 
	C6.101331,2834.418701 6.146311,2834.793213 5.961119,2835.685059 
z"/>
<path fill="#8595B5" opacity="1.000000" stroke="none" 
	d="
M5.960979,1065.684937 
	C5.556520,1065.809082 5.335021,1065.428955 5.229812,1065.018921 
	C5.183930,1064.840210 5.376532,1064.600098 5.758337,1064.216797 
	C6.100947,1064.419922 6.146048,1064.794189 5.960979,1065.684937 
z"/>
<path fill="#BFD0E8" opacity="1.000000" stroke="none" 
	d="
M3189.698730,1079.556641 
	C3188.861328,1079.561157 3188.773682,1078.993408 3189.511230,1078.178467 
	C3189.843262,1078.372314 3189.880371,1078.723389 3189.698730,1079.556641 
z"/>
<path fill="#506E9B" opacity="1.000000" stroke="none" 
	d="
M2010.485352,2020.194214 
	C2010.978516,2020.488525 2010.922363,2021.035400 2010.415283,2021.885498 
	C2009.783691,2021.632812 2009.774292,2021.052124 2010.485352,2020.194214 
z"/>
<path fill="#506E9B" opacity="1.000000" stroke="none" 
	d="
M1597.818359,2015.899902 
	C1597.319946,2015.883301 1596.911621,2015.375854 1596.624878,2014.379517 
	C1597.434814,2014.166382 1597.822144,2014.672607 1597.818359,2015.899902 
z"/>
<path fill="#506E9B" opacity="1.000000" stroke="none" 
	d="
M1597.000000,1989.782104 
	C1596.664551,1989.436279 1596.715942,1988.773438 1597.222412,1987.829834 
	C1597.580444,1988.187866 1597.483521,1988.826416 1597.000000,1989.782104 
z"/>
<path fill="#506E9B" opacity="1.000000" stroke="none" 
	d="
M2010.103149,1982.158936 
	C2010.773682,1982.040771 2011.112915,1982.540894 2011.164307,1983.646606 
	C2010.410156,1983.849609 2010.041870,1983.357910 2010.103149,1982.158936 
z"/>
<path fill="#0043A4" opacity="1.000000" stroke="none" 
	d="
M1530.447998,2771.911865 
	C1530.410278,2729.255615 1530.342285,2686.599121 1530.340576,2643.942871 
	C1530.335449,2516.637939 1530.356445,2389.333008 1531.057129,2261.095215 
	C1532.535278,2260.073975 1533.323486,2259.985840 1534.111572,2259.897461 
	C1569.681763,2298.828125 1611.326538,2329.298584 1659.854492,2350.181641 
	C1664.112061,2352.013672 1668.380737,2353.820068 1673.386475,2356.373535 
	C1674.352295,2357.658203 1674.754272,2357.992676 1675.334839,2358.112549 
	C1675.444946,2361.104004 1675.651123,2364.095703 1675.651245,2367.087158 
	C1675.662354,2608.661865 1675.657349,2850.236816 1674.723389,3092.824219 
	C1671.797974,3093.891602 1669.802734,3093.993652 1667.807495,3093.993652 
	C1535.666748,3094.001221 1403.526001,3094.002686 1271.385254,3093.985352 
	C1268.395020,3093.985107 1265.404785,3093.761475 1262.414551,3093.642090 
	C1262.404419,3049.780762 1262.394287,3005.919678 1263.423218,2961.094238 
	C1278.771240,2960.048340 1293.082520,2960.082275 1307.387695,2959.803955 
	C1310.922119,2959.735107 1314.436890,2958.652100 1317.960693,2958.035645 
	C1317.960693,2958.035645 1317.735474,2957.942627 1318.674072,2957.946777 
	C1325.924194,2957.361572 1332.235474,2956.772705 1338.546875,2956.183594 
	C1372.131714,2955.101074 1405.257446,2950.979736 1437.206909,2940.100586 
	C1481.767700,2924.927490 1510.934204,2895.298340 1520.483643,2848.461914 
	C1524.040894,2831.014404 1525.901245,2813.212158 1528.271729,2795.536133 
	C1529.147827,2789.002441 1529.265747,2782.366699 1530.203125,2774.729980 
	C1530.767456,2773.479004 1530.968262,2773.248535 1530.926636,2773.077148 
	C1530.828491,2772.673584 1530.614868,2772.298584 1530.447998,2771.911865 
z"/>
<path fill="#0143A4" opacity="1.000000" stroke="none" 
	d="
M916.041443,1917.948730 
	C915.915405,1915.626465 915.679749,1913.304077 915.679199,1910.981812 
	C915.660156,1829.365234 915.663269,1747.748535 915.663208,1666.131958 
	C915.663208,1663.813721 915.663208,1661.495361 915.663208,1657.273560 
	C972.194702,1688.343872 1027.599243,1718.795044 1083.805664,1749.686768 
	C1064.702515,1803.682007 1055.158691,1859.391113 1048.768555,1916.879883 
	C1003.877014,1917.876099 959.959229,1917.912354 916.041443,1917.948730 
z"/>
<path fill="#BFFFFF" opacity="1.000000" stroke="none" 
	d="
M1262.948486,3094.241211 
	C1265.404785,3093.761475 1268.395020,3093.985107 1271.385254,3093.985352 
	C1403.526001,3094.002686 1535.666748,3094.001221 1667.807495,3093.993652 
	C1669.802734,3093.993652 1671.797974,3093.891602 1674.690186,3093.738525 
	C1671.511353,3094.426514 1667.436401,3095.894775 1663.359497,3095.900146 
	C1564.586426,3096.028076 1465.813110,3096.000000 1367.039917,3096.000000 
	C1336.110962,3096.000000 1305.181763,3096.037598 1274.253052,3095.948975 
	C1270.661743,3095.938477 1267.072510,3095.227051 1262.948486,3094.241211 
z"/>
<path fill="#BFFFFF" opacity="1.000000" stroke="none" 
	d="
M916.672119,1918.487061 
	C959.959229,1917.912354 1003.877014,1917.876099 1048.691895,1917.740723 
	C1046.854492,1918.426270 1044.122559,1919.884155 1041.385376,1919.894165 
	C1001.965637,1920.039185 962.545166,1920.003174 923.124939,1919.945801 
	C921.183777,1919.942871 919.243530,1919.345703 916.672119,1918.487061 
z"/>
<path fill="#4065B4" opacity="1.000000" stroke="none" 
	d="
M1317.031128,2957.951660 
	C1314.436890,2958.652100 1310.922119,2959.735107 1307.387695,2959.803955 
	C1293.082520,2960.082275 1278.771240,2960.048340 1263.568726,2960.182129 
	C1265.219727,2959.459473 1267.755005,2958.052002 1270.310425,2958.014648 
	C1285.571533,2957.790527 1300.837280,2957.882324 1317.031128,2957.951660 
z"/>
<path fill="#BC9FD0" opacity="1.000000" stroke="none" 
	d="
M1337.616211,2956.093262 
	C1332.235474,2956.772705 1325.924194,2957.361572 1318.713745,2957.831543 
	C1324.104980,2957.142334 1330.395264,2956.572510 1337.616211,2956.093262 
z"/>
<path fill="#4072BB" opacity="1.000000" stroke="none" 
	d="
M1533.890381,2259.283691 
	C1533.323486,2259.985840 1532.535278,2260.073975 1531.151855,2260.173828 
	C1530.323975,2257.071777 1531.927856,2257.729736 1533.890381,2259.283691 
z"/>
<path fill="#4072BB" opacity="1.000000" stroke="none" 
	d="
M1530.198242,2772.413086 
	C1530.614868,2772.298584 1530.828491,2772.673584 1530.926636,2773.077148 
	C1530.968262,2773.248535 1530.767456,2773.479004 1530.387451,2773.853027 
	C1530.048218,2773.654053 1529.998413,2773.284180 1530.198242,2772.413086 
z"/>
<path fill="#4072BB" opacity="1.000000" stroke="none" 
	d="
M1675.458008,2357.626465 
	C1674.754272,2357.992676 1674.352295,2357.658203 1674.031006,2356.715820 
	C1674.482544,2356.595215 1675.031860,2356.867920 1675.458008,2357.626465 
z"/>
<path fill="#0043A4" opacity="1.000000" stroke="none" 
	d="
M1936.042603,3093.947021 
	C1935.917114,3090.290527 1935.682129,3086.633789 1935.681763,3082.977295 
	C1935.664551,2844.350342 1935.666138,2605.723633 1935.666138,2367.096680 
	C1935.666138,2363.469238 1935.666016,2359.841797 1935.666016,2355.622559 
	C1991.593872,2333.576660 2039.080566,2299.866455 2080.333740,2255.507568 
	C2080.333740,2259.010498 2080.333740,2262.513428 2080.333740,2266.016357 
	C2080.333740,2430.655518 2080.118408,2595.295166 2080.531006,2759.933350 
	C2080.605957,2789.773193 2083.632324,2819.554199 2090.280762,2848.821045 
	C2100.109863,2892.087646 2125.780029,2921.661133 2167.031738,2937.667969 
	C2192.327637,2947.483398 2218.765869,2952.147217 2247.208984,2954.742188 
	C2252.531982,2955.501465 2256.373535,2955.693848 2260.214844,2955.886230 
	C2264.017090,2956.002686 2267.819336,2956.119141 2273.090332,2956.876465 
	C2281.077148,2957.634521 2287.595215,2957.751465 2294.113037,2957.868408 
	C2294.113037,2957.868408 2294.213623,2958.067871 2294.800293,2958.576172 
	C2298.957764,2959.351562 2302.525879,2959.805420 2306.099609,2959.853027 
	C2320.506592,2960.045410 2334.915771,2960.112305 2349.323975,2960.225586 
	C2349.437744,2990.793945 2349.567139,3021.362061 2349.657959,3051.930420 
	C2349.697510,3065.224365 2349.657715,3078.518311 2348.723145,3092.824707 
	C2346.461670,3093.890869 2345.131104,3093.991455 2343.800293,3093.991455 
	C2207.881104,3093.981689 2071.961914,3093.964111 1936.042603,3093.947021 
z"/>
<path fill="#0143A4" opacity="1.000000" stroke="none" 
	d="
M2560.043945,1917.950439 
	C2558.823730,1909.790405 2557.278320,1901.663696 2556.436523,1893.464844 
	C2551.571289,1846.080322 2542.039062,1799.713379 2526.705566,1754.575562 
	C2526.191162,1753.060913 2526.122559,1751.394775 2525.759277,1749.297852 
	C2581.246582,1716.562988 2636.583252,1683.916870 2693.656494,1650.246216 
	C2693.656494,1740.234985 2693.656494,1828.024170 2692.725586,1916.826538 
	C2647.877686,1917.876587 2603.960938,1917.913452 2560.043945,1917.950439 
z"/>
<path fill="#BFFFFF" opacity="1.000000" stroke="none" 
	d="
M1936.672852,3094.485840 
	C2071.961914,3093.964111 2207.881104,3093.981689 2343.800293,3093.991455 
	C2345.131104,3093.991455 2346.461670,3093.890869 2348.689453,3093.739014 
	C2345.509521,3094.427002 2341.433105,3095.894775 2337.354736,3095.900146 
	C2237.888916,3096.027832 2138.422852,3096.000000 2038.956909,3096.000000 
	C2008.684692,3096.000000 1978.412231,3096.032715 1948.140259,3095.957031 
	C1944.527100,3095.947998 1940.915527,3095.349609 1936.672852,3094.485840 
z"/>
<path fill="#BFFFFF" opacity="1.000000" stroke="none" 
	d="
M2560.674805,1918.488525 
	C2603.960938,1917.913452 2647.877686,1917.876587 2692.691406,1917.740723 
	C2690.854248,1918.426392 2688.122559,1919.884155 2685.385254,1919.894165 
	C2645.966553,1920.039307 2606.546875,1920.003418 2567.127441,1919.946045 
	C2565.186279,1919.943237 2563.245850,1919.346558 2560.674805,1918.488525 
z"/>
<path fill="#4065B4" opacity="1.000000" stroke="none" 
	d="
M2349.086914,2959.415039 
	C2334.915771,2960.112305 2320.506592,2960.045410 2306.099609,2959.853027 
	C2302.525879,2959.805420 2298.957764,2959.351562 2294.704346,2958.633301 
	C2312.297852,2958.322754 2330.573730,2958.463379 2349.086914,2959.415039 
z"/>
<path fill="#BC9FD0" opacity="1.000000" stroke="none" 
	d="
M2293.454590,2957.360840 
	C2287.595215,2957.751465 2281.077148,2957.634521 2273.902344,2956.917725 
	C2279.762207,2956.496338 2286.279053,2956.674561 2293.454590,2957.360840 
z"/>
<path fill="#BC9FD0" opacity="1.000000" stroke="none" 
	d="
M2259.575684,2955.389648 
	C2256.373535,2955.693848 2252.531982,2955.501465 2248.076660,2954.747803 
	C2251.287354,2954.422119 2255.112061,2954.657471 2259.575684,2955.389648 
z"/>
<path fill="#0043A4" opacity="1.000000" stroke="none" 
	d="
M2691.900879,1361.420410 
	C2609.054932,1409.409180 2526.207520,1457.395752 2443.364502,1505.389526 
	C2433.588623,1511.053101 2423.764404,1516.638428 2414.104736,1522.494507 
	C2409.973389,1524.999023 2406.600098,1525.082275 2402.192139,1522.578247 
	C2365.679199,1501.835693 2326.317627,1488.949341 2285.045654,1482.154541 
	C2263.487061,1478.605225 2241.648438,1476.755127 2218.401367,1473.502930 
	C2209.871826,1472.638062 2202.877686,1472.407837 2194.955811,1472.102539 
	C2165.867188,1472.018921 2137.705811,1471.961304 2109.544678,1472.023193 
	C2096.306396,1472.052246 2083.068359,1472.311401 2069.365234,1472.491211 
	C2068.305420,1473.002441 2068.223877,1473.563721 2068.656250,1474.200073 
	C2068.554688,1508.151489 2068.453125,1542.103027 2068.152832,1577.486084 
	C2068.002930,1579.287598 2068.051758,1579.657227 2068.100586,1580.026855 
	C2067.955566,1586.013672 2067.691406,1592.000244 2067.684814,1597.987183 
	C2067.635742,1643.316162 2067.636719,1688.645264 2067.067383,1734.873657 
	C2066.512695,1735.773071 2065.762695,1736.188354 2065.762695,1736.188354 
	C2049.337646,1722.321655 2033.602661,1707.521240 2016.352417,1694.771118 
	C1972.482788,1662.345581 1923.281372,1641.763550 1868.560791,1631.350098 
	C1866.626587,1630.377930 1865.711304,1630.073608 1864.796021,1629.769165 
	C1864.642212,1627.451782 1864.354248,1625.134521 1864.354004,1622.817139 
	C1864.347290,1511.221924 1864.365112,1399.626587 1864.900391,1287.198975 
	C1865.420410,1286.366699 1866.192993,1286.228882 1867.107300,1286.161865 
	C1870.020630,1286.063477 1872.019775,1286.004517 1874.018799,1286.004517 
	C2143.617920,1286.000122 2413.217041,1285.999390 2682.816162,1286.009521 
	C2685.813232,1286.009644 2688.810547,1286.152710 2692.193848,1286.296875 
	C2692.580078,1286.364624 2693.345947,1286.194580 2693.346191,1286.194580 
	C2693.428223,1310.152466 2693.510498,1334.110229 2693.017090,1359.074951 
	C2692.016357,1360.429077 2691.836182,1360.875244 2691.900879,1361.420410 
z"/>
<path fill="#0043A4" opacity="1.000000" stroke="none" 
	d="
M1389.780762,1473.880615 
	C1386.572388,1473.979248 1383.363892,1474.078003 1378.506592,1474.081299 
	C1373.165405,1474.617432 1369.473022,1475.249023 1365.780762,1475.880615 
	C1307.461792,1482.022583 1251.496094,1495.952148 1200.505005,1525.991943 
	C1105.575684,1470.992554 1010.807861,1416.086670 915.729309,1361.000854 
	C915.729309,1336.414429 915.729309,1312.135620 916.848816,1286.932617 
	C1192.609619,1286.011719 1467.250977,1286.014893 1741.892334,1286.018188 
	C1742.039795,1289.336792 1742.315430,1292.655396 1742.316162,1295.973999 
	C1742.338745,1403.921631 1742.334839,1511.869385 1742.334839,1619.817017 
	C1742.334839,1623.411255 1742.334839,1627.005493 1742.334839,1631.229248 
	C1664.985962,1644.999023 1599.684082,1680.332397 1543.731689,1735.493652 
	C1542.623413,1736.190918 1542.286499,1736.181519 1541.949463,1736.171997 
	C1541.854736,1697.069336 1541.760132,1657.966797 1541.664795,1618.864136 
	C1541.652588,1613.893066 1541.636719,1608.922119 1541.646851,1602.517334 
	C1541.220093,1600.572754 1540.768921,1600.061646 1540.317627,1599.550537 
	C1540.301758,1558.318848 1540.285889,1517.086914 1539.732178,1474.138672 
	C1496.905518,1472.395874 1454.616577,1472.369385 1411.408936,1472.238525 
	C1403.587036,1472.716309 1396.683960,1473.298462 1389.780762,1473.880615 
z"/>
<path fill="#3F43A4" opacity="1.000000" stroke="none" 
	d="
M2691.807617,1286.229126 
	C2688.810547,1286.152710 2685.813232,1286.009644 2682.816162,1286.009521 
	C2413.217041,1285.999390 2143.617920,1286.000122 1874.018799,1286.004517 
	C1872.019775,1286.004517 1870.020630,1286.063477 1867.023804,1285.718018 
	C1866.026001,1285.341187 1865.840332,1284.460693 1865.840332,1284.460693 
	C1868.824585,1284.307495 1871.808716,1284.020508 1874.792969,1284.020264 
	C2145.300781,1284.000122 2415.808594,1284.001831 2686.316406,1284.005005 
	C2687.648682,1284.005005 2688.980957,1284.046265 2691.141602,1284.705200 
	C2691.970215,1285.342163 2691.807617,1286.229126 2691.807617,1286.229126 
z"/>
<path fill="#3F43A4" opacity="1.000000" stroke="none" 
	d="
M1741.545044,1285.220337 
	C1467.250977,1286.014893 1192.609619,1286.011719 917.038025,1286.013306 
	C917.078491,1285.360840 918.006409,1284.228149 919.028137,1284.135986 
	C922.002258,1283.867798 925.013977,1284.002808 928.010925,1284.002808 
	C1195.422852,1284.000854 1462.834839,1283.999268 1730.246826,1284.018433 
	C1733.897095,1284.018677 1737.547485,1284.281982 1741.545044,1285.220337 
z"/>
<path fill="#BFFFFF" opacity="1.000000" stroke="none" 
	d="
M1412.327637,1472.342896 
	C1454.616577,1472.369385 1496.905518,1472.395874 1539.542969,1473.219116 
	C1497.865356,1474.003418 1455.839111,1473.991089 1412.984253,1473.547363 
	C1412.155518,1473.115845 1412.327637,1472.342896 1412.327637,1472.342896 
z"/>
<path fill="#BFFFFF" opacity="1.000000" stroke="none" 
	d="
M2069.830322,1472.466309 
	C2083.068359,1472.311401 2096.306396,1472.052246 2109.544678,1472.023193 
	C2137.705811,1471.961304 2165.867188,1472.018921 2195.093262,1472.479858 
	C2196.158203,1472.932129 2196.385498,1473.703125 2196.385498,1473.703125 
	C2160.573242,1473.802002 2124.760986,1473.898438 2088.948730,1474.002686 
	C2083.311768,1474.019165 2077.674561,1474.071411 2071.029297,1473.726562 
	C2070.020996,1473.345947 2069.830322,1472.466309 2069.830322,1472.466309 
z"/>
<path fill="#40A1D1" opacity="1.000000" stroke="none" 
	d="
M2197.274658,1473.795166 
	C2196.385498,1473.703125 2196.158203,1472.932129 2196.020752,1472.554932 
	C2202.877686,1472.407837 2209.871826,1472.638062 2217.538086,1473.373291 
	C2211.527832,1473.881226 2204.845703,1473.884277 2197.274658,1473.795166 
z"/>
<path fill="#40A1D1" opacity="1.000000" stroke="none" 
	d="
M1411.408936,1472.238525 
	C1412.327637,1472.342896 1412.155518,1473.115845 1412.043945,1473.495117 
	C1405.170288,1473.933594 1398.408081,1473.992676 1390.713379,1473.966187 
	C1396.683960,1473.298462 1403.587036,1472.716309 1411.408936,1472.238525 
z"/>
<path fill="#40A1D1" opacity="1.000000" stroke="none" 
	d="
M1366.613525,1475.971436 
	C1369.473022,1475.249023 1373.165405,1474.617432 1377.704102,1474.081055 
	C1374.848999,1474.804810 1371.147583,1475.433472 1366.613525,1475.971436 
z"/>
<path fill="#4072BB" opacity="1.000000" stroke="none" 
	d="
M1864.830078,1630.330078 
	C1865.711304,1630.073608 1866.626587,1630.377930 1867.782593,1631.119019 
	C1866.970337,1631.334229 1865.917236,1631.112671 1864.830078,1630.330078 
z"/>
<path fill="#4072BB" opacity="1.000000" stroke="none" 
	d="
M2692.193848,1286.296875 
	C2691.807617,1286.229126 2691.970215,1285.342163 2692.064941,1284.901367 
	C2692.923096,1284.246216 2693.406494,1284.522583 2693.477783,1285.742188 
	C2693.345947,1286.194580 2692.580078,1286.364624 2692.193848,1286.296875 
z"/>
<path fill="#4072BB" opacity="1.000000" stroke="none" 
	d="
M1865.372314,1284.484375 
	C1865.840332,1284.460693 1866.026001,1285.341187 1866.109497,1285.785034 
	C1866.192993,1286.228882 1865.420410,1286.366699 1865.036865,1286.283447 
	C1864.218994,1285.558838 1864.302734,1284.994751 1865.372314,1284.484375 
z"/>
<path fill="#4072BB" opacity="1.000000" stroke="none" 
	d="
M2692.328613,1361.400391 
	C2691.836182,1360.875244 2692.016357,1360.429077 2692.802246,1359.982422 
	C2693.492188,1360.508545 2693.356445,1361.007568 2692.328613,1361.400391 
z"/>
<path fill="#BFD0E8" opacity="1.000000" stroke="none" 
	d="
M2069.365234,1472.491211 
	C2069.830322,1472.466309 2070.020996,1473.345947 2070.105957,1473.789673 
	C2070.190918,1474.233398 2069.420166,1474.369751 2069.038086,1474.284912 
	C2068.223877,1473.563721 2068.305420,1473.002441 2069.365234,1472.491211 
z"/>
<path fill="#BFD0E8" opacity="1.000000" stroke="none" 
	d="
M2068.390625,1579.856689 
	C2068.051758,1579.657227 2068.002930,1579.287598 2068.202637,1578.416870 
	C2068.618652,1578.302612 2068.833008,1578.677734 2068.931396,1579.081299 
	C2068.973145,1579.252563 2068.771729,1579.483032 2068.390625,1579.856689 
z"/>
<path fill="#BFD0E8" opacity="1.000000" stroke="none" 
	d="
M1540.260742,1600.049561 
	C1540.768921,1600.061646 1541.220093,1600.572754 1541.520752,1601.594482 
	C1540.981445,1601.586304 1540.592529,1601.067383 1540.260742,1600.049561 
z"/>
<path fill="#4072BB" opacity="1.000000" stroke="none" 
	d="
M2065.940674,1736.654785 
	C2065.762695,1736.188354 2066.512695,1735.773071 2066.940918,1735.791138 
	C2066.952393,1736.246582 2066.535400,1736.683960 2065.940674,1736.654785 
z"/>
<path fill="#BFD0E8" opacity="1.000000" stroke="none" 
	d="
M1542.071045,1736.614502 
	C1542.286499,1736.181519 1542.623413,1736.190918 1543.457275,1736.110718 
	C1543.367065,1736.366455 1542.779785,1736.711670 1542.071045,1736.614502 
z"/>
</svg>